<?xml version="1.0" encoding="UTF-8" standalone="no"?>
<!-- Created with Inkscape (http://www.inkscape.org/) -->
<svg
   xmlns:dc="http://purl.org/dc/elements/1.1/"
   xmlns:cc="http://creativecommons.org/ns#"
   xmlns:rdf="http://www.w3.org/1999/02/22-rdf-syntax-ns#"
   xmlns:svg="http://www.w3.org/2000/svg"
   xmlns="http://www.w3.org/2000/svg"
   xmlns:xlink="http://www.w3.org/1999/xlink"
   xmlns:sodipodi="http://sodipodi.sourceforge.net/DTD/sodipodi-0.dtd"
   xmlns:inkscape="http://www.inkscape.org/namespaces/inkscape"
   width="128"
   height="128"
   id="svg2"
   version="1.1"
   inkscape:version="0.46"
   sodipodi:docname="softwarestore.svg"
   inkscape:output_extension="org.inkscape.output.svg.inkscape"
   inkscape:export-filename="/home/kwwii/Desktop/softwarestore32.png"
   inkscape:export-xdpi="22.5"
   inkscape:export-ydpi="22.5"
   sodipodi:version="0.32">
  <defs
     id="defs4">
    <inkscape:perspective
       sodipodi:type="inkscape:persp3d"
       inkscape:vp_x="0 : 64 : 1"
       inkscape:vp_y="0 : 1000 : 0"
       inkscape:vp_z="128 : 64 : 1"
       inkscape:persp3d-origin="64 : 42.666667 : 1"
       id="perspective258" />
    <linearGradient
       inkscape:collect="always"
       id="linearGradient8432">
      <stop
         style="stop-color:#000000;stop-opacity:1;"
         offset="0"
         id="stop8434" />
      <stop
         style="stop-color:#000000;stop-opacity:0;"
         offset="1"
         id="stop8436" />
    </linearGradient>
    <linearGradient
       id="linearGradient3665">
      <stop
         style="stop-color:#674323;stop-opacity:1;"
         offset="0"
         id="stop3667" />
      <stop
         style="stop-color:#c48752;stop-opacity:0;"
         offset="1"
         id="stop3669" />
    </linearGradient>
    <linearGradient
       id="linearGradient3633">
      <stop
         style="stop-color:#50331d;stop-opacity:1;"
         offset="0"
         id="stop3635" />
      <stop
         style="stop-color:#9c7b5f;stop-opacity:1;"
         offset="1"
         id="stop3637" />
    </linearGradient>
    <linearGradient
       id="linearGradient3619">
      <stop
         style="stop-color:#c2a286;stop-opacity:1;"
         offset="0"
         id="stop3621" />
      <stop
         id="stop3627"
         offset="0.58713073"
         style="stop-color:#a6754a;stop-opacity:1;" />
      <stop
         style="stop-color:#966941;stop-opacity:1;"
         offset="0.74006671"
         id="stop3629" />
      <stop
         style="stop-color:#b48052;stop-opacity:1;"
         offset="1"
         id="stop3623" />
    </linearGradient>
    <linearGradient
       id="linearGradient3665-9">
      <stop
         style="stop-color:#674323;stop-opacity:1;"
         offset="0"
         id="stop3667-1" />
      <stop
         style="stop-color:#c48752;stop-opacity:0;"
         offset="1"
         id="stop3669-7" />
    </linearGradient>
    <linearGradient
       inkscape:collect="always"
       xlink:href="#linearGradient3665-9"
       id="linearGradient5111"
       gradientUnits="userSpaceOnUse"
       gradientTransform="matrix(-6.9297164,0,0,5.7747637,123.68801,931.97963)"
       x1="3"
       y1="14.999983"
       x2="3.8152161"
       y2="16.999983" />
    <linearGradient
       inkscape:collect="always"
       xlink:href="#linearGradient3665"
       id="linearGradient5114"
       gradientUnits="userSpaceOnUse"
       gradientTransform="matrix(6.9297164,0,0,5.7747637,1.2630181,931.97963)"
       x1="3"
       y1="14.999983"
       x2="3.8152161"
       y2="16.999983" />
    <radialGradient
       inkscape:collect="always"
       xlink:href="#linearGradient3633"
       id="radialGradient5117"
       gradientUnits="userSpaceOnUse"
       gradientTransform="matrix(12.146917,0,0,1.79219,-71.140588,952.46969)"
       cx="11"
       cy="7.9000001"
       fx="11"
       fy="7.9000001"
       r="7.25" />
    <linearGradient
       id="linearGradient8647">
      <stop
         id="stop8649"
         offset="0"
         style="stop-color:#6ccdff;stop-opacity:1;" />
      <stop
         id="stop8651"
         offset="1"
         style="stop-color:#004bab;stop-opacity:1;" />
    </linearGradient>
    <linearGradient
       id="linearGradient8740"
       inkscape:collect="always">
      <stop
         id="stop8742"
         offset="0"
         style="stop-color:#ffffff;stop-opacity:1;" />
      <stop
         id="stop8744"
         offset="1"
         style="stop-color:#ffffff;stop-opacity:0;" />
    </linearGradient>
    <linearGradient
       id="linearGradient8924">
      <stop
         style="stop-color:#cee14b"
         offset="0"
         id="stop8926" />
      <stop
         style="stop-color:#63d900;stop-opacity:1;"
         offset="1"
         id="stop8928" />
    </linearGradient>
    <linearGradient
       id="linearGradient8918">
      <stop
         style="stop-color:#8dff2d;stop-opacity:1;"
         offset="0"
         id="stop8920" />
      <stop
         style="stop-color:#6bc500;stop-opacity:1;"
         offset="1"
         id="stop8922" />
    </linearGradient>
    <linearGradient
       inkscape:collect="always"
       xlink:href="#linearGradient3123"
       id="linearGradient3129"
       x1="11.579321"
       y1="21.053846"
       x2="35.079323"
       y2="52.56406"
       gradientUnits="userSpaceOnUse" />
    <linearGradient
       inkscape:collect="always"
       id="linearGradient3123">
      <stop
         style="stop-color:#888a85;stop-opacity:1;"
         offset="0"
         id="stop3125" />
      <stop
         style="stop-color:#babdb6;stop-opacity:1"
         offset="1"
         id="stop3127" />
    </linearGradient>
    <linearGradient
       inkscape:collect="always"
       xlink:href="#linearGradient3093"
       id="linearGradient3099"
       x1="8.125"
       y1="18.625"
       x2="8.125"
       y2="1.5623856"
       gradientUnits="userSpaceOnUse" />
    <linearGradient
       id="linearGradient3093">
      <stop
         style="stop-color:#2e3436;stop-opacity:1"
         offset="0"
         id="stop3095" />
      <stop
         style="stop-color:#555753;stop-opacity:1;"
         offset="1"
         id="stop3097" />
    </linearGradient>
    <linearGradient
       inkscape:collect="always"
       xlink:href="#linearGradient3396"
       id="linearGradient3402"
       x1="7.625"
       y1="4.9375"
       x2="9.1875"
       y2="22.625"
       gradientUnits="userSpaceOnUse" />
    <linearGradient
       inkscape:collect="always"
       id="linearGradient3396">
      <stop
         style="stop-color:white;stop-opacity:1;"
         offset="0"
         id="stop3398" />
      <stop
         style="stop-color:white;stop-opacity:0;"
         offset="1"
         id="stop3400" />
    </linearGradient>
    <linearGradient
       inkscape:collect="always"
       xlink:href="#linearGradient3115"
       id="linearGradient3121"
       x1="10.375"
       y1="11.0625"
       x2="10.25"
       y2="5.6206751"
       gradientUnits="userSpaceOnUse"
       gradientTransform="translate(0,1)" />
    <linearGradient
       inkscape:collect="always"
       id="linearGradient3115">
      <stop
         style="stop-color:white;stop-opacity:1;"
         offset="0"
         id="stop3117" />
      <stop
         style="stop-color:white;stop-opacity:0;"
         offset="1"
         id="stop3119" />
    </linearGradient>
    <linearGradient
       inkscape:collect="always"
       id="linearGradient3245">
      <stop
         style="stop-color:#babdb6;stop-opacity:1"
         offset="0"
         id="stop3247" />
      <stop
         style="stop-color:#888a85;stop-opacity:1"
         offset="1"
         id="stop3249" />
    </linearGradient>
    <linearGradient
       inkscape:collect="always"
       id="linearGradient3221">
      <stop
         style="stop-color:white;stop-opacity:1;"
         offset="0"
         id="stop3223" />
      <stop
         style="stop-color:white;stop-opacity:0;"
         offset="1"
         id="stop3225" />
    </linearGradient>
    <linearGradient
       inkscape:collect="always"
       xlink:href="#linearGradient3221"
       id="linearGradient3371"
       gradientUnits="userSpaceOnUse"
       gradientTransform="translate(-0.999989,4.2915365e-6)"
       x1="14.49791"
       y1="20.819609"
       x2="17.692724"
       y2="24.905617" />
    <linearGradient
       inkscape:collect="always"
       xlink:href="#linearGradient3221"
       id="linearGradient3387"
       gradientUnits="userSpaceOnUse"
       x1="14.49791"
       y1="20.819609"
       x2="15.223973"
       y2="22.249367" />
    <linearGradient
       id="XMLID_34_"
       gradientUnits="userSpaceOnUse"
       x1="64.586403"
       y1="53.105499"
       x2="73.503799"
       y2="62.0233">
      <stop
         offset="0"
         style="stop-color:#F36600"
         id="stop11629" />
      <stop
         offset="0.1798"
         style="stop-color:#E69C2E"
         id="stop11631" />
      <stop
         offset="0.5056"
         style="stop-color:#D66628"
         id="stop11633" />
      <stop
         offset="1"
         style="stop-color:#F36600"
         id="stop11635" />
    </linearGradient>
    <linearGradient
       id="XMLID_35_"
       gradientUnits="userSpaceOnUse"
       x1="71.991203"
       y1="115.9727"
       x2="80.866203"
       y2="124.8477"
       gradientTransform="matrix(0.9027,-0.086,-0.086,0.9027,-18.4803,-14.1634)">
      <stop
         offset="0"
         style="stop-color:#E0E0E0"
         id="stop11644" />
      <stop
         offset="0.2921"
         style="stop-color:#FFFFFF"
         id="stop11646" />
      <stop
         offset="1"
         style="stop-color:#636363"
         id="stop11648" />
    </linearGradient>
    <linearGradient
       id="XMLID_36_"
       gradientUnits="userSpaceOnUse"
       x1="9.0531998"
       y1="110.1631"
       x2="17.5065"
       y2="118.6163">
      <stop
         offset="0"
         style="stop-color:#FFFFFF"
         id="stop11653" />
      <stop
         offset="1"
         style="stop-color:#B1B1B1"
         id="stop11655" />
    </linearGradient>
    <linearGradient
       id="XMLID_37_"
       gradientUnits="userSpaceOnUse"
       x1="41.2607"
       y1="153.6055"
       x2="41.991199"
       y2="134.8568"
       gradientTransform="matrix(0.9204,-0.0796,-0.0796,0.9204,-13.4588,-13.4578)">
      <stop
         offset="0"
         style="stop-color:#B9B9B9"
         id="stop11660" />
      <stop
         offset="1"
         style="stop-color:#F0F0F0"
         id="stop11662" />
    </linearGradient>
    <linearGradient
       id="XMLID_38_"
       gradientUnits="userSpaceOnUse"
       x1="47.877399"
       y1="-8.1499004"
       x2="52.3013"
       y2="-3.7261"
       gradientTransform="matrix(1.2065,0.1902,0.1902,1.2065,35.8319,31.1386)">
      <stop
         offset="0"
         style="stop-color:#F36600"
         id="stop11667" />
      <stop
         offset="0.2697"
         style="stop-color:#AD5220"
         id="stop11669" />
      <stop
         offset="0.6573"
         style="stop-color:#D66628"
         id="stop11671" />
      <stop
         offset="1"
         style="stop-color:#F36600"
         id="stop11673" />
    </linearGradient>
    <linearGradient
       id="XMLID_39_"
       gradientUnits="userSpaceOnUse"
       x1="1180.4746"
       y1="-1103.4536"
       x2="1184.8984"
       y2="-1099.0298"
       gradientTransform="matrix(0.6541,0.5357,0.5357,0.6541,-119.4234,151.2162)">
      <stop
         offset="0"
         style="stop-color:#F36600"
         id="stop11678" />
      <stop
         offset="0.2697"
         style="stop-color:#AD5220"
         id="stop11680" />
      <stop
         offset="0.6573"
         style="stop-color:#D66628"
         id="stop11682" />
      <stop
         offset="1"
         style="stop-color:#F36600"
         id="stop11684" />
    </linearGradient>
    <linearGradient
       id="XMLID_40_"
       gradientUnits="userSpaceOnUse"
       x1="-523.88568"
       y1="23.861799"
       x2="-527.36761"
       y2="20.379101"
       gradientTransform="matrix(-0.9814,-0.0021,-0.0021,-0.9814,-415.6453,58.6818)">
      <stop
         offset="0.2079"
         style="stop-color:#F36600"
         id="stop11689" />
      <stop
         offset="0.27"
         style="stop-color:#F77207"
         id="stop11691" />
      <stop
         offset="0.3726"
         style="stop-color:#FC800E"
         id="stop11693" />
      <stop
         offset="0.5031"
         style="stop-color:#FE8813"
         id="stop11695" />
      <stop
         offset="0.7528"
         style="stop-color:#FF8A14"
         id="stop11697" />
      <stop
         offset="0.9719"
         style="stop-color:#F36600"
         id="stop11699" />
    </linearGradient>
    <linearGradient
       id="XMLID_41_"
       gradientUnits="userSpaceOnUse"
       x1="-492.05319"
       y1="-8.2593002"
       x2="-495.40201"
       y2="-11.609"
       gradientTransform="matrix(-0.9814,-0.0021,-0.0021,-0.9814,-415.6453,58.6818)">
      <stop
         offset="0.2079"
         style="stop-color:#F36600"
         id="stop11704" />
      <stop
         offset="0.27"
         style="stop-color:#F77207"
         id="stop11706" />
      <stop
         offset="0.3726"
         style="stop-color:#FC800E"
         id="stop11708" />
      <stop
         offset="0.5031"
         style="stop-color:#FE8813"
         id="stop11710" />
      <stop
         offset="0.7528"
         style="stop-color:#FF8A14"
         id="stop11712" />
      <stop
         offset="0.9719"
         style="stop-color:#F36600"
         id="stop11714" />
    </linearGradient>
    <linearGradient
       id="XMLID_42_"
       gradientUnits="userSpaceOnUse"
       x1="69.661102"
       y1="2.6816001"
       x2="73.694504"
       y2="6.7150002"
       gradientTransform="matrix(1.0759,0.0966,0.0966,1.0759,12.6425,16.3358)">
      <stop
         offset="0"
         style="stop-color:#F36600"
         id="stop11719" />
      <stop
         offset="0.4775"
         style="stop-color:#FFCC33"
         id="stop11721" />
      <stop
         offset="0.7865"
         style="stop-color:#F36600"
         id="stop11723" />
    </linearGradient>
    <linearGradient
       id="XMLID_43_"
       gradientUnits="userSpaceOnUse"
       x1="56.774399"
       y1="57.063999"
       x2="61.1525"
       y2="61.442001">
      <stop
         offset="0"
         style="stop-color:#F36600"
         id="stop11728" />
      <stop
         offset="0.4775"
         style="stop-color:#FFCC33"
         id="stop11730" />
      <stop
         offset="0.7865"
         style="stop-color:#F36600"
         id="stop11732" />
    </linearGradient>
    <linearGradient
       id="XMLID_44_"
       gradientUnits="userSpaceOnUse"
       x1="56.450699"
       y1="67.164101"
       x2="60.409199"
       y2="71.123001">
      <stop
         offset="0"
         style="stop-color:#CCCCCC"
         id="stop11737" />
      <stop
         offset="1"
         style="stop-color:#999999"
         id="stop11739" />
    </linearGradient>
    <linearGradient
       inkscape:collect="always"
       xlink:href="#XMLID_44_"
       id="linearGradient12557"
       gradientUnits="userSpaceOnUse"
       x1="56.450699"
       y1="67.164101"
       x2="60.409199"
       y2="71.123001"
       gradientTransform="matrix(0.08598239,0,0,0.08598239,42.444283,1002.4681)" />
    <linearGradient
       inkscape:collect="always"
       xlink:href="#XMLID_43_"
       id="linearGradient12560"
       gradientUnits="userSpaceOnUse"
       x1="56.774399"
       y1="57.063999"
       x2="61.1525"
       y2="61.442001"
       gradientTransform="matrix(0.08598239,0,0,0.08598239,42.444283,1002.4681)" />
    <linearGradient
       inkscape:collect="always"
       xlink:href="#XMLID_42_"
       id="linearGradient12563"
       gradientUnits="userSpaceOnUse"
       gradientTransform="matrix(0.09250845,0.0083059,0.0083059,0.09250845,43.531315,1003.8727)"
       x1="69.661102"
       y1="2.6816001"
       x2="73.694504"
       y2="6.7150002" />
    <linearGradient
       inkscape:collect="always"
       xlink:href="#XMLID_41_"
       id="linearGradient12566"
       gradientUnits="userSpaceOnUse"
       gradientTransform="matrix(-0.08438312,-1.8056302e-4,-1.8056302e-4,-0.08438312,6.7061067,1007.5137)"
       x1="-492.05319"
       y1="-8.2593002"
       x2="-495.40201"
       y2="-11.609" />
    <linearGradient
       inkscape:collect="always"
       xlink:href="#XMLID_40_"
       id="linearGradient12569"
       gradientUnits="userSpaceOnUse"
       gradientTransform="matrix(-0.08438312,-1.8056302e-4,-1.8056302e-4,-0.08438312,6.7061067,1007.5137)"
       x1="-523.88568"
       y1="23.861799"
       x2="-527.36761"
       y2="20.379101" />
    <linearGradient
       inkscape:collect="always"
       xlink:href="#XMLID_39_"
       id="linearGradient12572"
       gradientUnits="userSpaceOnUse"
       gradientTransform="matrix(0.05624108,0.04606077,0.04606077,0.05624108,32.175974,1015.47)"
       x1="1180.4746"
       y1="-1103.4536"
       x2="1184.8984"
       y2="-1099.0298" />
    <linearGradient
       inkscape:collect="always"
       xlink:href="#XMLID_38_"
       id="linearGradient12575"
       gradientUnits="userSpaceOnUse"
       gradientTransform="matrix(0.10373775,0.01635385,0.01635385,0.10373775,45.525195,1005.1455)"
       x1="47.877399"
       y1="-8.1499004"
       x2="52.3013"
       y2="-3.7261" />
    <filter
       inkscape:collect="always"
       id="filter4034"
       x="-0.033209807"
       width="1.0664196"
       y="-0.31039071"
       height="1.6207814">
      <feGaussianBlur
         inkscape:collect="always"
         stdDeviation="1.4936906"
         id="feGaussianBlur4036" />
    </filter>
    <linearGradient
       id="linearGradient8918-0">
      <stop
         style="stop-color:#8dff2d;stop-opacity:1;"
         offset="0"
         id="stop8920-9" />
      <stop
         style="stop-color:#6bc500;stop-opacity:1;"
         offset="1"
         id="stop8922-0" />
    </linearGradient>
    <linearGradient
       id="linearGradient8740-8"
       inkscape:collect="always">
      <stop
         id="stop8742-7"
         offset="0"
         style="stop-color:#ffffff;stop-opacity:1;" />
      <stop
         id="stop8744-0"
         offset="1"
         style="stop-color:#ffffff;stop-opacity:0;" />
    </linearGradient>
    <radialGradient
       inkscape:collect="always"
       xlink:href="#linearGradient8647"
       id="radialGradient4398"
       gradientUnits="userSpaceOnUse"
       gradientTransform="matrix(3.1626045,0,0,3.162675,-126.57491,866.51671)"
       cx="62.200352"
       cy="-8.7256308"
       fx="62.200352"
       fy="-8.7256308"
       r="9.7552834" />
    <radialGradient
       inkscape:collect="always"
       xlink:href="#linearGradient8918-0"
       id="radialGradient4400"
       gradientUnits="userSpaceOnUse"
       gradientTransform="matrix(0.08149757,2.9380136,-1.9765691,0.05480643,102.85337,763.88299)"
       cx="25.969097"
       cy="17.257854"
       fx="25.968998"
       fy="17.257843"
       r="9.8222504" />
    <radialGradient
       inkscape:collect="always"
       xlink:href="#linearGradient8740-8"
       id="radialGradient4402"
       gradientUnits="userSpaceOnUse"
       gradientTransform="matrix(1.2130977,0,0,1.1284641,39.32502,824.65892)"
       cx="62.225391"
       cy="-3.4420195"
       fx="62.225391"
       fy="-3.4420195"
       r="10.081216" />
    <radialGradient
       inkscape:collect="always"
       xlink:href="#linearGradient8918-0"
       id="radialGradient4404"
       gradientUnits="userSpaceOnUse"
       gradientTransform="matrix(0.08149757,2.9380136,-1.9765691,0.05480643,102.85337,763.88299)"
       cx="25.969097"
       cy="17.257854"
       fx="25.968998"
       fy="17.257843"
       r="9.8222504" />
    <radialGradient
       inkscape:collect="always"
       xlink:href="#linearGradient8740-8"
       id="radialGradient4406"
       gradientUnits="userSpaceOnUse"
       gradientTransform="matrix(1.2130977,0,0,1.1284641,39.32502,824.65892)"
       cx="62.225391"
       cy="-3.4420195"
       fx="62.225391"
       fy="-3.4420195"
       r="10.081216" />
    <radialGradient
       inkscape:collect="always"
       xlink:href="#linearGradient8918-0"
       id="radialGradient4408"
       gradientUnits="userSpaceOnUse"
       gradientTransform="matrix(0.08149757,2.9380136,-1.9765691,0.05480643,102.85337,763.88299)"
       cx="25.969097"
       cy="17.257854"
       fx="25.968998"
       fy="17.257843"
       r="9.8222504" />
    <radialGradient
       inkscape:collect="always"
       xlink:href="#linearGradient8740-8"
       id="radialGradient4410"
       gradientUnits="userSpaceOnUse"
       gradientTransform="matrix(1.2130977,0,0,1.1284641,39.32502,824.65892)"
       cx="62.225391"
       cy="-3.4420195"
       fx="62.225391"
       fy="-3.4420195"
       r="10.081216" />
    <radialGradient
       inkscape:collect="always"
       xlink:href="#linearGradient8918-0"
       id="radialGradient4412"
       gradientUnits="userSpaceOnUse"
       gradientTransform="matrix(0.08149757,2.9380136,-1.9765691,0.05480643,102.85337,763.88299)"
       cx="25.969097"
       cy="17.257854"
       fx="25.968998"
       fy="17.257843"
       r="9.8222504" />
    <radialGradient
       inkscape:collect="always"
       xlink:href="#linearGradient8740-8"
       id="radialGradient4414"
       gradientUnits="userSpaceOnUse"
       gradientTransform="matrix(1.2130977,0,0,1.1284641,39.32502,824.65892)"
       cx="62.225391"
       cy="-3.4420195"
       fx="62.225391"
       fy="-3.4420195"
       r="10.081216" />
    <radialGradient
       inkscape:collect="always"
       xlink:href="#linearGradient8918-0"
       id="radialGradient4416"
       gradientUnits="userSpaceOnUse"
       gradientTransform="matrix(0.08149757,2.9380136,-1.9765691,0.05480643,102.85337,763.88299)"
       cx="25.969097"
       cy="17.257854"
       fx="25.968998"
       fy="17.257843"
       r="9.8222504" />
    <radialGradient
       inkscape:collect="always"
       xlink:href="#linearGradient8740-8"
       id="radialGradient4418"
       gradientUnits="userSpaceOnUse"
       gradientTransform="matrix(1.2130977,0,0,1.1284641,39.32502,824.65892)"
       cx="62.225391"
       cy="-3.4420195"
       fx="62.225391"
       fy="-3.4420195"
       r="10.081216" />
    <radialGradient
       inkscape:collect="always"
       xlink:href="#linearGradient8918-0"
       id="radialGradient4420"
       gradientUnits="userSpaceOnUse"
       gradientTransform="matrix(0.08149757,2.9380136,-1.9765691,0.05480643,102.85337,763.88299)"
       cx="25.969097"
       cy="17.257854"
       fx="25.968998"
       fy="17.257843"
       r="9.8222504" />
    <radialGradient
       inkscape:collect="always"
       xlink:href="#linearGradient8740-8"
       id="radialGradient4422"
       gradientUnits="userSpaceOnUse"
       gradientTransform="matrix(1.2130977,0,0,1.1284641,39.32502,824.65892)"
       cx="62.225391"
       cy="-3.4420195"
       fx="62.225391"
       fy="-3.4420195"
       r="10.081216" />
    <radialGradient
       inkscape:collect="always"
       xlink:href="#linearGradient8924"
       id="radialGradient4424"
       gradientUnits="userSpaceOnUse"
       gradientTransform="matrix(0.09014828,3.249873,-2.3186934,0.0643248,110.69782,760.45336)"
       cx="24.652573"
       cy="18.94449"
       fx="24.652485"
       fy="18.944481"
       r="8.6174498" />
    <radialGradient
       inkscape:collect="always"
       xlink:href="#linearGradient8740"
       id="radialGradient4426"
       gradientUnits="userSpaceOnUse"
       gradientTransform="matrix(1.1772704,0,0,1.0951353,39.945039,825.47547)"
       cx="62.225391"
       cy="-3.4420195"
       fx="62.225391"
       fy="-3.4420195"
       r="10.081216" />
    <radialGradient
       inkscape:collect="always"
       xlink:href="#linearGradient8918-0"
       id="radialGradient4428"
       gradientUnits="userSpaceOnUse"
       gradientTransform="matrix(0.08149757,2.9380136,-1.9765691,0.05480643,102.85337,763.88299)"
       cx="25.969097"
       cy="17.257854"
       fx="25.968998"
       fy="17.257843"
       r="9.8222504" />
    <radialGradient
       inkscape:collect="always"
       xlink:href="#linearGradient8740-8"
       id="radialGradient4430"
       gradientUnits="userSpaceOnUse"
       gradientTransform="matrix(1.2130977,0,0,1.1284641,39.32502,824.65892)"
       cx="62.225391"
       cy="-3.4420195"
       fx="62.225391"
       fy="-3.4420195"
       r="10.081216" />
    <radialGradient
       inkscape:collect="always"
       xlink:href="#linearGradient8918-0"
       id="radialGradient4432"
       gradientUnits="userSpaceOnUse"
       gradientTransform="matrix(0.08149757,2.9380136,-1.9765691,0.05480643,102.85337,763.88299)"
       cx="25.969097"
       cy="17.257854"
       fx="25.968998"
       fy="17.257843"
       r="9.8222504" />
    <radialGradient
       inkscape:collect="always"
       xlink:href="#linearGradient8740-8"
       id="radialGradient4434"
       gradientUnits="userSpaceOnUse"
       gradientTransform="matrix(1.2130977,0,0,1.1284641,39.32502,824.65892)"
       cx="62.225391"
       cy="-3.4420195"
       fx="62.225391"
       fy="-3.4420195"
       r="10.081216" />
    <radialGradient
       inkscape:collect="always"
       xlink:href="#linearGradient8918"
       id="radialGradient4436"
       gradientUnits="userSpaceOnUse"
       gradientTransform="matrix(0.08149757,2.9380136,-1.9765691,0.05480643,102.85337,763.88299)"
       cx="25.969097"
       cy="17.257854"
       fx="25.968998"
       fy="17.257843"
       r="9.8222504" />
    <radialGradient
       inkscape:collect="always"
       xlink:href="#linearGradient8740"
       id="radialGradient4438"
       gradientUnits="userSpaceOnUse"
       gradientTransform="matrix(1.2130977,0,0,1.1284641,39.32502,824.65892)"
       cx="62.225391"
       cy="-3.4420195"
       fx="62.225391"
       fy="-3.4420195"
       r="10.081216" />
    <radialGradient
       inkscape:collect="always"
       xlink:href="#linearGradient3245"
       id="radialGradient4544"
       gradientUnits="userSpaceOnUse"
       gradientTransform="matrix(1.959694,0,0,1.657851,-14.97639,-13.84084)"
       cx="15.902422"
       cy="21.731947"
       fx="15.902422"
       fy="21.731947"
       r="2.9999986" />
    <linearGradient
       inkscape:collect="always"
       xlink:href="#linearGradient3221"
       id="linearGradient4546"
       gradientUnits="userSpaceOnUse"
       x1="14.49791"
       y1="20.819609"
       x2="15.223973"
       y2="22.249367" />
    <linearGradient
       inkscape:collect="always"
       xlink:href="#linearGradient3221"
       id="linearGradient4548"
       gradientUnits="userSpaceOnUse"
       gradientTransform="translate(-6,0)"
       x1="14.49791"
       y1="20.819609"
       x2="15.005223"
       y2="21.905617" />
    <linearGradient
       inkscape:collect="always"
       xlink:href="#linearGradient3221"
       id="linearGradient4550"
       gradientUnits="userSpaceOnUse"
       gradientTransform="translate(-0.999989,4.2915367e-6)"
       x1="14.49791"
       y1="20.819609"
       x2="14.911473"
       y2="22.593117" />
    <linearGradient
       inkscape:collect="always"
       xlink:href="#linearGradient3619"
       id="linearGradient6771"
       gradientUnits="userSpaceOnUse"
       gradientTransform="matrix(5.7747637,0,0,5.7747637,-1.0468874,4.73005)"
       x1="8"
       y1="7"
       x2="8"
       y2="19" />
    <linearGradient
       inkscape:collect="always"
       xlink:href="#linearGradient6439-0"
       id="linearGradient6746-6"
       gradientUnits="userSpaceOnUse"
       gradientTransform="matrix(5.7747637,0,0,5.7747637,-1.046887,-5003.8934)"
       x1="3.5"
       y1="1044.3622"
       x2="18.5"
       y2="1044.3622" />
    <linearGradient
       id="linearGradient6439-0">
      <stop
         style="stop-color:#ffffff;stop-opacity:0.22142857;"
         offset="0"
         id="stop6441-76" />
      <stop
         id="stop6447-60"
         offset="0.04977778"
         style="stop-color:#ffffff;stop-opacity:0;" />
      <stop
         style="stop-color:#ffffff;stop-opacity:0;"
         offset="0.93333334"
         id="stop6449-8" />
      <stop
         style="stop-color:#ffffff;stop-opacity:0.22857143;"
         offset="1"
         id="stop6443-0" />
    </linearGradient>
    <linearGradient
       inkscape:collect="always"
       xlink:href="#linearGradient8432"
       id="linearGradient8438"
       x1="75.026443"
       y1="-46.331055"
       x2="75.026443"
       y2="-66.652649"
       gradientUnits="userSpaceOnUse"
       gradientTransform="translate(0,1024.3622)" />
  </defs>
  <sodipodi:namedview
     id="base"
     pagecolor="#ffffff"
     bordercolor="#666666"
     borderopacity="1.0"
     inkscape:pageopacity="0.0"
     inkscape:pageshadow="2"
     inkscape:zoom="2"
     inkscape:cx="58.559921"
     inkscape:cy="57.459415"
     inkscape:document-units="px"
     inkscape:current-layer="layer1"
     showgrid="false"
     showborder="true"
     inkscape:showpageshadow="false"
     inkscape:window-width="1024"
     inkscape:window-height="694"
     inkscape:window-x="0"
     inkscape:window-y="25"
     inkscape:window-maximized="1">
    <inkscape:grid
       type="xygrid"
       id="grid2816"
       empspacing="5"
       visible="true"
       enabled="true"
       snapvisiblegridlinesonly="true" />
  </sodipodi:namedview>
  <metadata
     id="metadata7">
    <rdf:RDF>
      <cc:Work
         rdf:about="">
        <dc:format>image/svg+xml</dc:format>
        <dc:type
           rdf:resource="http://purl.org/dc/dcmitype/StillImage" />
        <dc:title />
      </cc:Work>
    </rdf:RDF>
  </metadata>
  <g
     inkscape:label="Layer 1"
     inkscape:groupmode="layer"
     id="layer1"
     transform="translate(0,-924.3622)">
    <path
       style="opacity:0.12999998;fill:#000000;fill-opacity:1;stroke:none;stroke-width:1;marker:none;visibility:visible;display:inline;overflow:visible;filter:url(#filter4034);enable-background:accumulate"
       d="M 8.50264,1038.8126 L 116.44839,1038.8126 L 109.44839,1050.3621 L 15.50264,1050.3621 L 8.50264,1038.8126 L 8.50264,1038.8126 z"
       id="rect17154"
       sodipodi:nodetypes="ccccc"
       transform="matrix(0.9166248,0,0,-1,5.2089094,2087.6747)" />
    <path
       style="fill:url(#radialGradient5117);fill-opacity:1;stroke:none;stroke-width:2.39999999999999991;stroke-linecap:round;stroke-linejoin:round;stroke-miterlimit:4;stroke-opacity:0.45539903999999998;stroke-dasharray:none"
       d="m 19.164786,969.51559 7.218454,-8.66214 1.443691,-8.66215 69.297164,0 1.443691,8.66215 7.218454,8.66214 -86.621454,0 z"
       id="path3631"
       sodipodi:nodetypes="ccccccc" />
    <g
       transform="matrix(0.98893746,-0.5709633,0.5709633,0.98893746,4.7765435,951.71342)"
       id="g6726">
      <rect
         ry="2.875"
         rx="2.875"
         y="8.0407381"
         x="5.5"
         height="36.459362"
         width="37"
         id="rect2157"
         style="color:#000000;fill:url(#linearGradient3129);fill-opacity:1;fill-rule:nonzero;stroke:#555753;stroke-width:1.00000024;stroke-linecap:round;stroke-linejoin:miter;stroke-miterlimit:6;stroke-opacity:1;stroke-dasharray:none;stroke-dashoffset:1.4;marker:none;visibility:visible;display:inline;overflow:visible" />
      <rect
         ry="1.9236857"
         rx="1.9236857"
         y="2.4999993"
         x="6.5"
         height="41.000008"
         width="35.000004"
         id="rect3052"
         style="opacity:0.3;color:#000000;fill:none;stroke:#ffffff;stroke-width:1;stroke-linecap:round;stroke-linejoin:miter;stroke-miterlimit:6;stroke-opacity:1;stroke-dasharray:none;stroke-dashoffset:1.4;marker:none;visibility:visible;display:inline;overflow:visible" />
      <path
         sodipodi:nodetypes="cccccc"
         id="rect3047"
         d="m 42.5,17 0,-12.625 C 42.5,2.78225 41.21775,1.5 39.625,1.5 l -31.25,0 C 6.78225,1.5 5.5,2.7822502 5.5,4.375 L 5.5,17"
         style="color:#000000;fill:url(#linearGradient3099);fill-opacity:1;fill-rule:nonzero;stroke:#2e3436;stroke-width:1.00000024;stroke-linecap:round;stroke-linejoin:miter;stroke-miterlimit:6;stroke-opacity:1;stroke-dasharray:none;stroke-dashoffset:1.4;marker:none;visibility:visible;display:inline;overflow:visible" />
      <rect
         ry="1.1762378"
         rx="1.1762378"
         y="7"
         x="8"
         height="9"
         width="32"
         id="rect3045"
         style="color:#000000;fill:#8ae234;fill-opacity:1;fill-rule:nonzero;stroke:none;stroke-width:0.99999994;marker:none;visibility:visible;display:inline;overflow:visible" />
      <path
         sodipodi:nodetypes="cccccc"
         id="path3072"
         d="m 41.500004,16.510137 0,-12.1622631 c 0,-1.0495514 -0.797965,-1.8478726 -1.847049,-1.8478726 l -31.3059059,0 c -1.0490833,0 -1.8470485,0.7983215 -1.8470485,1.8478726 l 0,12.1622631"
         style="opacity:0.2;color:#000000;fill:none;stroke:url(#linearGradient3402);stroke-width:1.00000036;stroke-linecap:square;stroke-linejoin:miter;stroke-miterlimit:6;stroke-opacity:1;stroke-dasharray:none;stroke-dashoffset:1.4;marker:none;visibility:visible;display:inline;overflow:visible" />
      <rect
         y="9"
         x="13"
         height="5"
         width="22"
         id="rect3075"
         style="opacity:0.6;color:#000000;fill:#ffffff;fill-opacity:1;fill-rule:nonzero;stroke:none;stroke-width:1;marker:none;visibility:visible;display:inline;overflow:visible" />
      <path
         id="rect3555"
         d="m 13,9 0,0.5 0,4.5 0.5,0 0,-4.5 L 35,9.5 35,9 13.5,9 13,9 z"
         style="opacity:0.3;color:#000000;fill:#000000;fill-opacity:1;fill-rule:nonzero;stroke:none;stroke-width:1;marker:none;visibility:visible;display:inline;overflow:visible" />
      <path
         sodipodi:nodetypes="ccccccc"
         id="rect3109"
         d="M 9.1875,7 C 8.5358642,7 8,7.535864 8,8.1875 l 0,5.03125 c 11.702209,-4.660713 24.206019,-2.226938 32,1.3125 L 40,8.1875 C 40,7.5358642 39.464137,7 38.8125,7 L 9.1875,7 z"
         style="opacity:0.4;color:#000000;fill:url(#linearGradient3121);fill-opacity:1;fill-rule:nonzero;stroke:none;stroke-width:0.99999994;marker:none;visibility:visible;display:inline;overflow:visible" />
      <g
         transform="translate(4.887581e-6,4.172325e-6)"
         id="g3253">
        <rect
           style="color:#000000;fill:url(#radialGradient4544);fill-opacity:1;fill-rule:nonzero;stroke:#555753;stroke-width:1.00000024;stroke-linecap:square;stroke-linejoin:miter;stroke-miterlimit:6;stroke-opacity:1;stroke-dasharray:none;stroke-dashoffset:1.4;marker:none;visibility:visible;display:inline;overflow:visible"
           id="rect3133"
           width="4.9999967"
           height="3.9999957"
           x="13.499995"
           y="19.5"
           rx="1.046875"
           ry="1.046875" />
        <rect
           style="opacity:0.4;color:#000000;fill:none;stroke:url(#linearGradient4546);stroke-width:1;stroke-linecap:square;stroke-linejoin:round;stroke-miterlimit:6;stroke-opacity:1;stroke-dasharray:none;stroke-dashoffset:1.4;marker:none;visibility:visible;display:inline;overflow:visible"
           id="rect3211"
           width="3.0000131"
           height="2.0000167"
           x="14.499989"
           y="20.499979"
           rx="0"
           ry="0" />
      </g>
      <g
         id="g3279">
        <rect
           style="color:#000000;fill:#555753;fill-opacity:1;fill-rule:nonzero;stroke:#2e3436;stroke-width:1.0000006;stroke-linecap:square;stroke-linejoin:miter;stroke-miterlimit:6;stroke-opacity:1;stroke-dasharray:none;stroke-dashoffset:1.4;marker:none;visibility:visible;display:inline;overflow:visible"
           id="rect3131"
           width="4.0000024"
           height="3.9999957"
           x="7.500001"
           y="19.500013"
           rx="1.016466"
           ry="1.016466" />
        <rect
           style="opacity:0.3;color:#000000;fill:none;stroke:url(#linearGradient4548);stroke-width:1;stroke-linecap:square;stroke-linejoin:round;stroke-miterlimit:6;stroke-opacity:1;stroke-dasharray:none;stroke-dashoffset:1.4;marker:none;visibility:visible;display:inline;overflow:visible"
           id="rect3229"
           width="2.0000114"
           height="2.000021"
           x="8.4999886"
           y="20.499979"
           rx="0"
           ry="0" />
      </g>
      <use
         height="48"
         width="48"
         transform="translate(0,6)"
         id="use3283"
         xlink:href="#g3279"
         y="0"
         x="0" />
      <use
         height="48"
         width="48"
         transform="translate(0,6)"
         id="use3285"
         xlink:href="#use3283"
         y="0"
         x="0" />
      <use
         height="48"
         width="48"
         transform="translate(0,6)"
         id="use3287"
         xlink:href="#use3285"
         y="0"
         x="0" />
      <use
         height="48"
         width="48"
         transform="translate(-4.887581e-6,5.999996)"
         id="use3331"
         xlink:href="#g3253"
         y="0"
         x="0" />
      <use
         height="48"
         width="48"
         transform="translate(-4.887581e-6,12)"
         id="use3333"
         xlink:href="#g3253"
         y="0"
         x="0" />
      <use
         height="48"
         width="48"
         transform="translate(6.999995,-4.172325e-6)"
         id="use3335"
         xlink:href="#g3253"
         y="0"
         x="0" />
      <use
         height="48"
         width="48"
         transform="translate(6.999995,5.999996)"
         id="use3337"
         xlink:href="#g3253"
         y="0"
         x="0" />
      <use
         height="48"
         width="48"
         transform="translate(6.999995,12)"
         id="use3339"
         xlink:href="#g3253"
         y="0"
         x="0" />
      <use
         height="48"
         width="48"
         transform="translate(6.999995,18)"
         id="use3341"
         xlink:href="#g3253"
         y="0"
         x="0" />
      <use
         height="48"
         width="48"
         transform="translate(14,-4.172325e-6)"
         id="use3343"
         xlink:href="#g3253"
         y="0"
         x="0" />
      <use
         height="48"
         width="48"
         transform="translate(14,12)"
         id="use3345"
         xlink:href="#g3253"
         y="0"
         x="0" />
      <use
         height="48"
         width="48"
         transform="translate(14,5.999996)"
         id="use3347"
         xlink:href="#g3253"
         y="0"
         x="0" />
      <g
         transform="translate(22,0)"
         id="g3349">
        <rect
           style="color:#000000;fill:#888a85;fill-opacity:1;fill-rule:nonzero;stroke:#555753;stroke-width:1.00000024;stroke-linecap:square;stroke-linejoin:miter;stroke-miterlimit:6;stroke-opacity:1;stroke-dasharray:none;stroke-dashoffset:1.4;marker:none;visibility:visible;display:inline;overflow:visible"
           id="rect3351"
           width="5.9999919"
           height="3.9999957"
           x="12.5"
           y="19.5"
           rx="1.046875"
           ry="1.046875" />
        <rect
           style="opacity:0.4;color:#000000;fill:none;stroke:url(#linearGradient4550);stroke-width:1;stroke-linecap:square;stroke-linejoin:round;stroke-miterlimit:6;stroke-opacity:1;stroke-dasharray:none;stroke-dashoffset:1.4;marker:none;visibility:visible;display:inline;overflow:visible"
           id="rect3353"
           width="4"
           height="2.0000172"
           x="13.5"
           y="20.499983"
           rx="0"
           ry="0" />
      </g>
      <use
         height="48"
         width="48"
         transform="translate(0,6)"
         id="use3359"
         xlink:href="#g3349"
         y="0"
         x="0" />
      <g
         id="use3363"
         transform="translate(22,12)">
        <rect
           ry="1.046875"
           rx="1.046875"
           y="19.5"
           x="12.5"
           height="10"
           width="6"
           id="rect3367"
           style="color:#000000;fill:#888a85;fill-opacity:1;fill-rule:nonzero;stroke:#555753;stroke-width:1.00000024;stroke-linecap:square;stroke-linejoin:miter;stroke-miterlimit:6;stroke-opacity:1;stroke-dasharray:none;stroke-dashoffset:1.4;marker:none;visibility:visible;display:inline;overflow:visible" />
        <rect
           ry="0"
           rx="0"
           y="20.499983"
           x="13.5"
           height="8.0000172"
           width="4"
           id="rect3369"
           style="opacity:0.4;color:#000000;fill:none;stroke:url(#linearGradient3371);stroke-width:1;stroke-linecap:square;stroke-linejoin:round;stroke-miterlimit:6;stroke-opacity:1;stroke-dasharray:none;stroke-dashoffset:1.4;marker:none;visibility:visible;display:inline;overflow:visible" />
      </g>
      <use
         height="48"
         width="48"
         transform="translate(-4.887581e-6,18)"
         id="use3375"
         xlink:href="#g3253"
         y="0"
         x="0" />
      <g
         transform="translate(14,18)"
         id="use3377">
        <rect
           ry="1.046875"
           rx="1.046875"
           y="19.5"
           x="13.499995"
           height="3.9999957"
           width="4.9999967"
           id="rect3381"
           style="color:#000000;fill:#888a85;fill-opacity:1;fill-rule:nonzero;stroke:#555753;stroke-width:1.00000024;stroke-linecap:square;stroke-linejoin:miter;stroke-miterlimit:6;stroke-opacity:1;stroke-dasharray:none;stroke-dashoffset:1.4;marker:none;visibility:visible;display:inline;overflow:visible" />
        <rect
           ry="0"
           rx="0"
           y="20.499979"
           x="14.499989"
           height="2.0000167"
           width="3.0000131"
           id="rect3383"
           style="opacity:0.4;color:#000000;fill:none;stroke:url(#linearGradient3387);stroke-width:1;stroke-linecap:square;stroke-linejoin:round;stroke-miterlimit:6;stroke-opacity:1;stroke-dasharray:none;stroke-dashoffset:1.4;marker:none;visibility:visible;display:inline;overflow:visible" />
      </g>
      <path
         id="text3390"
         d="m 12.512552,3.7387398 0,0.452242 c -0.07537,-0.051625 -0.151265,-0.089828 -0.22767,-0.1146093 -0.07537,-0.024779 -0.153846,-0.037169 -0.235413,-0.037171 -0.154879,1.4e-6 -0.275683,0.045432 -0.362414,0.1362921 -0.0857,0.08983 -0.128548,0.2157969 -0.128548,0.3779008 0,0.1621057 0.04285,0.2885888 0.128548,0.3794496 0.08673,0.089829 0.207535,0.1347437 0.362414,0.1347434 0.08673,3e-7 0.168815,-0.012906 0.246255,-0.038719 0.07847,-0.025813 0.150745,-0.064016 0.216828,-0.1146093 l 0,0.4537908 c -0.08673,0.032008 -0.175013,0.055756 -0.26484,0.071244 -0.0888,0.01652 -0.178111,0.02478 -0.267938,0.02478 -0.312853,-10e-8 -0.557559,-0.08002 -0.734119,-0.24006 -0.176561,-0.1610721 -0.264841,-0.3846116 -0.26484,-0.6706191 -10e-7,-0.2860057 0.08828,-0.5090289 0.26484,-0.6690703 0.17656,-0.1610707 0.421266,-0.2416069 0.734119,-0.2416087 0.09086,1.8e-6 0.180172,0.00826 0.267938,0.02478 0.08879,0.01549 0.177074,0.039237 0.26484,0.071244 m 1.307165,0.3004621 c -0.12287,1.4e-6 -0.216829,0.044399 -0.281877,0.1331946 -0.06402,0.087765 -0.09602,0.2147643 -0.09602,0.3809983 0,0.1662358 0.03201,0.2937514 0.09602,0.3825472 0.06505,0.087764 0.159007,0.1316461 0.281877,0.1316458 0.120803,3e-7 0.213213,-0.043882 0.277231,-0.1316458 0.06401,-0.088796 0.09602,-0.2163114 0.09602,-0.3825472 -2e-6,-0.166234 -0.03201,-0.2932333 -0.09602,-0.3809983 C 14.03293,4.0836014 13.94052,4.0392033 13.819717,4.0392019 m 0,-0.3964861 c 0.298396,1.8e-6 0.531228,0.080538 0.698497,0.2416087 0.168298,0.1610739 0.252448,0.3840971 0.25245,0.6690703 -2e-6,0.284975 -0.08415,0.5079982 -0.25245,0.6690703 -0.167269,0.1610725 -0.400101,0.2416087 -0.698497,0.2416088 -0.29943,-10e-8 -0.533811,-0.080536 -0.703143,-0.2416088 -0.168301,-0.1610721 -0.252451,-0.3840953 -0.25245,-0.6690703 -1e-6,-0.2849732 0.08415,-0.5079964 0.25245,-0.6690703 0.169332,-0.1610707 0.403713,-0.2416069 0.703143,-0.2416087 m 2.756817,0.096024 0,0.452242 c -0.07537,-0.051625 -0.151265,-0.089828 -0.227669,-0.1146093 -0.07538,-0.024779 -0.153847,-0.037169 -0.235414,-0.037171 -0.154878,1.4e-6 -0.275683,0.045432 -0.362413,0.1362921 -0.0857,0.08983 -0.128549,0.2157969 -0.128548,0.3779008 -1e-6,0.1621057 0.04285,0.2885888 0.128548,0.3794496 0.08673,0.089829 0.207535,0.1347437 0.362413,0.1347434 0.08673,3e-7 0.168815,-0.012906 0.246255,-0.038719 0.07847,-0.025813 0.150746,-0.064016 0.216828,-0.1146093 l 0,0.4537908 c -0.08673,0.032008 -0.175013,0.055756 -0.26484,0.071244 -0.0888,0.01652 -0.17811,0.02478 -0.267938,0.02478 -0.312853,-10e-8 -0.557559,-0.08002 -0.734119,-0.24006 -0.17656,-0.1610721 -0.26484,-0.3846116 -0.26484,-0.6706191 0,-0.2860057 0.08828,-0.5090289 0.26484,-0.6690703 0.17656,-0.1610707 0.421266,-0.2416069 0.734119,-0.2416087 0.09086,1.8e-6 0.180173,0.00826 0.267938,0.02478 0.0888,0.01549 0.177075,0.039237 0.26484,0.071244 m 1.307165,0.3004621 c -0.12287,1.4e-6 -0.216829,0.044399 -0.281876,0.1331946 -0.06402,0.087765 -0.09603,0.2147643 -0.09602,0.3809983 -1e-6,0.1662358 0.03201,0.2937514 0.09602,0.3825472 0.06505,0.087764 0.159006,0.1316461 0.281876,0.1316458 0.120804,3e-7 0.213214,-0.043882 0.277231,-0.1316458 0.06401,-0.088796 0.09602,-0.2163114 0.09602,-0.3825472 -2e-6,-0.166234 -0.03201,-0.2932333 -0.09602,-0.3809983 -0.06402,-0.088795 -0.156427,-0.1331932 -0.277231,-0.1331946 m 0,-0.3964861 c 0.298396,1.8e-6 0.531228,0.080538 0.698497,0.2416087 0.168299,0.1610739 0.252449,0.3840971 0.252451,0.6690703 -2e-6,0.284975 -0.08415,0.5079982 -0.252451,0.6690703 -0.167269,0.1610725 -0.400101,0.2416087 -0.698497,0.2416088 -0.29943,-10e-8 -0.533811,-0.080536 -0.703143,-0.2416088 -0.1683,-0.1610721 -0.25245,-0.3840953 -0.25245,-0.6690703 0,-0.2849732 0.08415,-0.5079964 0.25245,-0.6690703 0.169332,-0.1610707 0.403713,-0.2416069 0.703143,-0.2416087 m 2.132662,0.9958616 c -0.115643,8e-7 -0.20289,0.019619 -0.261743,0.058853 -0.05782,0.039236 -0.08673,0.097057 -0.08673,0.1734627 -1e-6,0.070212 0.02323,0.1254511 0.06969,0.1657188 0.0475,0.039236 0.113059,0.058854 0.196694,0.058853 0.104283,3e-7 0.192047,-0.03717 0.263292,-0.1115117 0.07124,-0.075373 0.106864,-0.169332 0.106865,-0.2818769 l 0,-0.0635 -0.288072,0 m 0.847179,-0.2090845 0,0.9896665 -0.559107,0 0,-0.2570964 c -0.07434,0.1053167 -0.157976,0.1822391 -0.250901,0.2307673 -0.09293,0.047496 -0.205988,0.071244 -0.339182,0.071244 -0.179658,-10e-8 -0.325759,-0.052142 -0.438303,-0.1564262 -0.111512,-0.1053164 -0.167268,-0.2416084 -0.167267,-0.4088763 -10e-7,-0.2034049 0.06969,-0.3526033 0.209084,-0.4475956 0.140422,-0.09499 0.360347,-0.1424861 0.659778,-0.1424872 l 0.326791,0 0,-0.043366 c -10e-7,-0.087763 -0.03459,-0.1517785 -0.103768,-0.192048 -0.06918,-0.041299 -0.177077,-0.06195 -0.323694,-0.061951 -0.11874,1.4e-6 -0.229219,0.011875 -0.331437,0.035622 -0.10222,0.023749 -0.197211,0.059371 -0.284975,0.1068654 l 0,-0.4228153 c 0.118739,-0.028909 0.237995,-0.050591 0.357767,-0.065049 0.119771,-0.015486 0.239543,-0.02323 0.359316,-0.023232 0.312851,1.8e-6 0.538455,0.061953 0.676814,0.1858529 0.139388,0.1228708 0.209082,0.3231787 0.209084,0.6009242"
         style="font-size:3.17188883px;font-style:normal;font-weight:bold;fill:#eeeeec;fill-opacity:1;stroke:none;font-family:Bitstream Vera Sans"
         transform="scale(0.910679,1.098081)" />
      <rect
         y="4"
         x="31"
         height="2"
         width="8"
         id="rect3394"
         style="opacity:0.3;color:#000000;fill:#fcaf3e;fill-opacity:1;fill-rule:nonzero;stroke:none;stroke-width:1;marker:none;visibility:visible;display:inline;overflow:visible" />
      <g
         id="g3522">
        <path
           style="font-size:2.1034534px;font-style:normal;font-weight:bold;fill:#ffffff;fill-opacity:1;stroke:none;font-family:Arial"
           d="m 16.500046,34.000104 -0.436339,0 0,-0.719423 c -0.159423,0.06522 -0.347312,0.11345 -0.56367,0.1447 l 0,-0.173233 c 0.113872,-0.0163 0.23758,-0.0471 0.371122,-0.09239 0.133541,-0.04574 0.225156,-0.09896 0.274846,-0.159645 l 0.354041,0 0,0.999991"
           id="text3443" />
        <path
           style="font-size:2.10345578px;font-style:normal;font-weight:bold;fill:#ffffff;fill-opacity:1;stroke:none;font-family:Arial"
           d="m 23.764759,33.822846 0,0.177308 -1.529518,0 c 0.01656,-0.06703 0.06625,-0.130433 0.149069,-0.190215 0.08282,-0.06024 0.246379,-0.139945 0.490688,-0.239129 0.196689,-0.08016 0.317289,-0.13451 0.361805,-0.163042 0.06004,-0.0394 0.09006,-0.07835 0.09006,-0.116847 -2e-6,-0.04257 -0.0264,-0.07518 -0.07919,-0.09783 -0.05176,-0.0231 -0.123709,-0.03465 -0.215841,-0.03465 -0.0911,10e-7 -0.163563,0.012 -0.217393,0.03601 -0.05383,0.024 -0.08489,0.06386 -0.09317,0.119565 l -0.434788,-0.01902 c 0.02588,-0.105071 0.107145,-0.180478 0.243793,-0.226221 0.136646,-0.04574 0.307456,-0.06861 0.512426,-0.06861 0.22464,0 0.401142,0.02649 0.529509,0.07948 0.128364,0.05299 0.192548,0.118885 0.192549,0.197688 -1e-6,0.04484 -0.01864,0.08764 -0.0559,0.128396 -0.03623,0.04031 -0.09421,0.08265 -0.173915,0.127037 -0.0528,0.02944 -0.148037,0.07178 -0.285717,0.127037 -0.137685,0.05525 -0.225159,0.09194 -0.262425,0.110053 -0.03623,0.01812 -0.06574,0.03578 -0.08851,0.05299 l 0.866469,0"
           id="text3447" />
        <path
           style="font-size:2.10345769px;font-style:normal;font-weight:bold;fill:#ffffff;fill-opacity:1;stroke:none;font-family:Arial"
           d="m 29.275646,33.73593 0.422364,-0.02242 c 0.01346,0.0471 0.04969,0.08311 0.108698,0.108016 0.059,0.02491 0.130435,0.03736 0.214288,0.03736 0.09006,0 0.165631,-0.01494 0.22671,-0.04484 0.06211,-0.02989 0.09317,-0.0702 0.09317,-0.120923 -2e-6,-0.04801 -0.0295,-0.08605 -0.08851,-0.11413 -0.05901,-0.02808 -0.130955,-0.04212 -0.215841,-0.04212 -0.0559,0 -0.122673,0.0048 -0.200314,0.01427 l 0.04814,-0.15557 c 0.118013,0.0014 0.208076,-0.0097 0.27019,-0.03329 0.06211,-0.024 0.09317,-0.0557 0.09317,-0.09511 0,-0.03351 -0.02277,-0.06023 -0.06832,-0.08016 -0.04555,-0.01993 -0.106111,-0.02989 -0.181679,-0.02989 -0.07454,1e-6 -0.138202,0.01132 -0.190996,0.03397 -0.0528,0.02265 -0.08489,0.05571 -0.09628,0.09918 l -0.402177,-0.02989 c 0.02795,-0.06023 0.06987,-0.108241 0.125777,-0.14402 0.05693,-0.03623 0.135612,-0.06454 0.236027,-0.08492 0.10145,-0.02083 0.214805,-0.03125 0.340066,-0.03125 0.214286,10e-7 0.386132,0.02989 0.515533,0.08967 0.106626,0.04891 0.159939,0.104167 0.159941,0.16576 -2e-6,0.08741 -0.109216,0.157155 -0.327644,0.209237 0.130435,0.01223 0.234473,0.03963 0.312115,0.0822 0.07867,0.04257 0.118012,0.09398 0.118014,0.154211 -2e-6,0.08741 -0.07298,0.16191 -0.218946,0.223504 -0.145967,0.06159 -0.327646,0.09239 -0.545038,0.09239 -0.206007,0 -0.376816,-0.02582 -0.512428,-0.07745 -0.135611,-0.05208 -0.214288,-0.120017 -0.236027,-0.203803"
           id="text3451" />
        <path
           style="font-size:2.10346055px;font-style:normal;font-weight:bold;fill:#ffffff;fill-opacity:1;stroke:none;font-family:Arial"
           d="m 30.769506,27.248206 -0.422366,0.02038 c -0.01035,-0.03804 -0.03727,-0.06612 -0.08075,-0.08424 -0.04348,-0.01812 -0.0999,-0.02717 -0.169257,-0.02717 -0.09213,1e-6 -0.170293,0.01812 -0.234475,0.05435 -0.06315,0.03623 -0.103004,0.11164 -0.119566,0.226222 0.108696,-0.05616 0.243791,-0.08424 0.405283,-0.08424 0.182195,10e-7 0.337995,0.03035 0.467398,0.09103 0.130434,0.06069 0.195653,0.13904 0.195654,0.235053 -10e-7,0.101902 -0.06833,0.183649 -0.204972,0.245243 -0.136649,0.06159 -0.312117,0.09239 -0.526403,0.09239 -0.229817,0 -0.418744,-0.03895 -0.566777,-0.116847 -0.148036,-0.07835 -0.222053,-0.20652 -0.222053,-0.384508 0,-0.182517 0.07712,-0.314083 0.231369,-0.394699 0.154246,-0.08061 0.354558,-0.120923 0.600939,-0.120923 0.17288,0 0.315738,0.02129 0.428576,0.06386 0.113873,0.04212 0.186337,0.103487 0.217396,0.184102 m -0.989144,0.416437 c 0,0.06205 0.03261,0.110055 0.09783,0.144021 0.06522,0.03352 0.139753,0.05027 0.223606,0.05027 0.08075,0 0.148033,-0.01381 0.201867,-0.04144 0.05383,-0.02763 0.08074,-0.07292 0.08075,-0.135869 -2e-6,-0.06476 -0.02899,-0.112091 -0.08696,-0.141982 -0.05797,-0.03034 -0.130437,-0.04552 -0.217393,-0.04552 -0.08385,10e-7 -0.154765,0.01449 -0.212736,0.04348 -0.05797,0.02853 -0.08696,0.07088 -0.08696,0.127037"
           id="text3455" />
        <path
           style="font-size:2.10346389px;font-style:normal;font-weight:bold;fill:#ffffff;fill-opacity:1;stroke:none;font-family:Arial"
           d="m 22.297487,27.744179 0.434789,-0.0197 c 0.01242,0.04303 0.04917,0.07722 0.11025,0.10258 0.06108,0.02491 0.131471,0.03737 0.211183,0.03737 0.0911,0 0.16822,-0.01608 0.231369,-0.04823 0.06315,-0.03261 0.09472,-0.08152 0.09472,-0.146739 -1e-6,-0.06114 -0.03158,-0.106882 -0.09472,-0.137227 -0.06211,-0.0308 -0.143376,-0.0462 -0.243792,-0.0462 -0.125262,1e-6 -0.237582,0.02423 -0.336961,0.07269 l -0.354042,-0.02242 0.223606,-0.51834 1.153742,0 0,0.178667 -0.822992,0 -0.06832,0.169158 c 0.09731,-0.02129 0.19669,-0.03193 0.298141,-0.03193 0.193583,1e-6 0.357664,0.0308 0.492243,0.09239 0.134576,0.0616 0.201865,0.141531 0.201867,0.239809 -2e-6,0.08197 -0.05435,0.155117 -0.163047,0.219428 -0.148036,0.08786 -0.353525,0.131793 -0.616467,0.131793 -0.210149,0 -0.381477,-0.02468 -0.513984,-0.07405 -0.132506,-0.04937 -0.211699,-0.115715 -0.23758,-0.199048"
           id="text3459" />
        <path
           style="font-size:2.10346723px;font-style:normal;font-weight:bold;fill:#ffffff;fill-opacity:1;stroke:none;font-family:Arial"
           d="m 16.146912,28.000345 0,-0.200406 -0.931691,0 0,-0.16712 0.987593,-0.632471 0.366464,0 0,0.631792 0.282614,0 0,0.167799 -0.282614,0 0,0.200406 -0.422366,0 m 0,-0.368205 0,-0.340352 -0.523299,0.340352 0.523299,0"
           id="text3467" />
        <path
           style="font-size:2.10347009px;font-style:normal;font-weight:bold;fill:#ffffff;fill-opacity:1;stroke:none;font-family:Arial"
           d="m 15.291336,21.19536 0,-0.17731 1.492262,0 0,0.138587 c -0.123193,0.05299 -0.248454,0.129076 -0.375783,0.22826 -0.127333,0.09919 -0.224643,0.20471 -0.291931,0.316576 -0.06626,0.111413 -0.09886,0.21105 -0.09783,0.298912 l -0.420814,0 c 0.0072,-0.13768 0.07195,-0.278078 0.194101,-0.421194 0.123191,-0.143116 0.287271,-0.271059 0.492245,-0.383831 l -0.992253,0"
           id="text3473" />
        <path
           style="font-size:2.10347342px;font-style:normal;font-weight:bold;fill:#ffffff;fill-opacity:1;stroke:none;font-family:Arial"
           d="m 22.665601,21.463056 c -0.112839,-0.02083 -0.195139,-0.04937 -0.246899,-0.0856 -0.05073,-0.03668 -0.07609,-0.07677 -0.07609,-0.120244 0,-0.07428 0.05901,-0.135642 0.177022,-0.184104 0.119049,-0.04846 0.287789,-0.07269 0.50622,-0.07269 0.216359,2e-6 0.384064,0.02423 0.503115,0.07269 0.120083,0.04846 0.180126,0.109829 0.180127,0.184104 -10e-7,0.0462 -0.02743,0.08741 -0.0823,0.123642 -0.05487,0.03578 -0.131991,0.06318 -0.23137,0.0822 0.126295,0.02219 0.222052,0.05457 0.287273,0.09715 0.06625,0.04257 0.09938,0.09171 0.09938,0.147418 -2e-6,0.09194 -0.06729,0.166667 -0.201867,0.224186 -0.133544,0.05752 -0.311601,0.08628 -0.534172,0.08628 -0.207043,0 -0.379407,-0.02378 -0.51709,-0.07133 -0.162529,-0.05616 -0.243792,-0.133152 -0.243792,-0.230978 0,-0.0539 0.03054,-0.10326 0.09162,-0.148098 0.06108,-0.04529 0.157353,-0.08016 0.288825,-0.10462 m 0.09006,-0.192255 c -2e-6,0.03804 0.02433,0.06771 0.07298,0.089 0.04969,0.02129 0.115426,0.03193 0.197209,0.03193 0.08282,1e-6 0.14907,-0.01064 0.198761,-0.03193 0.04969,-0.02174 0.07453,-0.05163 0.07454,-0.08967 -1e-6,-0.03578 -0.02485,-0.06431 -0.07454,-0.0856 -0.04866,-0.02174 -0.113357,-0.03261 -0.194103,-0.03261 -0.08385,1e-6 -0.150625,0.01087 -0.200314,0.03261 -0.04969,0.02174 -0.07454,0.0505 -0.07454,0.08628 m -0.04037,0.42663 c -2e-6,0.05254 0.03054,0.09352 0.09162,0.122963 0.06211,0.02944 0.139236,0.04416 0.231371,0.04416 0.09006,1e-6 0.164597,-0.01404 0.223606,-0.04212 0.05901,-0.02853 0.08851,-0.06952 0.08851,-0.122963 -2e-6,-0.04665 -0.03002,-0.08401 -0.09006,-0.112092 -0.06004,-0.02853 -0.136132,-0.0428 -0.228265,-0.0428 -0.106628,0 -0.18634,0.01608 -0.239135,0.04823 -0.05176,0.03216 -0.07764,0.06703 -0.07764,0.104619"
           id="text3477" />
        <path
           style="font-size:2.10347676px;font-style:normal;font-weight:bold;fill:#ffffff;fill-opacity:1;stroke:none;font-family:Arial"
           d="m 29.300734,21.770157 0.422369,-0.02038 c 0.01035,0.03759 0.03727,0.06544 0.08075,0.08356 0.04348,0.01812 0.100933,0.02717 0.172364,0.02717 0.09006,0 0.166669,-0.01812 0.229818,-0.05435 0.06315,-0.03623 0.10352,-0.111413 0.121121,-0.225543 -0.109735,0.05571 -0.246901,0.08356 -0.4115,0.08356 -0.179093,1e-6 -0.333857,-0.03012 -0.464294,-0.09035 -0.129403,-0.06069 -0.194103,-0.139493 -0.194103,-0.236414 0,-0.100996 0.06832,-0.182291 0.204972,-0.243886 0.137684,-0.06205 0.312635,-0.09307 0.524855,-0.09307 0.230852,10e-7 0.420297,0.03918 0.568335,0.117527 0.148034,0.0779 0.222052,0.206297 0.222054,0.385191 -2e-6,0.182067 -0.07713,0.313407 -0.231371,0.394023 -0.154249,0.08062 -0.355082,0.120924 -0.602496,0.120924 -0.178058,0 -0.321953,-0.02061 -0.431687,-0.06182 -0.109733,-0.04167 -0.180127,-0.103714 -0.211184,-0.186141 m 0.987597,-0.417121 c 0,-0.06159 -0.03261,-0.109374 -0.09783,-0.143343 -0.06419,-0.03397 -0.13872,-0.05095 -0.223607,-0.05095 -0.08075,0 -0.148037,0.01404 -0.201867,0.04212 -0.0528,0.02763 -0.07919,0.07314 -0.07919,0.136549 0,0.06431 0.02899,0.111641 0.08696,0.141984 0.05797,0.02989 0.130437,0.04484 0.217395,0.04484 0.08385,1e-6 0.154248,-0.01449 0.211185,-0.04348 0.05797,-0.02899 0.08696,-0.07156 0.08696,-0.127718"
           id="text3481" />
        <path
           style="font-size:2.10345864px;font-style:normal;font-weight:bold;fill:#ffffff;fill-opacity:1;stroke:none;font-family:Arial"
           d="m 23.028762,39.000222 c 0.220499,10e-7 0.392861,0.03442 0.517087,0.10326 0.148034,0.08152 0.22205,0.216711 0.222052,0.405568 -2e-6,0.188405 -0.07454,0.32382 -0.223605,0.406247 -0.123191,0.06793 -0.295035,0.101902 -0.515534,0.101902 -0.221535,0 -0.400108,-0.03714 -0.53572,-0.111412 -0.135613,-0.07473 -0.203419,-0.207653 -0.203419,-0.398775 0,-0.187498 0.07454,-0.322461 0.223606,-0.404888 0.123188,-0.06793 0.295034,-0.101901 0.515533,-0.101902 m 0,0.158287 c -0.0528,10e-7 -0.0999,0.0075 -0.141306,0.02242 -0.04141,0.01449 -0.0735,0.04076 -0.09627,0.0788 -0.03002,0.04937 -0.04503,0.132473 -0.04503,0.249319 -2e-6,0.116848 0.01346,0.197236 0.04037,0.241167 0.02691,0.04348 0.06056,0.07246 0.100932,0.08696 0.04141,0.01449 0.08851,0.02174 0.141306,0.02174 0.05279,0 0.0999,-0.0072 0.141307,-0.02174 0.04141,-0.01495 0.0735,-0.04144 0.09627,-0.07948 0.03002,-0.04891 0.04503,-0.131792 0.04503,-0.24864 -1e-6,-0.116846 -0.01346,-0.197008 -0.04037,-0.240488 -0.02692,-0.04393 -0.06108,-0.07314 -0.102486,-0.08764 -0.04037,-0.01494 -0.08696,-0.02242 -0.139753,-0.02242"
           id="text3485" />
      </g>
    </g>
    <g
       id="g4385"
       transform="translate(1,100)">
      <path
         id="path6495"
         d="m 96.220074,853.61416 c 0,14.40399 -11.677202,26.08114 -26.079509,26.08114 -14.403624,0 -26.080155,-11.67715 -26.080155,-26.08114 0,-14.40399 11.676531,-26.07999 26.080155,-26.07999 14.402307,0 26.079509,11.676 26.079509,26.07999 l 0,0 z"
         style="fill:url(#radialGradient4398);fill-opacity:1;fill-rule:nonzero;stroke:#204a87;stroke-width:1.15495276;stroke-miterlimit:4;stroke-dasharray:none" />
      <path
         d="m 71.307593,834.64522 -0.09673,0.65197 0.67358,0.43888 1.150957,-0.76054 -0.575397,-0.65312 -0.768974,0.43888 -0.383155,-0.10972"
         id="path6534"
         style="color:#000000;fill:url(#radialGradient4400);fill-opacity:1;fill-rule:nonzero;stroke:url(#radialGradient4402);stroke-width:1.32126439;stroke-linecap:butt;stroke-linejoin:miter;stroke-miterlimit:4;stroke-opacity:1;stroke-dasharray:none;stroke-dashoffset:0;marker:none;visibility:visible;display:inline;overflow:visible;enable-background:accumulate" />
      <path
         d="m 73.214402,839.32104 -0.384483,-0.97998 -0.67358,0.21367 0.19357,1.1948 0.864505,-0.42733"
         id="path6550"
         style="color:#000000;fill:url(#radialGradient4404);fill-opacity:1;fill-rule:nonzero;stroke:url(#radialGradient4406);stroke-width:1.32126439;stroke-linecap:butt;stroke-linejoin:miter;stroke-miterlimit:4;stroke-opacity:1;stroke-dasharray:none;stroke-dashoffset:0;marker:none;visibility:visible;display:inline;overflow:visible;enable-background:accumulate" />
      <path
         d="m 74.095706,839.10102 -0.192299,1.30568 1.056747,-0.21367 0.767784,-0.75938 -0.672258,-0.65313 c -0.225793,-0.59999 -0.485196,-1.16303 -0.767784,-1.73936 l -0.575455,0 0,0.65198 0.383156,0.43888 0,0.97824"
         id="path6558"
         style="color:#000000;fill:url(#radialGradient4408);fill-opacity:1;fill-rule:nonzero;stroke:url(#radialGradient4410);stroke-width:1.32126439;stroke-linecap:butt;stroke-linejoin:miter;stroke-miterlimit:4;stroke-opacity:1;stroke-dasharray:none;stroke-dashoffset:0;marker:none;visibility:visible;display:inline;overflow:visible;enable-background:accumulate" />
      <path
         d="m 59.013623,835.07948 0.960032,0.65197 0.768979,0 0,-0.75996 -0.960032,-0.43888 -0.768979,0.54282"
         id="path6574"
         style="color:#000000;fill:url(#radialGradient4412);fill-opacity:1;fill-rule:nonzero;stroke:url(#radialGradient4414);stroke-width:1.32126439;stroke-linecap:butt;stroke-linejoin:miter;stroke-miterlimit:4;stroke-opacity:1;stroke-dasharray:none;stroke-dashoffset:0;marker:none;visibility:visible;display:inline;overflow:visible;enable-background:accumulate" />
      <path
         d="m 61.592558,832.98728 0.480691,-0.43888 0.96069,-0.21367 c 0.657982,-0.31761 1.318621,-0.53705 2.016772,-0.76169 l -0.383155,-0.65197 -1.240015,0.17324 -0.58581,0.58037 -0.965846,0.14437 -0.85869,0.40423 -0.4174,0.20212 -0.254898,0.34071 1.247672,0.21366"
         id="path6610"
         style="color:#000000;fill:url(#radialGradient4416);fill-opacity:1;fill-rule:nonzero;stroke:url(#radialGradient4418);stroke-width:1.32126439;stroke-linecap:butt;stroke-linejoin:miter;stroke-miterlimit:4;stroke-opacity:1;stroke-dasharray:none;stroke-dashoffset:0;marker:none;visibility:visible;display:inline;overflow:visible;enable-background:accumulate" />
      <path
         d="m 62.105212,842.56704 0.576726,-0.86968 -0.865169,-0.65197 0.288391,1.52107"
         id="path6618"
         style="color:#000000;fill:url(#radialGradient4420);fill-opacity:1;fill-rule:nonzero;stroke:url(#radialGradient4422);stroke-width:1.32126439;stroke-linecap:butt;stroke-linejoin:miter;stroke-miterlimit:4;stroke-opacity:1;stroke-dasharray:none;stroke-dashoffset:0;marker:none;visibility:visible;display:inline;overflow:visible;enable-background:accumulate" />
      <path
         d="m 61.565844,859.00721 -0.68517,-1.35649 -1.28358,-0.28874 -0.684581,-1.83984 -1.711276,0.19634 -1.454409,-1.06486 -1.541158,1.35591 0,0.21367 c -0.466196,-0.1386 -1.039295,-0.15015 -1.454397,-0.40424 l -0.342617,-0.969 0,-1.06545 -1.026695,0.0982 c 0.0857,-0.67796 0.170702,-1.35534 0.256977,-2.0333 l -0.599576,0 -0.598399,0.77497 -0.599576,0.28874 -0.855987,-0.48508 -0.0857,-1.06602 0.17128,-1.16188 1.284168,-0.96901 1.026696,0 0.170702,-0.58036 1.28358,0.28874 0.941581,1.16361 0.171279,-1.93801 1.626168,-1.35649 0.598987,-1.45293 1.197992,-0.48508 0.684581,-0.96785 1.539991,-0.29451 0.770873,-1.16073 c -0.77029,0 -1.54058,0 -2.310864,0 l 1.454871,-0.67854 1.026112,0 1.455454,-0.48508 0.17128,-0.58036 -0.513897,-0.48508 -0.598987,-0.19634 0.171279,-0.58094 -0.427736,-0.87084 -1.027285,0.38691 0.17128,-0.77439 -1.197992,-0.67796 -0.940986,1.64581 0.08512,0.58094 -0.940987,0.39268 -0.599576,1.2589 -0.256399,-1.16246 -1.626162,-0.67796 -0.256977,-0.87141 2.139567,-1.26005 0.941581,-0.87141 0.0857,-1.06487 -0.513261,-0.29451 -0.684586,-0.0982 -0.427737,1.06545 c 0,0 -0.715666,0.13859 -0.899674,0.18479 -2.349947,2.16496 -7.09811,6.83963 -8.201216,15.66463 0.04371,0.20211 0.799601,1.39114 0.799601,1.39114 l 1.796988,1.06428 1.796985,0.48508 0.770879,0.96901 1.197397,0.87141 0.684587,-0.0982 0.513261,0.23099 0,0.15592 -0.684119,1.83984 -0.513896,0.77555 0.171279,0.39268 -0.427736,1.45063 1.540579,2.81 1.539986,1.35649 0.68517,0.96785 -0.08616,2.03502 0.513896,1.16131 -0.513896,2.22848 c 0,0 -0.04042,0 0.02541,0.20789 0.06612,0.21944 2.741985,1.70818 2.912098,1.58171 0.169489,-0.13282 0.314436,-0.24254 0.314436,-0.24254 l -0.170702,-0.48508 0.684113,-0.67796 0.256977,-0.67911 1.112878,-0.38691 0.855404,-2.13089 -0.2564,-0.58094 0.59781,-0.87141 1.284174,-0.29451 0.68517,-1.54937 -0.171279,-1.9357 1.026695,-1.45351 0.171279,-1.45351 c -1.404953,-0.69644 -2.798369,-1.41424 -4.192842,-2.13146"
         id="path6566"
         style="fill:url(#radialGradient4424);fill-opacity:1;fill-rule:nonzero;stroke:url(#radialGradient4426);stroke-width:1.32126439;stroke-miterlimit:4" />
      <path
         d="m 72.737927,831.65851 -2.497978,-0.97825 -2.879962,0.32916 -3.55473,0.97825 -0.672264,0.65255 2.209026,1.52107 0,0.87026 -0.864505,0.8691 1.153463,2.28507 0.766467,-0.43888 0.962543,-1.52165 c 1.48378,-0.45621 2.814164,-0.97824 4.224477,-1.63022 l 1.153463,-2.93531"
         id="path6542"
         style="color:#000000;fill:url(#radialGradient4428);fill-opacity:1;fill-rule:nonzero;stroke:url(#radialGradient4430);stroke-width:1.32126439;stroke-linecap:butt;stroke-linejoin:miter;stroke-miterlimit:4;stroke-opacity:1;stroke-dasharray:none;stroke-dashoffset:0;marker:none;visibility:visible;display:inline;overflow:visible;enable-background:accumulate" />
      <path
         d="m 58.173534,834.67178 -0.480692,1.19538 0.96069,0 0.480691,-1.08682 c 0.414224,-0.29451 0.82645,-0.58729 1.248331,-0.86967 l 0.96069,0.32916 c 0.640011,0.43888 1.280045,0.86968 1.920594,1.30336 l 0.961215,-0.86852 -1.057405,-0.43889 -0.480692,-0.97824 -1.824531,-0.21367 -0.09621,-0.54282 -0.8645,0.21944 -0.383675,0.76053 -0.480691,-0.97882 -0.191549,0.43888 0.09621,1.08681 -0.768442,0.65313"
         id="path6582"
         style="color:#000000;fill:url(#radialGradient4432);fill-opacity:1;fill-rule:nonzero;stroke:url(#radialGradient4434);stroke-width:1.32126439;stroke-linecap:butt;stroke-linejoin:miter;stroke-miterlimit:4;stroke-opacity:1;stroke-dasharray:none;stroke-dashoffset:0;marker:none;visibility:visible;display:inline;overflow:visible;enable-background:accumulate" />
      <path
         d="m 92.787814,850.07943 c 0,0.31761 0,0 0,0 l -0.661014,0.74841 c -0.405158,-0.47354 -0.860088,-0.87892 -1.32204,-1.29817 l -1.014025,0.15014 -0.92644,-1.04754 0,1.29586 0.79373,0.6 0.528275,0.59999 0.706029,-0.79807 c 0.177747,0.33494 0.352953,0.66583 0.529545,0.99846 l 0,0.99788 -0.794942,0.89739 -1.454744,0.99846 -1.101738,1.10009 -0.706029,-0.80096 0.353069,-0.89855 -0.704931,-0.79807 -1.190537,-2.54436 -1.014025,-1.14687 -0.265466,0.30029 0.398055,1.44773 0.748721,0.84831 c 0.427563,1.23465 0.850623,2.41443 1.412166,3.59422 0.870765,0 1.691665,-0.0924 2.556482,-0.20212 l 0,0.69875 -1.057942,2.59517 -0.970235,1.09721 -0.79373,1.69894 c 0,0.93089 0,1.86236 0,2.79325 l 0.265466,1.09894 -0.44073,0.49663 -0.971448,0.59999 -1.014026,0.84832 0.838733,0.94764 -1.146741,1.00018 0.220307,0.64562 -1.720175,1.94725 -1.145523,0 -0.970241,0.6 -0.618425,0 0,-0.79807 -0.262983,-1.59903 c -0.341231,-1.0025 -0.696558,-1.99807 -1.057942,-2.99306 0,-0.73455 0.04389,-1.4616 0.08772,-2.19615 l 0.441943,-0.99787 -0.618419,-1.19885 0.04504,-1.64638 -0.838744,-0.94822 0.419363,-1.3715 -0.682369,-0.77382 -1.19175,0 -0.396784,-0.45043 -1.190531,0.74956 -0.484502,-0.5486 -1.102951,0.94821 c -0.748722,-0.84889 -1.498655,-1.69662 -2.248474,-2.54551 l -0.881431,-2.09682 0.79373,-1.19595 -0.440672,-0.50241 0.969028,-2.2972 c 0.796155,-0.99037 1.627733,-1.94032 2.468891,-2.89373 l 1.499752,-0.39846 1.675172,-0.19634 1.146741,0.30029 1.631255,1.6458 0.573434,-0.64619 0.792518,-0.0982 1.499752,0.49663 1.146747,0 0.793724,-0.69817 0.353069,-0.50241 -0.794949,-0.5024 -1.32324,-0.0982 c -0.367218,-0.50818 -0.708448,-1.04466 -1.144437,-1.4974 l -0.441943,0.19634 -0.176477,1.29817 -0.793724,-0.89798 -0.175322,-0.99961 -0.881436,-0.69643 -0.354224,0 0.882528,0.99672 -0.353069,0.89855 -0.704937,0.19635 0.440672,-0.8974 -0.794942,-0.39846 -0.703725,-0.79807 -1.324453,0.30028 -0.175322,0.39846 -0.79373,0.50241 -0.440672,1.09778 -1.101732,0.5486 -0.485716,-0.5486 -0.528275,0 0,-1.79711 1.146741,-0.59999 0.881437,0 -0.177748,-0.6976 -0.703718,-0.69932 1.189445,-0.24831 0.661009,-0.74726 0.528275,-0.89971 0.971442,0 -0.265466,-0.69701 0.618426,-0.39846 0,0.79923 1.322034,0.30028 1.322034,-1.0972 0.08876,-0.5024 1.145522,-0.79808 c -0.414628,0.0635 -0.829267,0.0924 -1.234448,0.20212 l 0,-0.89971 0.440672,-0.99788 -0.440672,0 -0.968532,0.89798 -0.265466,0.5024 0.265466,0.6999 -0.441942,1.19596 -0.704932,-0.39846 -0.616011,-0.69759 -0.971454,0.69759 -0.352953,-1.59557 1.675166,-1.09778 0,-0.6 1.059034,-0.69875 1.675167,-0.39845 1.146741,0.39845 2.115763,0.39846 -0.528275,0.6 -1.146735,0 1.146735,1.19826 0.881443,-0.99787 0.267718,-0.43889 c 0,0 3.381026,3.0306 5.313244,6.34531 1.932225,3.31587 2.839625,7.22423 2.839625,8.01769 z"
         id="path6628"
         style="fill:url(#radialGradient4436);fill-opacity:1;fill-rule:nonzero;stroke:url(#radialGradient4438);stroke-width:1.32126439;stroke-miterlimit:4" />
    </g>
    <g
       id="g13114"
       transform="matrix(5.5779934,-1.4946189,1.4946189,5.5779934,-1682.7435,-4576.0384)">
      <path
         style="opacity:0.2;fill:#333333"
         id="path11614"
         d="m 51.559104,1003.0507 -3.220642,3.2206 c -0.170847,0.1709 -0.260269,0.3816 -0.260269,0.6067 0,0.042 0.0069,0.085 0.01324,0.1286 -0.04368,0.044 -0.231636,0.2316 -0.266029,0.266 -0.05675,0.01 -0.690439,0.063 -0.690439,0.063 -0.0046,5e-4 -0.009,0 -0.0135,0 -0.092,0.023 -0.156316,0.079 -0.176522,0.1528 -0.0044,0.016 -0.0065,0.032 -0.0065,0.049 0,0.059 0.02786,0.1201 0.08048,0.1726 l 1.364885,1.3647 c 0.06707,0.067 0.147889,0.094 0.221404,0.074 0.07369,-0.02 0.12949,-0.085 0.153049,-0.1766 0.0011,0 0.0019,-0.01 0.0023,-0.014 0,0 0.05787,-0.6335 0.06303,-0.6903 0.03439,-0.034 0.222351,-0.2224 0.26603,-0.266 0.272736,0.04 0.532661,-0.044 0.735235,-0.2472 l 3.220643,-3.2207 c 0.17334,-0.1732 0.264826,-0.3862 0.264826,-0.6159 0,-0.2719 -0.126739,-0.5483 -0.356741,-0.7784 -0.437565,-0.4373 -1.011067,-0.4752 -1.394463,-0.092 z" />
      <path
         style="opacity:0.2;fill:#333333"
         id="path11616"
         d="m 52.892777,1003.2035 c -0.375313,-0.3753 -0.897484,-0.4673 -1.272883,-0.092 l -3.220643,3.2206 c -0.208163,0.2081 -0.268867,0.4601 -0.218481,0.7067 l -0.316587,0.3166 -0.721392,0.066 c -0.128544,0.033 -0.156918,0.1365 -0.06311,0.2303 l 1.364884,1.3647 c 0.09381,0.094 0.197416,0.066 0.230433,-0.063 l 0.06595,-0.7213 0,0 0.316588,-0.3166 c 0.246597,0.05 0.498525,-0.01 0.706689,-0.2186 l 3.220642,-3.2206 c 0.375141,-0.3754 0.28314,-0.8976 -0.09209,-1.2728 z" />
      <path
         style="opacity:0.2;fill:#333333"
         id="path11618"
         d="m 52.892777,1003.1175 c -0.375313,-0.3753 -0.897484,-0.4673 -1.272883,-0.092 l -3.220643,3.2206 c -0.208163,0.2081 -0.268867,0.4601 -0.218481,0.7068 l -0.316587,0.3165 -0.721392,0.066 c -0.128544,0.033 -0.156918,0.1365 -0.06311,0.2303 l 1.364884,1.3647 c 0.09381,0.094 0.197416,0.065 0.230433,-0.063 l 0.06595,-0.7213 0,0 0.316588,-0.3166 c 0.246597,0.05 0.498525,-0.01 0.706689,-0.2185 l 3.220642,-3.2207 c 0.375141,-0.3754 0.28314,-0.8975 -0.09209,-1.2728 z" />
      <path
         style="opacity:0.8;fill:#993903"
         id="path11620"
         d="m 51.464524,1002.9733 -3.220643,3.2206 c -0.170933,0.1709 -0.260354,0.3817 -0.260354,0.6067 0,0.042 0.0069,0.085 0.01324,0.1286 -0.04359,0.044 -0.231637,0.2316 -0.26603,0.266 -0.05675,0.01 -0.690438,0.063 -0.690438,0.063 -0.0046,4e-4 -0.009,0 -0.0135,0 -0.092,0.023 -0.156316,0.079 -0.176521,0.1528 -0.0044,0.016 -0.0065,0.033 -0.0065,0.049 0,0.059 0.02786,0.1201 0.08048,0.1726 l 1.364885,1.3648 c 0.06715,0.067 0.14789,0.094 0.221491,0.074 0.0736,-0.02 0.129489,-0.085 0.152962,-0.1766 0.0012,0 0.002,-0.01 0.0023,-0.014 0,0 0.05795,-0.6335 0.06302,-0.6903 0.03439,-0.034 0.222436,-0.2223 0.266115,-0.2659 0.272651,0.04 0.532575,-0.044 0.735236,-0.2472 l 3.220642,-3.2207 c 0.173255,-0.1732 0.264826,-0.3862 0.264826,-0.6159 0,-0.2719 -0.126824,-0.5483 -0.356827,-0.7784 -0.437564,-0.4374 -1.010981,-0.4753 -1.394376,-0.092 z" />
      <path
         style="opacity:0.2;fill:#333333"
         id="path11622"
         d="m 47.362906,1008.0209 0,0 c 0,0 -3.44669,3.4466 -3.481169,3.4811 -0.0423,0.01 -0.39251,0.07 -0.39251,0.07 -0.04222,0.01 -0.07893,0.035 -0.103351,0.071 l -0.672812,1.0329 c 0,2e-4 -0.02975,0.096 -0.02975,0.096 0,0.046 0.01788,0.089 0.05039,0.1216 l 0.39956,0.3996 c 0.0595,0.059 0.152705,0.067 0.221405,0.018 0,0 1.032906,-0.7073 1.032906,-0.7073 0.03585,-0.026 0.06019,-0.063 0.06879,-0.1062 0,0 0.04497,-0.3278 0.05383,-0.3722 0.03628,-0.036 3.479019,-3.479 3.479019,-3.479 0.0325,-0.033 0.05039,-0.076 0.05039,-0.1216 0,-0.046 -0.01788,-0.089 -0.05039,-0.1215 l -0.383223,-0.3833 c -0.0325,-0.033 -0.07567,-0.05 -0.121579,-0.05 -0.04592,0 -0.08899,0.018 -0.121493,0.05 z" />
      <path
         style="opacity:0.5;fill:#333333"
         id="path11624"
         d="m 47.423695,1007.9957 c 0,0 -3.464144,3.4641 -3.498537,3.4985 -0.04265,0.01 -0.416499,0.076 -0.416499,0.076 -0.02107,0 -0.03947,0.018 -0.05168,0.035 l -0.672813,1.0328 c -0.01,0.015 -0.01488,0.031 -0.01488,0.048 0,0.022 0.0086,0.044 0.02519,0.061 l 0.39956,0.3996 c 0.02966,0.03 0.07653,0.034 0.110746,0.01 l 1.032906,-0.7073 c 0.0178,-0.013 0.03009,-0.032 0.03439,-0.053 0,0 0.04996,-0.3528 0.05898,-0.3976 0.03637,-0.036 3.497506,-3.4974 3.497506,-3.4974 0.01616,-0.016 0.02519,-0.038 0.02519,-0.061 l 0,0 c 0,-0.023 -0.009,-0.045 -0.02519,-0.061 l -0.383224,-0.3833 c -0.03371,-0.034 -0.08813,-0.034 -0.121665,10e-5 z" />
      <path
         style="opacity:0.2;fill:#333333"
         id="path11626"
         d="m 47.423695,1008.0817 c 0,0 -3.464144,3.4641 -3.498537,3.4985 -0.04265,0.01 -0.416499,0.076 -0.416499,0.076 -0.02107,0 -0.03947,0.018 -0.05168,0.035 l -0.672813,1.0328 c -0.01,0.015 -0.01488,0.031 -0.01488,0.048 0,0.022 0.0086,0.044 0.02519,0.061 l 0.39956,0.3996 c 0.02966,0.03 0.07653,0.034 0.110746,0.01 l 1.032906,-0.7073 c 0.0178,-0.013 0.03009,-0.032 0.03439,-0.053 0,0 0.04996,-0.3528 0.05898,-0.3976 0.03637,-0.036 3.497506,-3.4975 3.497506,-3.4975 0.01616,-0.016 0.02519,-0.038 0.02519,-0.061 l 0,0 c 0,-0.023 -0.009,-0.045 -0.02519,-0.061 l -0.383224,-0.3833 c -0.03371,-0.034 -0.08813,-0.034 -0.121665,10e-5 z" />
      <polygon
         transform="matrix(0.08598239,0,0,0.08598239,42.444283,1002.4681)"
         style="fill:url(#XMLID_34_)"
         id="polygon11637"
         points="72.862,45.013 56.494,61.381 66.688,71.577 83.059,55.208 " />
      <path
         style="fill:#f36600"
         id="path11639"
         d="m 48.358496,1008.9305 c 0.09381,0.094 0.197415,0.065 0.230433,-0.063 l 0.06595,-0.7213 -0.876676,-0.8766 -0.721393,0.066 c -0.128543,0.033 -0.156918,0.1365 -0.06311,0.2303 l 1.364799,1.3647 z" />
      <path
         style="fill:#f36600"
         id="path11641"
         d="m 49.678067,1007.611 3.220643,-3.2207 c 0.375313,-0.3753 0.283312,-0.8975 -0.09192,-1.2727 -0.375313,-0.3753 -0.897485,-0.4673 -1.272884,-0.092 l -3.220642,3.2205 c -0.375227,0.3753 -0.272908,0.8928 0.09957,1.2652 0.372389,0.3725 0.889917,0.475 1.26523,0.1 z" />
      <polygon
         transform="matrix(0.08598239,0,0,0.08598239,42.444283,1002.4681)"
         style="fill:url(#XMLID_35_)"
         id="polygon11650"
         points="58.191,65.423 17.622,105.992 22.077,110.449 62.648,69.88 " />
      <polygon
         transform="matrix(0.08598239,0,0,0.08598239,42.444283,1002.4681)"
         style="fill:url(#XMLID_36_)"
         id="polygon11657"
         points="22.185,110.342 21.44,115.264 9.427,123.489 4.78,118.842 12.605,106.83 17.728,105.886 " />
      <polygon
         transform="matrix(0.08598239,0,0,0.08598239,42.444283,1002.4681)"
         style="fill:url(#XMLID_37_)"
         id="polygon11664"
         points="21.886,110.043 20.841,114.664 9.098,123.16 5.19,119.252 13.317,107.542 18.139,106.297 " />
      <path
         style="fill:url(#linearGradient12575)"
         id="path11675"
         d="m 52.748499,1003.2585 c 0.136712,0.1367 0.111777,0.3853 -0.05555,0.5526 l -3.606359,3.6063 c -0.16715,0.1673 -0.415811,0.1922 -0.552437,0.055 -0.136712,-0.1367 -0.111777,-0.3853 0.05554,-0.5525 l 3.60636,-3.6064 c 0.16715,-0.1672 0.415811,-0.1922 0.552437,-0.055 z" />
      <path
         style="fill:url(#linearGradient12572)"
         id="path11686"
         d="m 48.227459,1007.7796 c 0.11642,0.1164 0.101287,0.3222 -0.03379,0.4571 -0.134906,0.135 -0.340576,0.1501 -0.456996,0.034 -0.11642,-0.1165 -0.101287,-0.3221 0.0337,-0.4571 0.134993,-0.135 0.340576,-0.1501 0.457083,-0.034 z" />
      <path
         style="fill:url(#linearGradient12569)"
         id="path11701"
         d="m 49.08926,1007.746 c -0.1147,-0.061 -0.0718,-0.2472 0.09535,-0.4145 l 3.453052,-3.4529 c 0.167236,-0.1673 0.357859,-0.2143 0.423722,-0.1046 0.06578,0.1096 -0.01711,0.3362 -0.184433,0.5033 l -3.275069,3.2752 c -0.16715,0.1672 -0.397926,0.2542 -0.512627,0.1935 z" />
      <path
         style="fill:url(#linearGradient12566)"
         id="path11716"
         d="m 48.171828,1008.6635 c -0.08624,-0.089 -0.05589,-0.2522 0.06741,-0.362 0.123385,-0.1099 0.243588,-0.1749 0.267233,-0.1446 0.02356,0.03 0.04291,0.1436 0.04291,0.2516 0,0.108 -0.0497,0.2461 -0.110402,0.3068 -0.0607,0.061 -0.180993,0.037 -0.267147,-0.052 z" />
      <path
         style="fill:url(#linearGradient12563)"
         id="path11725"
         d="m 52.199501,1002.9303 c 0.131553,0.078 0.102491,0.2779 -0.06474,0.4452 l -3.453052,3.4529 c -0.16715,0.1673 -0.371616,0.2005 -0.454245,0.074 -0.08272,-0.1266 -0.01359,-0.3669 0.15365,-0.5341 l 3.275155,-3.2751 c 0.16715,-0.1672 0.411684,-0.2404 0.543237,-0.1629 z" />
      <path
         style="fill:url(#linearGradient12560)"
         id="path11734"
         d="m 47.304782,1007.7962 c 0.09862,0.095 0.261386,0.091 0.361641,-0.01 l 0.07489,-0.075 c 0.100342,-0.1003 0.139979,-0.2248 0.0883,-0.2764 -0.05176,-0.052 -0.178757,-0.083 -0.282194,-0.07 -0.103437,0.014 -0.240665,0.077 -0.30498,0.1409 -0.06432,0.064 -0.03628,0.1943 0.06234,0.2896 z" />
      <path
         style="fill:url(#linearGradient12557)"
         id="path11741"
         d="m 47.447684,1008.0933 0.383224,0.3832 -0.299391,0.2994 c 0,0 0.360868,-0.2254 -0.08383,-0.6826 z" />
    </g>
    <path
       style="fill:#3a2b1d;fill-opacity:1;stroke:#000000;stroke-opacity:0.61502349"
       d="m 22.5,967.8622 -2,2 3.5,0 0.5,0 3.5,0 3.5,0 3.5,0 3.5,0 3.5,0 3.5,0 3.5,0 3.5,0 3.5,0 3.5,0 3.5,0 3.5,0 3.5,0 3.5,0 3.5,0 3.5,0 3.5,0 3.5,0 3.5,0 3.5,0 3.5,0 3.5,0 3.5,0 -2,-2 -1.75,1.75 -1.75,-1.75 -1.75,1.75 -1.75,-1.75 -1.75,1.75 -1.75,-1.75 -1.75,1.75 -1.75,-1.75 -1.75,1.75 -1.75,-1.75 -1.75,1.75 -1.75,-1.75 -1.75,1.75 -1.75,-1.75 -1.75,1.75 -1.75,-1.75 -1.75,1.75 -1.75,-1.75 -1.75,1.75 -1.75,-1.75 -1.75,1.75 -1.75,-1.75 -1.75,1.75 -1.75,-1.75 -1.75,1.75 -1.75,-1.75 -1.75,1.75 -1.75,-1.75 -1.75,1.75 -1.75,-1.75 -1.75,1.75 -1.75,-1.75 -1.75,1.75 -1.75,-1.75 -1.75,1.75 -1.75,-1.75 -1.75,1.75 -1.75,-1.75 -1.75,1.75 -1.75,-1.75 -1.75,1.75 -1.75,-1.75 -1.75,1.75 -1.75,-1.75 -1.75,1.75 -1.75,-1.75 z"
       id="path6578-0" />
    <path
       style="color:#000000;fill:url(#linearGradient8438);fill-opacity:1;fill-rule:nonzero;stroke:none;stroke-width:1.14192687999999998;marker:none;visibility:visible;display:inline;overflow:visible"
       d="m 71.125,927.5497 c -7.667919,0 -14.540585,3.2944 -19.3125,8.5625 l -2.5,-4.34375 c -0.909402,-1.57513 -2.924869,-2.09691 -4.5,-1.1875 L 13.90625,948.4247 c -1.57513,0.9094 -2.096902,2.89362 -1.1875,4.46875 l 3.6875,6.375 c 0.01633,0.0304 0.01386,0.0636 0.03125,0.0937 l 3.5,6.03125 14.03125,24.3438 c 0.909402,1.5751 2.92487,2.0969 4.5,1.1875 L 61.3125,977.7685 c 3.036991,1.2385 6.330258,1.9375 9.8125,1.9375 5.553022,0 10.707825,-1.76 14.9375,-4.7188 l 1.90625,1.0938 c -0.204114,0.3535 -13.985277,24.1953 -14.125,24.4375 -0.161112,0.087 -0.982572,0.4652 -1.53125,0.7187 -0.131451,0.062 -0.4375,0.2188 -0.4375,0.2188 -0.01275,0.01 -0.125,0.062 -0.125,0.062 -0.220557,0.1188 -0.386336,0.2939 -0.46875,0.5312 l -2.21875,6.7813 c 2.99e-4,9e-4 0,0.5625 0,0.5625 0.06875,0.2565 0.207435,0.4917 0.4375,0.625 l 2.84375,1.625 c 0.420074,0.2401 0.940028,0.1259 1.25,-0.25 l 4.71875,-5.4688 c 0.161111,-0.1986 0.235347,-0.4649 0.21875,-0.7187 0,0 -0.23306,-1.8954 -0.25,-2.1563 0.14761,-0.2534 13.915641,-24.129 14.09375,-24.4375 l 2.3125,1.3438 c 0.151905,0.087 0.286446,0.1813 0.4375,0.2187 l 0.1875,0.094 c 0.474255,0.2735 0.963576,0.2839 1.34375,0.062 0.38115,-0.2217 0.599245,-0.6726 0.59375,-1.2187 0.0061,0 0.0038,-0.04 0,-0.062 0,0 -0.631389,-3.613 -0.6875,-3.9375 0.14101,-0.2411 0.915275,-1.59781 1.09375,-1.9063 1.581105,-0.18451 2.8925,-1.03253 3.71875,-2.46875 l 13.15625,-22.78125 c 0.70802,-1.22519 0.90581,-2.53124 0.5625,-3.8125 -0.40639,-1.51666 -1.52939,-2.87277 -3.15625,-3.8125 -0.37815,-0.21817 -0.74541,-0.41627 -1.125,-0.5625 -0.008,-0.004 -0.0229,0.004 -0.0312,0 -0.0215,-0.008 -0.041,-0.0233 -0.0625,-0.0312 -2.91312,-1.39061 -5.87592,-0.66663 -7.34375,1.875 l -6.1875,10.75 C 96.535648,938.53829 85.108618,927.5497 71.125,927.5497 z"
       id="rect2157-6" />
    <path
       style="fill:url(#linearGradient6771);fill-opacity:1;stroke:none"
       d="M 22 43.5 L 20.34375 45.15625 L 19.15625 45.15625 L 22.0625 94.25 L 19.15625 120.21875 L 105.78125 120.21875 L 102.90625 94.25 L 105.78125 45.15625 L 104.15625 45.15625 L 102.5 43.5 L 100.84375 45.15625 L 100.65625 45.15625 L 99 43.5 L 97.34375 45.15625 L 97.15625 45.15625 L 95.5 43.5 L 93.84375 45.15625 L 93.65625 45.15625 L 92 43.5 L 90.34375 45.15625 L 90.15625 45.15625 L 88.5 43.5 L 86.84375 45.15625 L 86.65625 45.15625 L 85 43.5 L 83.34375 45.15625 L 83.15625 45.15625 L 81.5 43.5 L 79.84375 45.15625 L 79.65625 45.15625 L 78 43.5 L 76.34375 45.15625 L 76.15625 45.15625 L 74.5 43.5 L 72.84375 45.15625 L 72.65625 45.15625 L 71 43.5 L 69.34375 45.15625 L 69.15625 45.15625 L 67.5 43.5 L 65.84375 45.15625 L 65.65625 45.15625 L 64 43.5 L 62.34375 45.15625 L 62.15625 45.15625 L 60.5 43.5 L 58.84375 45.15625 L 58.65625 45.15625 L 57 43.5 L 55.34375 45.15625 L 55.15625 45.15625 L 53.5 43.5 L 51.84375 45.15625 L 51.65625 45.15625 L 50 43.5 L 48.34375 45.15625 L 48.15625 45.15625 L 46.5 43.5 L 44.84375 45.15625 L 44.65625 45.15625 L 43 43.5 L 41.34375 45.15625 L 41.15625 45.15625 L 39.5 43.5 L 37.84375 45.15625 L 37.65625 45.15625 L 36 43.5 L 34.34375 45.15625 L 34.15625 45.15625 L 32.5 43.5 L 30.84375 45.15625 L 30.65625 45.15625 L 29 43.5 L 27.34375 45.15625 L 27.15625 45.15625 L 25.5 43.5 L 23.84375 45.15625 L 23.65625 45.15625 L 22 43.5 z "
       transform="translate(0,924.3622)"
       id="path2818" />
    <path
       style="color:#000000;fill:url(#linearGradient5114);fill-opacity:1;fill-rule:nonzero;stroke:none;stroke-width:0.5;marker:none;visibility:visible;display:inline;overflow:visible;enable-background:accumulate"
       d="m 22.052167,1018.6011 34.648583,0 0,11.5495 -36.401291,1.1348 1.752708,-12.6843 z"
       id="rect3663"
       sodipodi:nodetypes="ccccc" />
    <path
       style="color:#000000;fill:url(#linearGradient5111);fill-opacity:1;fill-rule:nonzero;stroke:none;stroke-width:0.5;marker:none;visibility:visible;display:inline;overflow:visible;enable-background:accumulate"
       d="m 102.89886,1018.6011 -34.648583,0 0,11.5495 35.783253,0 -1.13467,-11.5495 z"
       id="rect3663-7"
       sodipodi:nodetypes="ccccc" />
    <path
       style="color:#000000;fill:url(#linearGradient6746-6);fill-opacity:1;fill-rule:nonzero;stroke:none;marker:none;visibility:visible;display:inline;overflow:visible;enable-background:accumulate"
       d="m 22,987.8622 -1.65625,1.65625 -1.1875,0 2.90625,49.09375 -2.90625,25.9688 86.625,0 -2.875,-25.9688 2.875,-49.09375 -1.625,0 -1.65625,-1.65625 -1.65625,1.65625 -0.1875,0 L 99,987.8622 l -1.65625,1.65625 -0.1875,0 -1.65625,-1.65625 -1.65625,1.65625 -0.1875,0 L 92,987.8622 l -1.65625,1.65625 -0.1875,0 -1.65625,-1.65625 -1.65625,1.65625 -0.1875,0 L 85,987.8622 l -1.65625,1.65625 -0.1875,0 -1.65625,-1.65625 -1.65625,1.65625 -0.1875,0 L 78,987.8622 l -1.65625,1.65625 -0.1875,0 -1.65625,-1.65625 -1.65625,1.65625 -0.1875,0 L 71,987.8622 l -1.65625,1.65625 -0.1875,0 -1.65625,-1.65625 -1.65625,1.65625 -0.1875,0 L 64,987.8622 l -1.65625,1.65625 -0.1875,0 -1.65625,-1.65625 -1.65625,1.65625 -0.1875,0 L 57,987.8622 l -1.65625,1.65625 -0.1875,0 -1.65625,-1.65625 -1.65625,1.65625 -0.1875,0 L 50,987.8622 l -1.65625,1.65625 -0.1875,0 -1.65625,-1.65625 -1.65625,1.65625 -0.1875,0 L 43,987.8622 l -1.65625,1.65625 -0.1875,0 -1.65625,-1.65625 -1.65625,1.65625 -0.1875,0 L 36,987.8622 l -1.65625,1.65625 -0.1875,0 -1.65625,-1.65625 -1.65625,1.65625 -0.1875,0 L 29,987.8622 l -1.65625,1.65625 -0.1875,0 -1.65625,-1.65625 -1.65625,1.65625 -0.1875,0 L 22,987.8622 z"
       id="path2818-6" />
    <path
       style="fill:#000000;fill-opacity:0.3675214"
       clip-path="none"
       d="m 40,1018.4872 c 1.333917,2.0679 3.190085,3.9583 5.46875,5.6261 1.149235,0.8407 2.320732,1.5965 3.625,2.2643 l 5.59375,-7.0671 c -0.455357,-0.2623 -0.898515,-0.528 -1.3125,-0.8233 l -13.375,0 z m 35.8125,0 c -2.90404,2.084 -6.854426,3.3848 -11.21875,3.3848 -2.112148,0 -4.151688,-0.3709 -6,-0.9148 L 53,1028.0014 c 3.56434,1.2294 7.53587,1.944 11.59375,1.944 2.119968,0 4.110994,-0.1612 6.125,-0.5032 0.154995,-2.2306 1.786756,-4.4271 4.625,-5.6261 2.834687,-1.1987 6.223708,-1.1275 8.9375,-0.1144 2.002105,-1.5552 3.607476,-3.3191 4.8125,-5.2145 l -13.28125,0 z m 4.28125,6.4495 c -3.58357,0 -6.5625,2.1804 -6.5625,4.8029 0,2.6228 2.97893,4.7113 6.5625,4.7113 3.583571,0 6.40625,-2.0885 6.40625,-4.7113 0,-2.6225 -2.822679,-4.8029 -6.40625,-4.8029 z"
       id="circle4910" />
    <path
       style="fill:none;stroke:#000000;stroke-width:1.5;stroke-linecap:round;stroke-linejoin:round;stroke-miterlimit:4;stroke-opacity:0.45539903999999998;stroke-dasharray:none"
       d="m 71.125,927.5497 c -7.667919,0 -14.540585,3.2944 -19.3125,8.5625 l -2.5,-4.34375 c -0.909402,-1.57513 -2.92487,-2.09691 -4.5,-1.1875 L 13.90625,948.4247 c -1.575131,0.9094 -2.096902,2.89362 -1.1875,4.46875 l 3.6875,6.375 c 0.01633,0.0304 0.01386,0.0636 0.03125,0.0937 l 3.5,6.03125 1.09375,1.875 -1.875,2.25 2.90625,49.0938 -2.90625,25.9687 86.625,0 -2.875,-25.9688 2.875,-49.0937 -2.1875,-2.625 10.9375,-18.9375 c 0.70802,-1.22519 0.90581,-2.53124 0.5625,-3.8125 -0.40639,-1.51666 -1.52939,-2.87277 -3.15625,-3.8125 -0.37815,-0.21817 -0.74541,-0.41627 -1.125,-0.5625 -0.008,-0.004 -0.0229,0.004 -0.0312,0 -0.0215,-0.008 -0.041,-0.0233 -0.0625,-0.0312 -2.91312,-1.39061 -5.87592,-0.66663 -7.34375,1.875 l -6.1875,10.75 C 96.535648,938.53829 85.108618,927.5497 71.125,927.5497 z"
       id="path3631-4" />
    <path
       style="fill:#000000;fill-opacity:0.15492961;stroke:none"
       d="m 19.5,1041.081 -0.34375,3 86.625,0 -0.34375,-3 -85.9375,0 z"
       id="path2818-4-4-7"
       sodipodi:nodetypes="ccccc" />
    <path
       style="fill:#000000;fill-opacity:0.3675214"
       clip-path="none"
       d="m 80.09375,973.6747 c -3.58357,0 -6.5625,2.82243 -6.5625,6.40625 0,3.58324 2.97893,6.59375 6.5625,6.59375 3.58357,0 6.40625,-3.01051 6.40625,-6.59375 0,-3.58382 -2.82268,-6.40625 -6.40625,-6.40625 z m -15.5,6.28125 c -4.056459,0 -8.0287,0.8207 -11.59375,2.5 l 5.59375,9.65625 c 1.848306,-0.74379 3.889272,-1.125 6,-1.125 8.079495,0 14.796127,5.90947 15.90625,13.6875 l 11.03125,0 c -0.504945,-6.112 -3.01361,-11.69532 -7.25,-16.1875 -2.713076,1.3819 -6.103523,1.353 -8.9375,-0.28125 -2.836108,-1.63773 -4.467118,-4.51863 -4.625,-7.5625 -2.01329,-0.46776 -4.006452,-0.6875 -6.125,-0.6875 z m -15.5,4.75 c -1.304979,0.91126 -2.475054,1.91274 -3.625,3.0625 -3.220136,3.22058 -5.572906,7.22484 -6.84375,11.46875 2.560179,1.6585 4.1875,4.5347 4.1875,7.8125 0,3.2772 -1.627321,6.1545 -4.1875,7.8125 0.371556,1.2408 0.823869,2.4576 1.375,3.625 l 13.375,0 c -2.982326,-2.9067 -4.84375,-6.9472 -4.84375,-11.4375 0,-5.1159 2.419101,-9.77651 6.15625,-12.71875 l -5.59375,-9.625 z m -15.5,15.78125 c -3.583571,0 -6.5625,2.9787 -6.5625,6.5625 0,3.5832 2.978929,6.4375 6.5625,6.4375 3.58357,0 6.40625,-2.8543 6.40625,-6.4375 0,-3.5838 -2.82268,-6.5625 -6.40625,-6.5625 z M 80.5,1009.2997 c -0.509316,3.5787 -2.213992,6.7621 -4.6875,9.1875 l 13.28125,0 c 1.342624,-2.8856 2.172152,-5.9677 2.4375,-9.1875 l -11.03125,0 z"
       id="circle4910-1" />
  </g>
</svg>
