<?xml version="1.0" encoding="utf-8"?>
<!-- Generator: Adobe Illustrator 15.0.0, SVG Export Plug-In . SVG Version: 6.00 Build 0)  -->
<!DOCTYPE svg PUBLIC "-//W3C//DTD SVG 1.1//EN" "http://www.w3.org/Graphics/SVG/1.1/DTD/svg11.dtd">
<svg version="1.1" id="Layer_1" xmlns="http://www.w3.org/2000/svg" xmlns:xlink="http://www.w3.org/1999/xlink" x="0px" y="0px"
	 width="24px" height="24px" viewBox="0 0 24 24" enable-background="new 0 0 24 24" xml:space="preserve">
<path id="path4683_2_" inkscape:connector-curvature="0" opacity="0.3" fill="#FFFFFF" enable-background="new    " d="
	M17.167,17.039l-3.056-3.046l3.051-3.04c-0.512-0.865-1.232-1.59-2.098-2.104l-3.057,3.047L8.945,8.84
	c-0.871,0.52-1.601,1.248-2.113,2.121l3.057,3.048l-3.049,3.04c0.512,0.864,1.234,1.588,2.098,2.104l3.056-3.045l3.062,3.051
	C15.924,18.643,16.652,17.912,17.167,17.039z"/>
<linearGradient id="path4683_1_" gradientUnits="userSpaceOnUse" x1="420" y1="-278.6577" x2="420" y2="-268.3398" gradientTransform="matrix(1 0 0 -1 -408 -260.5)">
	<stop  offset="0" style="stop-color:#676868"/>
	<stop  offset="1" style="stop-color:#EAEAEA"/>
</linearGradient>
<path id="path4683" inkscape:connector-curvature="0" fill="url(#path4683_1_)" d="M17.167,16.039l-3.056-3.046l3.051-3.04
	c-0.512-0.865-1.232-1.59-2.098-2.104l-3.057,3.047L8.945,7.84c-0.871,0.52-1.601,1.248-2.113,2.121l3.057,3.048l-3.049,3.04
	c0.512,0.864,1.234,1.588,2.098,2.104l3.056-3.045l3.062,3.051C15.924,17.643,16.652,16.912,17.167,16.039z"/>
<radialGradient id="path4709_1_" cx="647.3779" cy="521.6562" r="5.0485" gradientTransform="matrix(1.1879 0 0 1.1879 -757.0201 -610.6855)" gradientUnits="userSpaceOnUse">
	<stop  offset="0" style="stop-color:#FFFFFF"/>
	<stop  offset="1" style="stop-color:#FFFFFF;stop-opacity:0"/>
</radialGradient>
<path id="path4709" inkscape:connector-curvature="0" fill="url(#path4709_1_)" d="M8.938,7.844
	c-0.871,0.518-1.58,1.252-2.094,2.125L9.875,13l-1.062,1.062C9.739,14.646,10.825,15,12.001,15c1.177,0,2.263-0.354,3.188-0.938
	L14.125,13l3.031-3.062c-0.512-0.864-1.229-1.578-2.094-2.094L12,10.906L8.938,7.844z"/>
</svg>
