<?xml version="1.0" encoding="utf-8"?>
<!-- Generator: Adobe Illustrator 15.0.0, SVG Export Plug-In . SVG Version: 6.00 Build 0)  -->
<!DOCTYPE svg PUBLIC "-//W3C//DTD SVG 1.1//EN" "http://www.w3.org/Graphics/SVG/1.1/DTD/svg11.dtd">
<svg version="1.1" id="Layer_1" xmlns="http://www.w3.org/2000/svg" xmlns:xlink="http://www.w3.org/1999/xlink" x="0px" y="0px"
	 width="22px" height="22px" viewBox="0 0 22 22" enable-background="new 0 0 22 22" xml:space="preserve">
<path id="path4683_2_" inkscape:connector-curvature="0" opacity="0.3" fill="#FFFFFF" enable-background="new    " d="
	M16.167,16.039l-3.056-3.046l3.051-3.04c-0.512-0.865-1.232-1.59-2.098-2.104l-3.057,3.047L7.945,7.84
	c-0.871,0.52-1.601,1.248-2.113,2.121l3.057,3.048l-3.049,3.04c0.512,0.864,1.234,1.588,2.098,2.104l3.056-3.045l3.062,3.051
	C14.924,17.643,15.652,16.912,16.167,16.039z"/>
<linearGradient id="path4683_1_" gradientUnits="userSpaceOnUse" x1="419" y1="-279.6577" x2="419" y2="-269.3398" gradientTransform="matrix(1 0 0 -1 -408 -262.5)">
	<stop  offset="0" style="stop-color:#676868"/>
	<stop  offset="1" style="stop-color:#EAEAEA"/>
</linearGradient>
<path id="path4683" inkscape:connector-curvature="0" fill="url(#path4683_1_)" d="M16.167,15.039l-3.056-3.046l3.051-3.04
	c-0.512-0.865-1.232-1.59-2.098-2.104l-3.057,3.047L7.945,6.84c-0.871,0.52-1.601,1.248-2.113,2.121l3.057,3.048l-3.049,3.04
	c0.512,0.864,1.234,1.588,2.098,2.104l3.056-3.045l3.062,3.051C14.924,16.643,15.652,15.912,16.167,15.039z"/>
<radialGradient id="path4709_1_" cx="646.3779" cy="520.6562" r="5.0485" gradientTransform="matrix(1.1879 0 0 1.1879 -756.8322 -610.498)" gradientUnits="userSpaceOnUse">
	<stop  offset="0" style="stop-color:#FFFFFF"/>
	<stop  offset="1" style="stop-color:#FFFFFF;stop-opacity:0"/>
</radialGradient>
<path id="path4709" inkscape:connector-curvature="0" fill="url(#path4709_1_)" d="M7.938,6.844
	c-0.871,0.518-1.58,1.252-2.094,2.125L8.875,12l-1.062,1.062C8.739,13.646,9.825,14,11.001,14c1.177,0,2.263-0.354,3.188-0.938
	L13.125,12l3.031-3.062c-0.512-0.864-1.229-1.578-2.094-2.094L11,9.906L7.938,6.844z"/>
</svg>
