<?xml version="1.0" encoding="utf-8"?>
<!-- Generator: Adobe Illustrator 15.0.0, SVG Export Plug-In . SVG Version: 6.00 Build 0)  -->
<!DOCTYPE svg PUBLIC "-//W3C//DTD SVG 1.1//EN" "http://www.w3.org/Graphics/SVG/1.1/DTD/svg11.dtd">
<svg version="1.1" id="Layer_1" xmlns="http://www.w3.org/2000/svg" xmlns:xlink="http://www.w3.org/1999/xlink" x="0px" y="0px"
	 width="22px" height="22px" viewBox="0 0 22 22" enable-background="new 0 0 22 22" xml:space="preserve">
<path id="path3_9_" opacity="0.3" fill="#030303" enable-background="new    " d="M18,18c-0.368-0.822-0.818-1.74-1.354-2.746
	c-0.535-1.012-1.121-2.049-1.756-3.113c-0.64-1.062-1.289-2.121-1.957-3.17C12.264,7.926,11.609,6.936,10.975,6
	C10.339,6.936,9.688,7.936,9.02,9c-0.67,1.064-1.313,2.131-1.936,3.195c-0.62,1.062-1.193,2.104-1.729,3.113
	C4.818,16.316,4.368,17.212,4,17.997L18,18L18,18z"/>
<linearGradient id="path10_1_" gradientUnits="userSpaceOnUse" x1="1640" y1="1031" x2="1640" y2="1019.001" gradientTransform="matrix(1 0 0 1 -1629 -1014)">
	<stop  offset="0" style="stop-color:#D6952B"/>
	<stop  offset="1" style="stop-color:#F9D508"/>
</linearGradient>
<path id="path10_9_" fill="url(#path10_1_)" d="M18,17c-0.368-0.822-0.818-1.74-1.354-2.746c-0.535-1.012-1.121-2.049-1.756-3.113
	c-0.64-1.062-1.289-2.121-1.957-3.17C12.264,6.926,11.609,5.936,10.975,5C10.339,5.936,9.688,6.936,9.02,8
	c-0.67,1.064-1.313,2.131-1.936,3.195c-0.62,1.062-1.193,2.104-1.729,3.113C4.818,15.316,4.368,16.212,4,16.997L18,17L18,17z"/>
<radialGradient id="circle17_1_" cx="1640" cy="1020" r="7" gradientTransform="matrix(1 0 0 1 -1629 -1014)" gradientUnits="userSpaceOnUse">
	<stop  offset="0" style="stop-color:#FFFFFF"/>
	<stop  offset="1" style="stop-color:#FFFFFF;stop-opacity:0"/>
</radialGradient>
<path id="circle17_4_" fill="url(#circle17_1_)" d="M10.969,5c-0.634,0.936-1.27,1.936-1.938,3c-0.67,1.064-1.317,2.123-1.938,3.188
	c-0.087,0.15-0.165,0.289-0.25,0.438C8.009,12.49,9.438,13,11,13s2.991-0.51,4.156-1.375c-0.096-0.162-0.184-0.307-0.281-0.469
	c-0.636-1.066-1.27-2.139-1.938-3.188C12.27,6.924,11.604,5.936,10.969,5z"/>
</svg>
