<?xml version="1.0" encoding="utf-8"?>
<!-- Generator: Adobe Illustrator 15.0.0, SVG Export Plug-In . SVG Version: 6.00 Build 0)  -->
<!DOCTYPE svg PUBLIC "-//W3C//DTD SVG 1.1//EN" "http://www.w3.org/Graphics/SVG/1.1/DTD/svg11.dtd">
<svg version="1.1" id="Layer_1" xmlns="http://www.w3.org/2000/svg" xmlns:xlink="http://www.w3.org/1999/xlink" x="0px" y="0px"
	 width="24px" height="24px" viewBox="0 0 24 24" enable-background="new 0 0 24 24" xml:space="preserve">
<path id="path3_9_" opacity="0.3" fill="#030303" enable-background="new    " d="M19,19c-0.368-0.822-0.818-1.74-1.354-2.746
	c-0.535-1.012-1.121-2.049-1.756-3.113c-0.64-1.062-1.289-2.121-1.957-3.17C13.264,8.926,12.609,7.936,11.975,7
	c-0.636,0.936-1.287,1.936-1.955,3c-0.67,1.064-1.313,2.131-1.936,3.195c-0.62,1.062-1.193,2.104-1.729,3.113
	C5.818,17.316,5.368,18.212,5,18.997L19,19L19,19z"/>
<linearGradient id="path10_1_" gradientUnits="userSpaceOnUse" x1="1641" y1="1032" x2="1641" y2="1020.001" gradientTransform="matrix(1 0 0 1 -1629 -1014)">
	<stop  offset="0" style="stop-color:#D6952B"/>
	<stop  offset="1" style="stop-color:#F9D508"/>
</linearGradient>
<path id="path10_9_" fill="url(#path10_1_)" d="M19,18c-0.368-0.822-0.818-1.74-1.354-2.746c-0.535-1.012-1.121-2.049-1.756-3.113
	c-0.64-1.062-1.289-2.121-1.957-3.17C13.264,7.926,12.609,6.936,11.975,6c-0.636,0.936-1.287,1.936-1.955,3
	c-0.67,1.064-1.313,2.131-1.936,3.195c-0.62,1.062-1.193,2.104-1.729,3.113C5.818,16.316,5.368,17.212,5,17.997L19,18L19,18z"/>
<radialGradient id="circle17_1_" cx="1641" cy="1021" r="7" gradientTransform="matrix(1 0 0 1 -1629 -1014)" gradientUnits="userSpaceOnUse">
	<stop  offset="0" style="stop-color:#FFFFFF"/>
	<stop  offset="1" style="stop-color:#FFFFFF;stop-opacity:0"/>
</radialGradient>
<path id="circle17_4_" fill="url(#circle17_1_)" d="M11.969,6c-0.634,0.936-1.27,1.936-1.938,3c-0.67,1.064-1.317,2.123-1.938,3.188
	c-0.087,0.15-0.165,0.289-0.25,0.438C9.009,13.49,10.438,14,12,14s2.991-0.51,4.156-1.375c-0.096-0.162-0.184-0.307-0.281-0.469
	c-0.636-1.066-1.27-2.139-1.938-3.188C13.27,7.924,12.604,6.936,11.969,6z"/>
</svg>
