<?xml version="1.0" encoding="utf-8"?>
<!-- Generator: Adobe Illustrator 15.0.0, SVG Export Plug-In . SVG Version: 6.00 Build 0)  -->
<!DOCTYPE svg PUBLIC "-//W3C//DTD SVG 1.1//EN" "http://www.w3.org/Graphics/SVG/1.1/DTD/svg11.dtd">
<svg version="1.1" id="Layer_1" xmlns="http://www.w3.org/2000/svg" xmlns:xlink="http://www.w3.org/1999/xlink" x="0px" y="0px"
	 width="16px" height="16px" viewBox="0 0 16 16" enable-background="new 0 0 16 16" xml:space="preserve">
<path id="path4681" inkscape:connector-curvature="0" opacity="0.3" fill="#010101" enable-background="new    " d="M2,9
	c0,0.699,0.126,1.367,0.346,1.991h11.308C13.874,10.367,14,9.699,14,9s-0.126-1.368-0.346-1.992H2.346C2.126,7.632,2,8.301,2,9z"/>
<linearGradient id="path4705_1_" gradientUnits="userSpaceOnUse" x1="416" y1="-318.4976" x2="416" y2="-306.502" gradientTransform="matrix(1 0 0 -1 -408 -304.5)">
	<stop  offset="0" style="stop-color:#676868"/>
	<stop  offset="1" style="stop-color:#EAEAEA"/>
</linearGradient>
<path id="path4705" inkscape:connector-curvature="0" fill="url(#path4705_1_)" d="M2,8c0,0.699,0.126,1.367,0.346,1.991h11.308
	C13.874,9.367,14,8.699,14,8s-0.126-1.368-0.346-1.992H2.346C2.126,6.632,2,7.301,2,8z"/>
<linearGradient id="path4707_1_" gradientUnits="userSpaceOnUse" x1="416" y1="-318.4976" x2="416" y2="-306.502" gradientTransform="matrix(1 0 0 -1 -408 -304.5)">
	<stop  offset="0" style="stop-color:#676868"/>
	<stop  offset="1" style="stop-color:#EAEAEA"/>
</linearGradient>
<path id="path4707" inkscape:connector-curvature="0" fill="url(#path4707_1_)" d="M2,8c0,0.699,0.126,1.367,0.346,1.991h11.308
	C13.874,9.367,14,8.699,14,8s-0.126-1.368-0.346-1.992H2.346C2.126,6.632,2,7.301,2,8z"/>
<radialGradient id="path4711_1_" cx="262.9297" cy="-258.4268" r="5.0514" gradientTransform="matrix(1.1879 0 0 -1.1879 -304.3324 -302.9854)" gradientUnits="userSpaceOnUse">
	<stop  offset="0" style="stop-color:#FFFFFF"/>
	<stop  offset="1" style="stop-color:#FFFFFF;stop-opacity:0"/>
</radialGradient>
<path id="path4711" inkscape:connector-curvature="0" fill="url(#path4711_1_)" d="M2.344,6C3.167,8.331,5.387,10,8,10
	c2.613,0,4.833-1.669,5.656-4H2.344z"/>
</svg>
