<?xml version="1.0" encoding="UTF-8" standalone="no"?>
<!-- Generator: Adobe Illustrator 13.0.0, SVG Export Plug-In . SVG Version: 6.00 Build 14948)  -->

<svg
   xmlns:dc="http://purl.org/dc/elements/1.1/"
   xmlns:cc="http://creativecommons.org/ns#"
   xmlns:rdf="http://www.w3.org/1999/02/22-rdf-syntax-ns#"
   xmlns:svg="http://www.w3.org/2000/svg"
   xmlns="http://www.w3.org/2000/svg"
   xmlns:xlink="http://www.w3.org/1999/xlink"
   xmlns:sodipodi="http://sodipodi.sourceforge.net/DTD/sodipodi-0.dtd"
   xmlns:inkscape="http://www.inkscape.org/namespaces/inkscape"
   version="1.1"
   id="Layer_1"
   x="0px"
   y="0px"
   width="512px"
   height="512px"
   viewBox="0 0 512 512"
   enable-background="new 0 0 512 512"
   xml:space="preserve"
   inkscape:version="0.48.2 r9819"
   sodipodi:docname="usc t9oub.svg"><metadata
   id="metadata3467"><rdf:RDF><cc:Work
       rdf:about=""><dc:format>image/svg+xml</dc:format><dc:type
         rdf:resource="http://purl.org/dc/dcmitype/StillImage" /><dc:title></dc:title></cc:Work></rdf:RDF></metadata><defs
   id="defs3465"><linearGradient
     id="linearGradient5007"><stop
       id="stop5009"
       offset="0"
       style="stop-color:#b3130a;stop-opacity:1;" /><stop
       id="stop5011"
       offset="1"
       style="stop-color:#db674d;stop-opacity:1" /></linearGradient><linearGradient
     inkscape:collect="always"
     id="linearGradient4853"><stop
       style="stop-color:#000000;stop-opacity:1;"
       offset="0"
       id="stop4855" /><stop
       style="stop-color:#000000;stop-opacity:0;"
       offset="1"
       id="stop4857" /></linearGradient><linearGradient
     inkscape:collect="always"
     id="linearGradient4831"><stop
       style="stop-color:#ba1e10;stop-opacity:1;"
       offset="0"
       id="stop4833" /><stop
       style="stop-color:#ba1e10;stop-opacity:0;"
       offset="1"
       id="stop4835" /></linearGradient><linearGradient
     id="linearGradient4819"><stop
       style="stop-color:#f0efef;stop-opacity:1;"
       offset="0"
       id="stop4821" /><stop
       style="stop-color:#fadad4;stop-opacity:1;"
       offset="1"
       id="stop4823" /></linearGradient><linearGradient
     id="linearGradient4746"><stop
       id="stop4748"
       offset="0"
       style="stop-color:#ffffff;stop-opacity:0.55156951" /><stop
       id="stop4750"
       offset="1"
       style="stop-color:#ffffff;stop-opacity:0;" /></linearGradient><linearGradient
     id="linearGradient4504"
     inkscape:collect="always"><stop
       id="stop4506"
       offset="0"
       style="stop-color:#b10f08;stop-opacity:1" /><stop
       id="stop4508"
       offset="1"
       style="stop-color:#b3130a;stop-opacity:0;" /></linearGradient><linearGradient
     id="linearGradient4437"><stop
       style="stop-color:#00005d;stop-opacity:0.54509807;"
       offset="0"
       id="stop4439" /><stop
       style="stop-color:#000000;stop-opacity:0;"
       offset="1"
       id="stop4441" /></linearGradient><linearGradient
     id="linearGradient4429"><stop
       style="stop-color:#00005d;stop-opacity:0.54464287;"
       offset="0"
       id="stop4431" /><stop
       style="stop-color:#000000;stop-opacity:0;"
       offset="1"
       id="stop4433" /></linearGradient><linearGradient
     inkscape:collect="always"
     id="linearGradient4327"><stop
       style="stop-color:#b3130a;stop-opacity:1;"
       offset="0"
       id="stop4329" /><stop
       style="stop-color:#b3130a;stop-opacity:0;"
       offset="1"
       id="stop4331" /></linearGradient><linearGradient
     id="linearGradient4319"><stop
       style="stop-color:#ffffff;stop-opacity:1;"
       offset="0"
       id="stop4321" /><stop
       style="stop-color:#ffffff;stop-opacity:0;"
       offset="1"
       id="stop4323" /></linearGradient><linearGradient
     inkscape:collect="always"
     xlink:href="#linearGradient4327"
     id="linearGradient4333"
     x1="233.59981"
     y1="290.02121"
     x2="14.658326"
     y2="373.27451"
     gradientUnits="userSpaceOnUse" /><linearGradient
     inkscape:collect="always"
     id="linearGradient4327-9"><stop
       style="stop-color:#b3130a;stop-opacity:1;"
       offset="0"
       id="stop4329-4" /><stop
       style="stop-color:#b3130a;stop-opacity:0;"
       offset="1"
       id="stop4331-8" /></linearGradient><linearGradient
     gradientTransform="translate(186.43,136.711)"
     y2="308.84375"
     x2="176.54059"
     y1="301.2966"
     x1="233.59981"
     gradientUnits="userSpaceOnUse"
     id="linearGradient4372"
     xlink:href="#linearGradient4327-9"
     inkscape:collect="always" /><linearGradient
     id="linearGradient4327-4"><stop
       style="stop-color:#b3130a;stop-opacity:1;"
       offset="0"
       id="stop4329-5" /><stop
       style="stop-color:#b3130a;stop-opacity:0;"
       offset="1"
       id="stop4331-5" /></linearGradient><linearGradient
     gradientTransform="translate(186.43,136.711)"
     y2="308.84375"
     x2="176.54059"
     y1="301.2966"
     x1="233.59981"
     gradientUnits="userSpaceOnUse"
     id="linearGradient4372-1"
     xlink:href="#linearGradient4327-4"
     inkscape:collect="always" /><linearGradient
     inkscape:collect="always"
     xlink:href="#linearGradient4429"
     id="linearGradient4427"
     x1="407.06537"
     y1="103.22754"
     x2="318.87061"
     y2="162.82599"
     gradientUnits="userSpaceOnUse" /><linearGradient
     inkscape:collect="always"
     xlink:href="#linearGradient4429"
     id="linearGradient4435"
     x1="348.05173"
     y1="85.523178"
     x2="250.07512"
     y2="216.62471"
     gradientUnits="userSpaceOnUse" /><radialGradient
     inkscape:collect="always"
     xlink:href="#linearGradient4437"
     id="radialGradient4445"
     cx="134.47244"
     cy="181.26193"
     fx="134.47244"
     fy="181.26193"
     r="89.6875"
     gradientTransform="matrix(2.7060814,0.14081549,-0.09889165,1.9004214,-224.87286,-199.65579)"
     gradientUnits="userSpaceOnUse" /><radialGradient
     inkscape:collect="always"
     xlink:href="#linearGradient4327-4-2"
     id="radialGradient4455-6"
     cx="302.46771"
     cy="520.19647"
     fx="302.46771"
     fy="520.19647"
     r="79.83036"
     gradientTransform="matrix(0.95596027,-0.60743174,0.04622704,0.07275091,-4.3293429,536.27067)"
     gradientUnits="userSpaceOnUse" /><linearGradient
     inkscape:collect="always"
     id="linearGradient4327-4-2"><stop
       style="stop-color:#b3130a;stop-opacity:1;"
       offset="0"
       id="stop4329-5-4" /><stop
       style="stop-color:#b3130a;stop-opacity:0;"
       offset="1"
       id="stop4331-5-5" /></linearGradient><radialGradient
     inkscape:collect="always"
     xlink:href="#linearGradient4319"
     id="radialGradient4499"
     cx="217.14432"
     cy="313.12714"
     fx="217.14432"
     fy="313.12714"
     r="4.8323064"
     gradientTransform="matrix(0.4276737,-0.00591044,0.5855857,42.372446,-51.787706,-12976.608)"
     gradientUnits="userSpaceOnUse" /><radialGradient
     inkscape:collect="always"
     xlink:href="#linearGradient4504"
     id="radialGradient4502"
     cx="202.03473"
     cy="387.49438"
     fx="202.03473"
     fy="387.49438"
     r="44.730526"
     gradientTransform="matrix(1.536491,2.2921523,-1.7642612,1.1826315,575.2515,-525.02712)"
     gradientUnits="userSpaceOnUse" /><radialGradient
     inkscape:collect="always"
     xlink:href="#linearGradient4538-5"
     id="radialGradient4544-4"
     cx="256.5885"
     cy="111.9535"
     fx="256.5885"
     fy="111.9535"
     r="138.6965"
     gradientTransform="matrix(1,0,0,0.38982599,0,-51.688884)"
     gradientUnits="userSpaceOnUse" /><linearGradient
     inkscape:collect="always"
     id="linearGradient4538-5"><stop
       style="stop-color:#000000;stop-opacity:1;"
       offset="0"
       id="stop4540-2" /><stop
       style="stop-color:#000000;stop-opacity:0;"
       offset="1"
       id="stop4542-9" /></linearGradient><radialGradient
     inkscape:collect="always"
     xlink:href="#linearGradient4319-5"
     id="radialGradient4499-7"
     cx="217.14432"
     cy="313.12714"
     fx="217.14432"
     fy="313.12714"
     r="4.8323064"
     gradientTransform="matrix(0.57384853,-0.01489555,1.1054819,42.588539,-246.32235,-13042.321)"
     gradientUnits="userSpaceOnUse" /><linearGradient
     id="linearGradient4319-5"><stop
       style="stop-color:#ffffff;stop-opacity:1;"
       offset="0"
       id="stop4321-7" /><stop
       style="stop-color:#ffffff;stop-opacity:0;"
       offset="1"
       id="stop4323-8" /></linearGradient><linearGradient
     inkscape:collect="always"
     xlink:href="#linearGradient4319-5"
     id="linearGradient4706"
     x1="166.56183"
     y1="441.59631"
     x2="193.2924"
     y2="402.61176"
     gradientUnits="userSpaceOnUse" /><radialGradient
     inkscape:collect="always"
     xlink:href="#linearGradient4746"
     id="radialGradient4744"
     cx="170.34724"
     cy="413.39331"
     fx="170.34724"
     fy="413.39331"
     r="42.802254"
     gradientTransform="matrix(1,0,0,0.75335575,0,104.40634)"
     gradientUnits="userSpaceOnUse" /><radialGradient
     inkscape:collect="always"
     xlink:href="#linearGradient4319-5"
     id="radialGradient4760"
     cx="192.5"
     cy="162"
     fx="192.5"
     fy="162"
     r="143.5"
     gradientTransform="matrix(1,0,0,0.73170732,0,43.463415)"
     gradientUnits="userSpaceOnUse" /><radialGradient
     inkscape:collect="always"
     xlink:href="#linearGradient4319-5-0"
     id="radialGradient4760-2"
     cx="192.5"
     cy="162"
     fx="192.5"
     fy="162"
     r="143.5"
     gradientTransform="matrix(1,0,0,0.73170732,0,43.463415)"
     gradientUnits="userSpaceOnUse" /><linearGradient
     id="linearGradient4319-5-0"><stop
       style="stop-color:#ffffff;stop-opacity:1;"
       offset="0"
       id="stop4321-7-5" /><stop
       style="stop-color:#ffffff;stop-opacity:0;"
       offset="1"
       id="stop4323-8-5" /></linearGradient><radialGradient
     r="143.5"
     fy="162"
     fx="192.5"
     cy="162"
     cx="192.5"
     gradientTransform="matrix(1,0,0,0.73170732,-1.1333334e-7,43.46341)"
     gradientUnits="userSpaceOnUse"
     id="radialGradient4780"
     xlink:href="#linearGradient4538-5"
     inkscape:collect="always" /><radialGradient
     inkscape:collect="always"
     xlink:href="#linearGradient4319-5"
     id="radialGradient4803"
     gradientUnits="userSpaceOnUse"
     gradientTransform="matrix(1.133166,11.124225,-0.56159669,13.146313,74.936967,-8718.9297)"
     cx="312.5"
     cy="442.16666"
     fx="312.5"
     fy="442.16666"
     r="143.5" /><radialGradient
     inkscape:collect="always"
     xlink:href="#linearGradient4538-5"
     id="radialGradient4805"
     gradientUnits="userSpaceOnUse"
     gradientTransform="matrix(1.133166,11.124225,-0.56159669,13.146313,74.936967,-8718.9297)"
     cx="303.5"
     cy="423.03336"
     fx="303.5"
     fy="423.03336"
     r="143.5" /><filter
     inkscape:collect="always"
     id="filter4815"
     x="-0.11779013"
     width="1.2355803"
     y="-0.012287749"
     height="1.0245755"><feGaussianBlur
       inkscape:collect="always"
       stdDeviation="11.995592"
       id="feGaussianBlur4817" /></filter><linearGradient
     inkscape:collect="always"
     xlink:href="#linearGradient4819"
     id="linearGradient4825"
     x1="304.64703"
     y1="313.32541"
     x2="398.91226"
     y2="186.32541"
     gradientUnits="userSpaceOnUse" /><linearGradient
     inkscape:collect="always"
     xlink:href="#linearGradient4831"
     id="linearGradient4837"
     x1="321.36856"
     y1="409.16974"
     x2="295.22852"
     y2="370.72852"
     gradientUnits="userSpaceOnUse" /><linearGradient
     inkscape:collect="always"
     xlink:href="#linearGradient4853"
     id="linearGradient4859"
     x1="227.42001"
     y1="420.24506"
     x2="165.99338"
     y2="228.24506"
     gradientUnits="userSpaceOnUse" /><filter
     inkscape:collect="always"
     id="filter4865"><feGaussianBlur
       inkscape:collect="always"
       stdDeviation="5.1647261"
       id="feGaussianBlur4867" /></filter><linearGradient
     inkscape:collect="always"
     xlink:href="#linearGradient4819-7"
     id="linearGradient4825-6"
     x1="304.64703"
     y1="313.32541"
     x2="398.91226"
     y2="186.32541"
     gradientUnits="userSpaceOnUse" /><linearGradient
     id="linearGradient4819-7"><stop
       style="stop-color:#f0efef;stop-opacity:1;"
       offset="0"
       id="stop4821-8" /><stop
       style="stop-color:#fadad4;stop-opacity:1;"
       offset="1"
       id="stop4823-7" /></linearGradient><linearGradient
     inkscape:collect="always"
     xlink:href="#linearGradient4319-5-0"
     id="linearGradient4960"
     gradientUnits="userSpaceOnUse"
     x1="176.12199"
     y1="132.94699"
     x2="360.84201"
     y2="253.94699" /><radialGradient
     inkscape:collect="always"
     xlink:href="#linearGradient4437-9"
     id="radialGradient4445-8"
     cx="134.47244"
     cy="181.26193"
     fx="134.47244"
     fy="181.26193"
     r="89.6875"
     gradientTransform="matrix(2.7060814,0.14081549,-0.09889165,1.9004214,-224.87286,-199.65579)"
     gradientUnits="userSpaceOnUse" /><linearGradient
     id="linearGradient4437-9"><stop
       style="stop-color:#00005d;stop-opacity:0.54509807;"
       offset="0"
       id="stop4439-0" /><stop
       style="stop-color:#000000;stop-opacity:0;"
       offset="1"
       id="stop4441-0" /></linearGradient></defs><sodipodi:namedview
   pagecolor="#ffffff"
   bordercolor="#666666"
   borderopacity="1"
   objecttolerance="10"
   gridtolerance="10"
   guidetolerance="10"
   inkscape:pageopacity="0"
   inkscape:pageshadow="2"
   inkscape:window-width="741"
   inkscape:window-height="766"
   id="namedview3463"
   showgrid="false"
   inkscape:zoom="1"
   inkscape:cx="271.31402"
   inkscape:cy="260.67094"
   inkscape:window-x="288"
   inkscape:window-y="93"
   inkscape:window-maximized="0"
   inkscape:current-layer="layer4" />





















<g
   inkscape:groupmode="layer"
   id="layer4"
   inkscape:label="SHAPE"
   style="display:inline"><path
     style="opacity:0.56986545;fill:url(#linearGradient4859);fill-opacity:1;stroke:none;filter:url(#filter4865)"
     d="M 378.99339,352 222.25495,454.49009 129,388 c 0,0 -20.46637,-46.19339 -33,-73 -12.53363,-26.80661 -17.610566,-45.0127 -10,-54 7.610566,-8.9873 142,-29 142,-29 l 140,77 z"
     id="path4851"
     inkscape:connector-curvature="0"
     sodipodi:nodetypes="ccczzccc"
     inkscape:export-filename="F:\WORK\DEVIANTART\ubuntu software center\path499.png"
     inkscape:export-xdpi="90"
     inkscape:export-ydpi="90" /><path
     style="fill:#f0efef;stroke:none"
     d="M 299.84375 55.25 L 110.28125 121.71875 L 182.40625 370.46875 L 222.78125 440.59375 L 341.15625 334.28125 L 400.84375 91.5625 L 329.09375 81.8125 L 299.84375 55.25 z M 248.25 87.90625 C 250.5816 87.991505 251.9295 90.33825 251.40625 93.8125 L 250.59375 99.34375 C 249.97875 103.43275 246.87525 107.68525 243.65625 108.90625 L 191.78125 128.59375 C 188.33225 129.90275 185.53125 127.767 185.53125 123.75 L 185.53125 118.28125 C 185.53025 114.07325 188.46975 109.5175 192.09375 108.1875 L 246.5 88.21875 C 247.13188 87.987 247.71194 87.886576 248.25 87.90625 z "
     id="polygon3419"
     inkscape:export-filename="F:\WORK\DEVIANTART\ubuntu software center\path499.png"
     inkscape:export-xdpi="90"
     inkscape:export-ydpi="90" /><polygon
     style="fill:#d34627;stroke:none"
     points="220.122,169.527 222.779,458.325 383.124,353.791 400.842,91.569 "
     id="polygon3431"
     inkscape:export-filename="F:\WORK\DEVIANTART\ubuntu software center\path499.png"
     inkscape:export-xdpi="90"
     inkscape:export-ydpi="90" /><path
     inkscape:connector-curvature="0"
     d="m 370.87,228.48301 c -2.006,-8.815 -5.137,-16.036 -9.433,-21.621 -4.396,-5.70201 -9.897,-9.54601 -16.542,-11.47301 -6.803,-1.963 -14.374,-1.394 -22.722,1.798 -8.51,3.254 -16.675,8.79001 -24.43,16.61301 -7.835,7.911 -14.767,17.207 -20.734,27.84 -5.98,10.656 -10.731,22.25 -14.232,34.705 -3.477,12.362 -5.176,24.53799 -5.129,36.46199 0.046,11.717 1.774,21.624 5.139,29.731 3.287,7.935 7.65,13.888 13.053,17.91 5.279,3.941 11.374,5.901 18.253,5.949 6.734,0.053 13.906,-2.103 21.522,-6.4 7.487,-4.224 14.495,-10.007 21.082,-17.367 6.524,-7.287 12.252,-15.395 17.227,-24.375 4.966,-8.962 9.084,-18.573 12.378,-28.88599 3.313,-10.381 5.391,-20.896 6.224,-31.61 0.846,-10.879 0.306,-20.632 -1.656,-29.276 z"
     id="path3435-8"
     style="opacity:0.39461885;fill:#b3130a;fill-opacity:1;stroke:none;display:inline"
     inkscape:export-filename="F:\WORK\DEVIANTART\ubuntu software center\path499.png"
     inkscape:export-xdpi="90"
     inkscape:export-ydpi="90" /><path
     inkscape:connector-curvature="0"
     d="m 368.87,226.483 c -2.006,-8.815 -5.137,-16.036 -9.433,-21.621 -4.396,-5.702 -9.897,-9.546 -16.542,-11.473 -6.803,-1.963 -14.374,-1.394 -22.722,1.798 -8.51,3.254 -16.675,8.79 -24.43,16.613 -7.835,7.911 -14.767,17.207 -20.734,27.84 -5.98,10.656 -10.731,22.25 -14.232,34.705 -3.477,12.362 -5.176,24.538 -5.129,36.462 0.046,11.717 1.774,21.624 5.139,29.731 3.287,7.935 7.65,13.888 13.053,17.91 5.279,3.941 11.374,5.901 18.253,5.949 6.734,0.053 13.906,-2.103 21.522,-6.4 7.487,-4.224 14.495,-10.007 21.082,-17.367 6.524,-7.287 12.252,-15.395 17.227,-24.375 4.966,-8.962 9.084,-18.573 12.378,-28.886 3.313,-10.381 5.391,-20.896 6.224,-31.61 0.846,-10.879 0.306,-20.632 -1.656,-29.276 z"
     id="path3435"
     style="fill:url(#linearGradient4825);fill-opacity:1;stroke:none"
     inkscape:export-filename="F:\WORK\DEVIANTART\ubuntu software center\path499.png"
     inkscape:export-xdpi="90"
     inkscape:export-ydpi="90" /><path
     inkscape:connector-curvature="0"
     style="fill:#d34627;fill-opacity:1;stroke:none"
     d="m 340.65625,211.71875 c -1.18205,0.056 -2.38563,0.59125 -3.625,1.59375 -1.994,1.611 -3.6855,4.01775 -5.0625,7.21875 -1.038,3.326 -1.385,6.424 -1,9.25 0.382,2.817 1.432,4.48325 3.125,5.03125 1.827,0.996 3.70625,0.6765 5.65625,-0.9375 1.939,-1.606 3.59975,-4.109 4.96875,-7.5 1.009,-2.977 1.374,-5.86775 1.125,-8.71875 -0.254,-2.859 -1.27375,-4.71925 -3.09375,-5.53125 -0.68887,-0.306 -1.38452,-0.43986 -2.09375,-0.40625 z m -12.84375,18.8125 c -2.643,0.084 -5.69925,0.8445 -9.15625,2.3125 -5.519,2.344 -10.697,6.2895 -15.5,11.8125 l 5.15625,11.5625 c 3.014,-3.418 6.2355,-5.87925 9.6875,-7.40625 6.105,-2.703 11.08325,-2.05075 14.90625,1.90625 3.752,3.89 5.6215,9.7095 5.6875,17.4375 L 348.875,262.9375 c 0.231,-11.407 -2.32225,-20.03975 -7.78125,-25.84375 -1.408,1.129 -2.8445,2.00825 -4.3125,2.65625 -1.477,0.652 -2.95975,0.6755 -4.46875,0.0625 -1.345,-0.686 -2.42875,-1.81925 -3.21875,-3.40625 -0.797,-1.593 -1.21725,-3.559 -1.28125,-5.875 z m -28.71875,18.6875 c -3.718,5.358 -6.928,11.0815 -9.625,17.1875 -2.693,6.104 -4.65025,12.4805 -5.90625,19.0625 3.016,1.184 4.44975,4.466 4.34375,9.875 -0.101,5.115 -1.686,9.8005 -4.75,14.0625 1.034,5.235 2.7695,9.40975 5.1875,12.59375 2.389,3.145 5.24875,5.531 8.59375,7.125 L 303.25,313 c -2.977,-1.146 -5.32625,-3.4995 -7.03125,-7.0625 -1.727,-3.601 -2.53525,-8.06425 -2.40625,-13.40625 0.135,-5.637 1.1945,-11.2625 3.1875,-16.8125 1.993,-5.563 4.623,-10.51775 7.875,-14.84375 l -5.78125,-11.65625 z m 49.40625,19.9375 -10.1875,4.5625 c -0.936,8.065 -3.522,15.76625 -7.75,23.15625 -4.238,7.401 -9.275,12.58875 -15.125,15.59375 -3.306,1.697 -6.33775,2.3075 -9.09375,1.8125 L 300.625,329.6875 c 4.319,0.773 9.072,-0.259 14.25,-3 3.245,-1.717 6.14375,-3.69375 8.71875,-5.96875 0.264,-2.195 0.8835,-4.419 1.8125,-6.625 0.926,-2.205 2.06375,-4.244 3.46875,-6.125 1.567,-1.958 3.084,-3.30225 4.5,-4.03125 1.409,-0.724 2.73625,-1.164 4.03125,-1.375 6.187,-10.72 9.89275,-21.81225 11.09375,-33.40625 z m -69.75,19.78125 c -0.77327,0.0501 -1.59275,0.27837 -2.46875,0.6875 -2.156,1.007 -4.1465,3.059 -5.9375,6.125 -1.792,3.074 -2.6725,6.1805 -2.6875,9.3125 -0.014,2.862 0.84675,4.95125 2.59375,6.28125 1.735,1.326 3.65925,1.4795 5.78125,0.4375 2.3,-1.129 4.25425,-3.167 5.90625,-6.125 1.647,-2.948 2.5135,-5.82925 2.5625,-8.65625 0.053,-3.093 -0.7205,-5.3675 -2.3125,-6.8125 -1.005,-0.90437 -2.14871,-1.33352 -3.4375,-1.25 z m 57.625,18 c -0.20953,0.008 -0.4345,0.0498 -0.65625,0.0937 -1.786,0.361 -3.62725,1.7015 -5.53125,4.0625 -1.73,2.049 -2.89725,4.55 -3.53125,7.5 -0.632,2.946 -0.586,5.4685 0.125,7.5625 1.032,1.913 2.4135,2.70025 4.1875,2.40625 1.762,-0.291 3.59275,-1.688 5.46875,-4.25 1.857,-2.326 3.066,-4.93225 3.625,-7.78125 0.556,-2.851 0.4865,-5.20475 -0.1875,-7.09375 -0.86888,-1.71238 -2.03327,-2.5544 -3.5,-2.5 z"
     id="path3437"
     inkscape:export-filename="F:\WORK\DEVIANTART\ubuntu software center\path499.png"
     inkscape:export-xdpi="90"
     inkscape:export-ydpi="90" /><path
     style="fill:#d34627;stroke:none"
     d="m 220.122,169.538 2.657,288.776 -89.474,-67.316 -23.033,-269.309 76.186,15.06 z"
     id="polygon3449"
     inkscape:connector-curvature="0"
     inkscape:export-filename="F:\WORK\DEVIANTART\ubuntu software center\path499.png"
     inkscape:export-xdpi="90"
     inkscape:export-ydpi="90" /><path
     style="fill:#ffffff;stroke:none"
     inkscape:connector-curvature="0"
     d="m 286.687,155.665 55.185,-24.223 c 3.418,-1.5 5.64,0.858 4.988,5.184 l -0.847,5.617 c -0.624,4.137 -3.757,8.624 -7.022,10.097 l -52.625,23.748 c -3.499,1.579 -6.346,-0.336 -6.346,-4.353 v -5.459 c 0.001,-4.209 2.992,-8.998 6.667,-10.611 z"
     id="path3451"
     inkscape:export-filename="F:\WORK\DEVIANTART\ubuntu software center\path499.png"
     inkscape:export-xdpi="90"
     inkscape:export-ydpi="90" /><path
     style="opacity:0.51569507000000003;fill:url(#radialGradient4445);fill-opacity:1;stroke:none"
     d="M 299.375 57.46875 L 120 121.28125 L 188.625 134.375 L 220.9375 166.84375 L 297.90625 133.0625 L 299.375 57.46875 z M 248.25 87.90625 C 250.5816 87.991505 251.9295 90.33825 251.40625 93.8125 L 250.59375 99.34375 C 249.97875 103.43275 246.87525 107.68525 243.65625 108.90625 L 191.78125 128.59375 C 188.33225 129.90275 185.53125 127.767 185.53125 123.75 L 185.53125 118.28125 C 185.53025 114.07325 188.46975 109.5175 192.09375 108.1875 L 246.5 88.21875 C 247.13188 87.987 247.71194 87.886576 248.25 87.90625 z M 297.625 150.875 L 286.6875 155.65625 C 283.0115 157.26925 280.03125 162.07325 280.03125 166.28125 L 280.03125 171.75 C 280.03125 173.076 280.333 174.15075 280.875 174.96875 C 281.74 175.07875 282.712 174.93675 283.75 174.46875 L 297.3125 168.34375 L 297.625 150.875 z "
     id="polygon3423"
     inkscape:export-filename="F:\WORK\DEVIANTART\ubuntu software center\path499.png"
     inkscape:export-xdpi="90"
     inkscape:export-ydpi="90" /><path
     style="fill:url(#linearGradient4333);fill-opacity:1;stroke:none"
     d="M 220.15023,169.54911 186.43,136.711 l 14.087,253.616 22.25,68.008 z"
     id="polygon3457"
     inkscape:connector-curvature="0"
     sodipodi:nodetypes="ccccc"
     inkscape:export-filename="F:\WORK\DEVIANTART\ubuntu software center\path499.png"
     inkscape:export-xdpi="90"
     inkscape:export-ydpi="90" /><g
     id="g3459"
     style="opacity:0.52466371;color:#000000;fill:url(#radialGradient4502);fill-opacity:1;fill-rule:nonzero;stroke:none;marker:none;visibility:visible;display:inline;overflow:visible;enable-background:accumulate"
     inkscape:export-filename="F:\WORK\DEVIANTART\ubuntu software center\path499.png"
     inkscape:export-xdpi="90"
     inkscape:export-ydpi="90"><path
       style="color:#000000;fill:url(#radialGradient4502);fill-opacity:1;fill-rule:nonzero;stroke:none;marker:none;visibility:visible;display:inline;overflow:visible;enable-background:accumulate"
       inkscape:connector-curvature="0"
       clip-rule="evenodd"
       d="m 200.5185,390.32944 -67.21429,0.66813 89.46105,67.33363 z"
       id="path3461"
       sodipodi:nodetypes="cccc" /></g><path
     style="opacity:0.53363229;fill:url(#linearGradient4435);fill-opacity:1;stroke:none"
     d="m 299.375,57.46875 -1.46875,75.59375 27.40625,-11.21875 3.46875,-38.5625 L 299.375,57.46875 z M 324.09375,139.25 297.625,150.875 297.3125,168.34375 322.5,156.96875 324.09375,139.25 z"
     id="polygon3427"
     inkscape:connector-curvature="0"
     inkscape:export-filename="F:\WORK\DEVIANTART\ubuntu software center\path499.png"
     inkscape:export-xdpi="90"
     inkscape:export-ydpi="90" /><path
     style="fill:#ffffff;fill-opacity:1;stroke:none;display:inline"
     d="m 249.4375,87.78125 c -0.38401,-0.01804 -0.78257,0.03552 -1.1875,0.125 2.3316,0.08526 3.6795,2.432 3.15625,5.90625 l -0.8125,5.53125 c -0.615,4.089 -3.7185,8.3415 -6.9375,9.5625 l -51.875,19.6875 c -3.449,1.309 -6.25,-0.82675 -6.25,-4.84375 l 0,1.5625 c 0,5.1457 4.801,6.59025 8.25,5.28125 l 51.875,-19.6875 c 3.219,-1.221 6.3225,-5.4735 6.9375,-9.5625 l 0.8125,-7.53125 c 0.52325,-3.47425 -1.41013,-5.911067 -3.96875,-6.03125 z"
     id="path3425-9"
     inkscape:connector-curvature="0"
     inkscape:export-filename="F:\WORK\DEVIANTART\ubuntu software center\path499.png"
     inkscape:export-xdpi="90"
     inkscape:export-ydpi="90" /><path
     style="opacity:0.35426007;fill:url(#linearGradient4427);fill-opacity:1;stroke:none"
     d="m 328.78125,83.3125 -3.46875,38.5 70.875,-29.71875 -67.40625,-8.78125 z M 343.8125,131 c -0.591,-0.005 -1.2285,0.1265 -1.9375,0.4375 l -17.78125,7.8125 -1.59375,17.71875 13.875,-6.25 c 3.265,-1.473 6.40725,-5.95675 7.03125,-10.09375 L 344.25,135 c 0.25,-1.659 0.0625,-3.027 -0.4375,-4 z"
     id="polygon3429"
     inkscape:connector-curvature="0"
     inkscape:export-filename="F:\WORK\DEVIANTART\ubuntu software center\path499.png"
     inkscape:export-xdpi="90"
     inkscape:export-ydpi="90" /><path
     transform="matrix(0.99997254,0.0074109,-0.0074109,0.99997254,0,0)"
     style="opacity:0.56502243;color:#000000;fill:url(#radialGradient4499);fill-opacity:1;fill-rule:nonzero;stroke:none;stroke-width:1.89999998;marker:none;visibility:visible;display:inline;overflow:visible;enable-background:accumulate"
     d="m 225.04764,166.71159 4.46656,287.67779 -3.36489,2.25285 -0.8126,-2.39804 -3.94162,-285.92466 z"
     id="rect4491"
     inkscape:connector-curvature="0"
     sodipodi:nodetypes="cccccc"
     inkscape:export-filename="F:\WORK\DEVIANTART\ubuntu software center\path499.png"
     inkscape:export-xdpi="90"
     inkscape:export-ydpi="90" /><path
     style="opacity:0.33632286;color:#000000;fill:url(#linearGradient4706);fill-opacity:1;fill-rule:nonzero;stroke:none;stroke-width:1.89999998;marker:none;visibility:visible;display:inline;overflow:visible;enable-background:accumulate"
     d="m 221.72935,455.69003 -85.86879,-64.43724 64.50198,-0.0641 z"
     id="rect4491-2"
     inkscape:connector-curvature="0"
     sodipodi:nodetypes="cccc"
     inkscape:export-filename="F:\WORK\DEVIANTART\ubuntu software center\path499.png"
     inkscape:export-xdpi="90"
     inkscape:export-ydpi="90" /><path
     style="fill:url(#radialGradient4744);fill-opacity:1;stroke:none"
     d="m 135.87563,391.06208 85.60451,64.49065 -0.71816,-2.44174 -83.01914,-62.04891 z"
     id="path4736"
     inkscape:connector-curvature="0"
     inkscape:export-filename="F:\WORK\DEVIANTART\ubuntu software center\path499.png"
     inkscape:export-xdpi="90"
     inkscape:export-ydpi="90" /><path
     style="fill:url(#linearGradient4837);fill-opacity:1;stroke:none"
     d="m 385.18098,302.49538 -3.0753,50.35799 -156.84016,102.25363 0.38441,-63.428 z"
     id="path4829"
     inkscape:connector-curvature="0"
     inkscape:export-xdpi="90"
     inkscape:export-ydpi="90"
     inkscape:export-filename="F:\WORK\DEVIANTART\ubuntu software center\path499.png" /><path
     style="opacity:0.52466371000000001;fill:url(#linearGradient4960);fill-opacity:1;stroke:none;display:inline"
     d="M 400.84375 91.5625 L 220.125 169.53125 L 222.28125 404.78125 C 250.01099 298.21852 313.48356 210.08179 396.25 159.71875 L 400.84375 91.5625 z M 342.59375 131.6875 C 344.92509 131.5968 346.44578 133.74771 346.1875 137.09375 L 345.8125 142.40625 C 345.50936 146.34428 342.74211 150.63156 339.625 152.03125 L 289.375 174.59375 C 286.03523 176.09419 283.08586 174.26164 282.78125 170.4375 L 282.375 165.21875 C 282.05491 161.21285 284.64358 156.65833 288.15625 155.125 L 340.875 132.125 C 341.48747 131.85778 342.05576 131.70844 342.59375 131.6875 z "
     id="polygon3431-1"
     inkscape:export-filename="F:\WORK\DEVIANTART\ubuntu software center\path499.png"
     inkscape:export-xdpi="90"
     inkscape:export-ydpi="90" /><path
     style="opacity:0.36322871;fill:#aa0000;fill-opacity:1;stroke:none"
     d="m 135,390 67,0.5 -13.42225,-251.68931 -2.12567,-2.04341 L 112.5,122 z"
     id="path4997"
     inkscape:connector-curvature="0"
     sodipodi:nodetypes="cccccc"
     inkscape:export-filename="F:\WORK\DEVIANTART\ubuntu software center\path499.png"
     inkscape:export-xdpi="90"
     inkscape:export-ydpi="90" /></g></svg>