<?xml version="1.0" encoding="UTF-8" standalone="no"?>
<!-- Created with Inkscape (http://www.inkscape.org/) -->

<svg
   xmlns:dc="http://purl.org/dc/elements/1.1/"
   xmlns:cc="http://creativecommons.org/ns#"
   xmlns:rdf="http://www.w3.org/1999/02/22-rdf-syntax-ns#"
   xmlns:svg="http://www.w3.org/2000/svg"
   xmlns="http://www.w3.org/2000/svg"
   xmlns:sodipodi="http://sodipodi.sourceforge.net/DTD/sodipodi-0.dtd"
   xmlns:inkscape="http://www.inkscape.org/namespaces/inkscape"
   width="96"
   height="96"
   id="svg4874"
   version="1.1"
   inkscape:version="0.91 r13725"
   viewBox="0 0 96 96.000001"
   sodipodi:docname="speed-fast02.svg">
  <defs
     id="defs4876" />
  <sodipodi:namedview
     id="base"
     pagecolor="#ffffff"
     bordercolor="#666666"
     borderopacity="1.0"
     inkscape:pageopacity="0.0"
     inkscape:pageshadow="2"
     inkscape:zoom="8.7812488"
     inkscape:cx="4.6633415"
     inkscape:cy="51.074725"
     inkscape:document-units="px"
     inkscape:current-layer="g4780"
     showgrid="true"
     showborder="true"
     fit-margin-top="0"
     fit-margin-left="0"
     fit-margin-right="0"
     fit-margin-bottom="0"
     inkscape:snap-bbox="true"
     inkscape:bbox-paths="true"
     inkscape:bbox-nodes="true"
     inkscape:snap-bbox-edge-midpoints="true"
     inkscape:snap-bbox-midpoints="true"
     inkscape:object-paths="true"
     inkscape:snap-intersection-paths="true"
     inkscape:object-nodes="true"
     inkscape:snap-smooth-nodes="true"
     inkscape:snap-midpoints="true"
     inkscape:snap-object-midpoints="true"
     inkscape:snap-center="true"
     showguides="true"
     inkscape:guide-bbox="true"
     inkscape:snap-others="true"
     inkscape:snap-global="true">
    <inkscape:grid
       type="xygrid"
       id="grid5451"
       empspacing="8" />
    <sodipodi:guide
       orientation="1,0"
       position="8,-8.0000001"
       id="guide4063" />
    <sodipodi:guide
       orientation="1,0"
       position="4,-8.0000001"
       id="guide4065" />
    <sodipodi:guide
       orientation="0,1"
       position="-8,88.000001"
       id="guide4067" />
    <sodipodi:guide
       orientation="0,1"
       position="-8,92.000001"
       id="guide4069" />
    <sodipodi:guide
       orientation="0,1"
       position="104,4"
       id="guide4071" />
    <sodipodi:guide
       orientation="0,1"
       position="-5,8.0000001"
       id="guide4073" />
    <sodipodi:guide
       orientation="1,0"
       position="92,-8.0000001"
       id="guide4075" />
    <sodipodi:guide
       orientation="1,0"
       position="88,-8.0000001"
       id="guide4077" />
    <sodipodi:guide
       orientation="0,1"
       position="-8,84.000001"
       id="guide4074" />
    <sodipodi:guide
       orientation="1,0"
       position="12,-8.0000001"
       id="guide4076" />
    <sodipodi:guide
       orientation="0,1"
       position="-5,12"
       id="guide4078" />
    <sodipodi:guide
       position="48,-8.0000001"
       orientation="1,0"
       id="guide4170" />
    <sodipodi:guide
       position="-8,48"
       orientation="0,1"
       id="guide4172" />
  </sodipodi:namedview>
  <metadata
     id="metadata4879">
    <rdf:RDF>
      <cc:Work
         rdf:about="">
        <dc:format>image/svg+xml</dc:format>
        <dc:type
           rdf:resource="http://purl.org/dc/dcmitype/StillImage" />
        <dc:title></dc:title>
      </cc:Work>
    </rdf:RDF>
  </metadata>
  <g
     inkscape:label="Layer 1"
     inkscape:groupmode="layer"
     id="layer1"
     transform="translate(67.857146,-78.50504)">
    <g
       transform="matrix(0,-1,-1,0,373.50506,516.50504)"
       id="g4845"
       style="display:inline">
      <g
         inkscape:export-ydpi="90"
         inkscape:export-xdpi="90"
         inkscape:export-filename="next01.png"
         transform="matrix(-0.9996045,0,0,1,575.94296,-611.00001)"
         id="g4778"
         inkscape:label="Layer 1">
        <g
           transform="matrix(-1,0,0,1,575.99999,611)"
           id="g4780"
           style="display:inline">
          <rect
             style="color:#000000;display:inline;overflow:visible;visibility:visible;fill:none;stroke:none;stroke-width:4;marker:none;enable-background:accumulate"
             id="rect4782"
             width="96.037987"
             height="96"
             x="-438.00244"
             y="345.36221"
             transform="scale(-1,1)" />
          <path
             style="color:#000000;display:inline;overflow:visible;visibility:visible;fill:#808080;fill-opacity:1;fill-rule:nonzero;stroke:none;stroke-width:3;marker:none;enable-background:accumulate"
             d="M 0 28.230469 L 0 67.765625 C 0 67.765625 14.928712 61.486862 30 52.023438 L 30 67.765625 C 30 67.765625 44.928712 61.486862 60 52.023438 L 60 67.765625 C 60 67.765625 79.275382 59.66178 96.132812 47.986328 C 96.132812 47.983329 96.133109 47.978508 96.130859 47.974609 C 96.128859 47.971611 96.129047 47.964836 96.123047 47.960938 C 96.121047 47.957938 96.113328 47.951064 96.111328 47.947266 C 96.109328 47.944267 96.107422 47.941798 96.107422 47.9375 C 78.326272 35.889726 60 28.230469 60 28.230469 L 60 43.978516 C 44.366758 34.241498 30 28.230469 30 28.230469 L 30 43.978516 C 14.366758 34.241498 0 28.230469 0 28.230469 z M 4 34.482422 C 9.17303 36.855593 17.294956 40.777287 27.884766 47.373047 L 28.888672 47.998047 L 27.873047 48.636719 C 17.587677 55.095013 9.26067 59.099079 4 61.509766 L 4 34.482422 z M 34 34.482422 C 39.17303 36.855593 47.294956 40.777287 57.884766 47.373047 L 58.888672 47.998047 L 57.873047 48.636719 C 47.587677 55.095013 39.26067 59.099079 34 61.509766 L 34 51.181641 L 34 44.789062 L 34 34.482422 z M 64 34.521484 C 69.06328 36.822254 77.355344 40.916323 88.615234 47.990234 C 77.679604 54.930418 69.16084 59.122788 64 61.46875 L 64 51.181641 L 64 44.789062 L 64 34.521484 z M 92.648438 49.923828 C 92.659038 49.940122 92.681866 49.97045 92.697266 49.994141 C 92.710966 50.018631 92.724575 50.050966 92.734375 50.068359 C 92.737375 50.073357 92.782444 50.163947 92.777344 50.15625 L 92.751953 50.113281 L 92.660156 49.958984 C 92.652156 49.94419 92.657138 49.938522 92.648438 49.923828 z "
             transform="matrix(0,-1,-1.0003957,0,438.00245,441.36222)"
             id="path3421" />
        </g>
      </g>
    </g>
  </g>
</svg>
