<?xml version="1.0" encoding="UTF-8" standalone="no"?>
<!-- Created with Inkscape (http://www.inkscape.org/) -->
<svg id="svg4874" xmlns:rdf="http://www.w3.org/1999/02/22-rdf-syntax-ns#" xmlns="http://www.w3.org/2000/svg" height="96" viewBox="0 0 118.00002 96.000009" width="118" version="1.1" xmlns:cc="http://creativecommons.org/ns#" xmlns:dc="http://purl.org/dc/elements/1.1/">
 <metadata id="metadata4879">
  <rdf:RDF>
   <cc:Work rdf:about="">
    <dc:format>image/svg+xml</dc:format>
    <dc:type rdf:resource="http://purl.org/dc/dcmitype/StillImage"/>
    <dc:title/>
   </cc:Work>
  </rdf:RDF>
 </metadata>
 <g id="layer1" transform="translate(67.857 -78.505)">
  <rect id="rect5100" style="opacity:.21171;fill:none" height="96" width="118" y="78.505" x="-67.857"/>
  <path id="path4213" style="color-rendering:auto;text-decoration-color:#000000;color:#000000;font-variant-numeric:normal;shape-rendering:auto;solid-color:#000000;text-decoration-line:none;fill:#ed3146;font-variant-position:normal;mix-blend-mode:normal;block-progression:tb;font-feature-settings:normal;shape-padding:0;font-variant-alternates:normal;text-indent:0;font-variant-caps:normal;image-rendering:auto;white-space:normal;text-decoration-style:solid;font-variant-ligatures:none;isolation:auto;text-transform:none" d="m-47.881 94.506c-5.0328 0.05818-8.7136-0.12028-11.725 1.541-1.5055 0.83064-2.6968 2.2356-3.3555 3.9902-0.65866 1.7547-0.89648 3.8383-0.89648 6.4688v40c0 2.6304 0.23782 4.7121 0.89648 6.4668 0.65866 1.7546 1.85 3.1596 3.3555 3.9902 3.011 1.6613 6.6918 1.4848 11.725 1.543h0.01172 72.023 0.01172c5.0328-0.0582 8.7136 0.11832 11.725-1.543 1.5055-0.83064 2.6968-2.2356 3.3555-3.9902 0.65866-1.7547 0.89648-3.8364 0.89648-6.4668v-40c0-2.6304-0.23782-4.7141-0.89648-6.4688s-1.85-3.1596-3.3555-3.9902c-3.011-1.6613-6.6918-1.4828-11.725-1.541h-0.01172-72.023-0.01172zm0.02344 4h72c5.0383 0.05877 8.3519 0.23688 9.8164 1.0449 0.73364 0.40478 1.1527 0.85295 1.543 1.8926 0.39025 1.0396 0.64062 2.6929 0.64062 5.0625v40c0 2.3696-0.25037 4.0229-0.64062 5.0625s-0.80933 1.4878-1.543 1.8926c-1.4645 0.80804-4.7782 0.98616-9.8164 1.0449h-71.977-0.02344c-5.0383-0.0588-8.3519-0.23688-9.8164-1.0449-0.73364-0.40478-1.1508-0.85296-1.541-1.8926-0.39025-1.0396-0.64258-2.6929-0.64258-5.0625v-40c0-2.3696 0.25232-4.0229 0.64258-5.0625 0.39025-1.0396 0.80738-1.4878 1.541-1.8926 1.4645-0.80804 4.7782-0.98616 9.8164-1.0449z"/>
  <rect id="rect4215" style="color:#000000;fill:#ed3146" height="30" width="10" y="111.51" x="36.143"/>
  <path id="path4185" style="fill:#ed3146" d="m-14.857 108.51v9.3599c0 2.7506 0.0933 5.2975 0.2793 7.6458 0.18602 2.3144 0.43607 4.6463 0.74609 6.9943h3.998c0.27903-2.348 0.51126-4.6799 0.69726-6.9943 0.18602-2.3147 0.2793-4.8616 0.2793-7.6458v-9.3599h-6z"/>
  <path id="path4942" style="fill:#ed3146" d="m-11.857 136.51c-1.1001 0-2.0496 0.3867-2.8496 1.1582-0.76673 0.738-1.1504 1.6912-1.1504 2.8653 0 1.174 0.38366 2.1311 1.1504 2.8691 0.80005 0.738 1.7496 1.1074 2.8496 1.1074 1.1334 0 2.0829-0.3694 2.8496-1.1074 0.76673-0.738 1.1504-1.6951 1.1504-2.8691 0-1.1741-0.38366-2.1273-1.1504-2.8653-0.7667-0.7715-1.7162-1.1582-2.8496-1.1582z"/>
 </g>
</svg>
