<?xml version="1.0" encoding="UTF-8" standalone="no"?>
<!-- Created with Inkscape (http://www.inkscape.org/) -->
<svg id="svg6138" xmlns:rdf="http://www.w3.org/1999/02/22-rdf-syntax-ns#" xmlns="http://www.w3.org/2000/svg" height="90" viewBox="0 0 90 90.000001" width="90" version="1.1" xmlns:cc="http://creativecommons.org/ns#" xmlns:dc="http://purl.org/dc/elements/1.1/">
 <defs id="defs6140">
  <clipPath id="clipPath3017-4-5-3" clipPathUnits="userSpaceOnUse">
   <path id="path3019-4-1-5" d="m199 186.36v27h39v-27h-39zm25.141 7.5c0.53199 0.00001 0.98285 0.0788 1.4062 0.15625 0.43428 0.0665 0.85228 0.1503 1.1562 0.25 0.31487 0.0883 0.52331 0.15051 0.71875 0.25 0.20629 0.0995 0.3975 0.21035 0.48438 0.26562l-0.71875 2.0469c-0.34742-0.18802-0.73152-0.33605-1.1875-0.46875-0.44518-0.14367-0.95236-0.1875-1.4844-0.1875-1.1834 0.00002-2.0774 0.29423-2.6094 0.96875-0.52114 0.66344-0.76563 1.589-0.76563 2.75 0 0.56396 0.0883 1.0825 0.21875 1.5469 0.13021 0.45338 0.2863 0.84012 0.54688 1.1719 0.26054 0.33171 0.60914 0.5933 1 0.78125 0.39089 0.17694 0.86949 0.23437 1.3906 0.23437 0.28227 0 0.47638 0.0119 0.67188 0 0.20624-0.0118 0.39486-0.029 0.54687-0.0625v-4.0156h2.5781v5.6875c-0.30401 0.12179-0.77997 0.30476-1.4531 0.4375-0.67315 0.14368-1.5276 0.1875-2.5156 0.1875-0.84687 0-1.5864-0.10962-2.2812-0.375-0.684-0.2654-1.3395-0.66323-1.8281-1.1719-0.48862-0.50864-0.85358-1.1498-1.125-1.8906-0.26054-0.74088-0.39062-1.5803-0.39062-2.5312 0-0.96201 0.15999-1.8217 0.45312-2.5625 0.29316-0.74084 0.70844-1.382 1.2188-1.8906 0.51031-0.5197 1.0816-0.87523 1.7656-1.1406 0.69482-0.26539 1.4214-0.4375 2.2031-0.4375zm-11.953 0.0312c0.16265-0.0119 0.35294 0 0.53125 0 0.65923 0.00002 1.2433 0.11625 1.7188 0.28125 0.48629 0.15417 0.87409 0.3747 1.1875 0.67187 0.31336 0.28617 0.55183 0.60379 0.70312 1 0.15137 0.3852 0.20313 0.8659 0.20313 1.3281 0 0.45128-0.11057 0.86764-0.35938 1.2969-0.24855 0.41823-0.57856 0.73303-1 0.95313 0.58353 0.24213 1.046 0.57822 1.3594 1.0625 0.32418 0.47325 0.46874 1.0474 0.46875 1.7188-0.00001 0.52829-0.0772 1.0332-0.25 1.4844-0.17294 0.44026-0.44508 0.85733-0.8125 1.1875-0.36744 0.31919-0.8335 0.54724-1.4062 0.73438-0.56193 0.17614-1.2219 0.25-2 0.25-0.29181 0-0.61332 0.0114-0.9375-0.0312-0.32423-0.033-0.65054-0.12135-0.95313-0.1875-0.30257-0.0659-0.53269-0.11021-0.78125-0.1875-0.24856-0.077-0.46891-0.15257-0.60937-0.21875l0.45312-2.0625c0.28095 0.12087 0.6615 0.24753 1.0938 0.39062 0.44307 0.13221 1.0235 0.21875 1.6719 0.21875 0.74564 0 1.2323-0.13585 1.5781-0.42187 0.34578-0.28617 0.54688-0.67198 0.54688-1.1562 0-0.29717-0.0577-0.53625-0.1875-0.73438-0.11866-0.20911-0.29951-0.37891-0.51563-0.5-0.21615-0.13219-0.5099-0.26849-0.8125-0.3125-0.29178-0.0549-0.57125-0.0625-0.90625-0.0625h-0.98437v-1.9375h1.125c0.23775 0 0.42449-0.0808 0.64062-0.125 0.2269-0.044 0.4677-0.0885 0.64063-0.1875 0.17295-0.11003 0.29336-0.26138 0.39062-0.4375 0.10805-0.18702 0.125-0.42798 0.125-0.70312 0-0.20913-0.0387-0.37719-0.125-0.53125-0.0864-0.15419-0.18757-0.27592-0.32812-0.375-0.12981-0.0994-0.23818-0.19035-0.42188-0.23438-0.17296-0.0549-0.36315-0.0625-0.54687-0.0625-0.46469 0.00003-0.94393 0.0601-1.3438 0.20313-0.38903 0.14289-0.73834 0.32216-1.0625 0.53125l-0.84375-1.8281c0.17295-0.11026 0.38242-0.17568 0.60937-0.29687 0.23773-0.12084 0.46902-0.24468 0.75-0.34375 0.28097-0.0989 0.59286-0.2152 0.90625-0.28125 0.16206-0.0332 0.32171-0.0833 0.48438-0.0937z" style="color:#000000;fill:#f0f"/>
  </clipPath>
 </defs>
 <metadata id="metadata6143">
  <rdf:RDF>
   <cc:Work rdf:about="">
    <dc:format>image/svg+xml</dc:format>
    <dc:type rdf:resource="http://purl.org/dc/dcmitype/StillImage"/>
    <dc:title/>
   </cc:Work>
  </rdf:RDF>
 </metadata>
 <g id="layer1" transform="translate(-283.57 -358.79)">
  <g id="g5052" transform="translate(117.57 -613.57)">
   <path id="path6342-2" style="fill:#808080" d="m182.86 989.36c-4.2326-0.053-7.0774 0.8969-8.5371 2.6484-1.5326 1.8245-2.3184 4.8186-2.3184 8.9785v32.746c0 4.16 0.78576 7.154 2.3184 8.9785 1.4597 1.7516 4.3042 2.6485 8.5371 2.6485h56.291c4.2329 0 7.0774-0.8969 8.5371-2.6485 1.5326-1.8245 2.3164-4.8185 2.3164-8.9785v-32.746c0-4.1599-0.78381-7.154-2.3164-8.9785-1.4596-1.7515-4.3042-2.6484-8.5371-2.6484h-56.291zm13.127 11h0.002c3.5121 0 6.2248 0.8438 7.9961 2.6425 1.771 1.7373 2.6484 4.1503 2.6484 7.0742v0.7071h-0.15039c-0.0805 0.9561-0.20189 1.9115-0.59766 2.834h-0.002c-0.48138 1.09-1.1061 2.1569-1.8672 3.2031h-0.004c-0.72649 1.0091-1.5616 1.9982-2.502 2.9687h-0.002-0.006c-0.92278 0.9219-1.8447 1.8294-2.7676 2.7207h-0.006-0.002c-0.47776 0.4475-1.0245 0.9908-1.6309 1.627-0.6052 0.6348-1.1772 1.2708-1.7207 1.9043-0.53451 0.623-0.99017 1.2241-1.3691 1.8066l-0.006 0.014h-0.006c-0.11617 0.1698-0.0954 0.2197-0.16992 0.3613h13.818v6.1035h-21.619l-0.0781-0.6191c-0.0356-0.2847-0.0527-0.6025-0.0527-0.9609v-0.8262c0-1.5445 0.2436-2.9822 0.73633-4.2949h0.002c0.51129-1.3089 1.1695-2.5258 1.9707-3.6465 0.78969-1.1043 1.6747-2.1445 2.6523-3.1211 0.95335-0.9525 1.9059-1.8887 2.8594-2.8105h0.002c0.73259-0.7013 1.4346-1.3883 2.1055-2.0586 0.65568-0.6549 1.2175-1.2887 1.6855-1.9024h0.004c0.4898-0.6332 0.87189-1.257 1.1523-1.8711 0.26986-0.621 0.40235-1.2371 0.40235-1.873 0-1.4567-0.3845-2.3135-1.0898-2.8301-0.78984-0.5788-1.7414-0.875-2.9394-0.875-0.79124 0-1.5103 0.1133-2.168 0.332-0.69044 0.2298-1.3003 0.4988-1.832 0.8047h-0.004c-0.52246 0.3192-0.9812 0.6495-1.377 0.9883l-0.0137 0.014-0.0117 0.018c-0.41707 0.3274-0.72344 0.5928-0.90234 0.7715l-0.59571 0.5918-3.5957-5.0898 0.44141-0.4238c1.3497-1.2841 2.927-2.3103 4.7148-3.0762h0.004c1.8371-0.8041 3.8086-1.207 5.8906-1.207zm31.887 0c1.5072 0 2.7848 0.2239 3.9844 0.4433 1.2304 0.1885 2.4142 0.4266 3.2754 0.709 0.89207 0.2502 1.4814 0.4251 2.0352 0.707 0.58445 0.2819 1.1269 0.5972 1.373 0.7539l-2.0371 5.7989c-0.9843-0.5328-2.0714-0.9522-3.3633-1.3282-1.2613-0.4065-2.6978-0.5312-4.2051-0.5312-3.3528 0-5.8854 0.833-7.3926 2.7441-1.4765 1.8796-2.1699 4.5016-2.1699 7.791 0 1.5978 0.24955 3.0673 0.61914 4.3829 0.3689 1.2847 0.81251 2.3804 1.5508 3.3203 0.73814 0.9398 1.7247 1.6804 2.832 2.2129 1.1074 0.5014 2.463 0.664 3.9395 0.664 0.79972 0 1.3504 0.034 1.9043 0 0.58431-0.034 1.1182-0.083 1.5488-0.1777v-11.377h7.3047v16.115c-0.86131 0.3451-2.21 0.8622-4.1172 1.2382-1.9071 0.4067-4.3277 0.5313-7.127 0.5313-2.3993 0-4.4942-0.3107-6.4629-1.0625-1.9379-0.7519-3.7954-1.879-5.1797-3.3203-1.3843-1.4408-2.4185-3.2567-3.1875-5.3555-0.73815-2.0991-1.1055-4.4779-1.1055-7.1719 0-2.7256 0.45272-5.1609 1.2832-7.2597 0.83056-2.099 2.0073-3.9161 3.4531-5.3574 1.4458-1.4721 3.064-2.4786 5.002-3.2305 1.9685-0.7519 4.0274-1.2402 6.2422-1.2402z"/>
   <rect id="rect5027" style="fill:none" height="90" width="90" y="972.36" x="166"/>
   <path id="path5120" style="fill:#ccc;display:none" d="m213.5 189.36c-9 0-10 0-10 6v9c0 6 1 6 10 6h10c9 0 10 0 10-6v-9c0-6-1-6-10-6z" clip-path="url(#clipPath3017-4-5-3)" transform="matrix(2 0 0 2 -226 617.64)"/>
  </g>
 </g>
</svg>
