<?xml version="1.0" encoding="UTF-8" standalone="no"?>
<!-- Created with Inkscape (http://www.inkscape.org/) -->
<svg id="svg6138" xmlns:rdf="http://www.w3.org/1999/02/22-rdf-syntax-ns#" xmlns="http://www.w3.org/2000/svg" height="90" viewBox="0 0 90 90.000001" width="90" version="1.1" xmlns:cc="http://creativecommons.org/ns#" xmlns:dc="http://purl.org/dc/elements/1.1/">
 <defs id="defs6140">
  <clipPath id="clipPath3017-4-5-2" clipPathUnits="userSpaceOnUse">
   <path id="path3019-4-1-6" d="m199 186.36v27h39v-27h-39zm25.141 7.5c0.53199 0.00001 0.98285 0.0788 1.4062 0.15625 0.43428 0.0665 0.85228 0.1503 1.1562 0.25 0.31487 0.0883 0.52331 0.15051 0.71875 0.25 0.20629 0.0995 0.3975 0.21035 0.48438 0.26562l-0.71875 2.0469c-0.34742-0.18802-0.73152-0.33605-1.1875-0.46875-0.44518-0.14367-0.95236-0.1875-1.4844-0.1875-1.1834 0.00002-2.0774 0.29423-2.6094 0.96875-0.52114 0.66344-0.76563 1.589-0.76563 2.75 0 0.56396 0.0883 1.0825 0.21875 1.5469 0.13021 0.45338 0.2863 0.84012 0.54688 1.1719 0.26054 0.33171 0.60914 0.5933 1 0.78125 0.39089 0.17694 0.86949 0.23437 1.3906 0.23437 0.28227 0 0.47638 0.0119 0.67188 0 0.20624-0.0118 0.39486-0.029 0.54687-0.0625v-4.0156h2.5781v5.6875c-0.30401 0.12179-0.77997 0.30476-1.4531 0.4375-0.67315 0.14368-1.5276 0.1875-2.5156 0.1875-0.84687 0-1.5864-0.10962-2.2812-0.375-0.684-0.2654-1.3395-0.66323-1.8281-1.1719-0.48862-0.50864-0.85358-1.1498-1.125-1.8906-0.26054-0.74088-0.39062-1.5803-0.39062-2.5312 0-0.96201 0.15999-1.8217 0.45312-2.5625 0.29316-0.74084 0.70844-1.382 1.2188-1.8906 0.51031-0.5197 1.0816-0.87523 1.7656-1.1406 0.69482-0.26539 1.4214-0.4375 2.2031-0.4375zm-11.953 0.0312c0.16265-0.0119 0.35294 0 0.53125 0 0.65923 0.00002 1.2433 0.11625 1.7188 0.28125 0.48629 0.15417 0.87409 0.3747 1.1875 0.67187 0.31336 0.28617 0.55183 0.60379 0.70312 1 0.15137 0.3852 0.20313 0.8659 0.20313 1.3281 0 0.45128-0.11057 0.86764-0.35938 1.2969-0.24855 0.41823-0.57856 0.73303-1 0.95313 0.58353 0.24213 1.046 0.57822 1.3594 1.0625 0.32418 0.47325 0.46874 1.0474 0.46875 1.7188-0.00001 0.52829-0.0772 1.0332-0.25 1.4844-0.17294 0.44026-0.44508 0.85733-0.8125 1.1875-0.36744 0.31919-0.8335 0.54724-1.4062 0.73438-0.56193 0.17614-1.2219 0.25-2 0.25-0.29181 0-0.61332 0.0114-0.9375-0.0312-0.32423-0.033-0.65054-0.12135-0.95313-0.1875-0.30257-0.0659-0.53269-0.11021-0.78125-0.1875-0.24856-0.077-0.46891-0.15257-0.60937-0.21875l0.45312-2.0625c0.28095 0.12087 0.6615 0.24753 1.0938 0.39062 0.44307 0.13221 1.0235 0.21875 1.6719 0.21875 0.74564 0 1.2323-0.13585 1.5781-0.42187 0.34578-0.28617 0.54688-0.67198 0.54688-1.1562 0-0.29717-0.0577-0.53625-0.1875-0.73438-0.11866-0.20911-0.29951-0.37891-0.51563-0.5-0.21615-0.13219-0.5099-0.26849-0.8125-0.3125-0.29178-0.0549-0.57125-0.0625-0.90625-0.0625h-0.98437v-1.9375h1.125c0.23775 0 0.42449-0.0808 0.64062-0.125 0.2269-0.044 0.4677-0.0885 0.64063-0.1875 0.17295-0.11003 0.29336-0.26138 0.39062-0.4375 0.10805-0.18702 0.125-0.42798 0.125-0.70312 0-0.20913-0.0387-0.37719-0.125-0.53125-0.0864-0.15419-0.18757-0.27592-0.32812-0.375-0.12981-0.0994-0.23818-0.19035-0.42188-0.23438-0.17296-0.0549-0.36315-0.0625-0.54687-0.0625-0.46469 0.00003-0.94393 0.0601-1.3438 0.20313-0.38903 0.14289-0.73834 0.32216-1.0625 0.53125l-0.84375-1.8281c0.17295-0.11026 0.38242-0.17568 0.60937-0.29687 0.23773-0.12084 0.46902-0.24468 0.75-0.34375 0.28097-0.0989 0.59286-0.2152 0.90625-0.28125 0.16206-0.0332 0.32171-0.0833 0.48438-0.0937z" style="color:#000000;fill:#f0f"/>
  </clipPath>
 </defs>
 <metadata id="metadata6143">
  <rdf:RDF>
   <cc:Work rdf:about="">
    <dc:format>image/svg+xml</dc:format>
    <dc:type rdf:resource="http://purl.org/dc/dcmitype/StillImage"/>
    <dc:title/>
   </cc:Work>
  </rdf:RDF>
 </metadata>
 <g id="layer1" transform="translate(-283.57 -358.79)">
  <g id="g6119" transform="translate(221.57 -513.57)">
   <path id="path6129" style="fill:#808080" d="m78.855 889.36c-4.2326-0.053-7.0774 0.8969-8.5371 2.6484-1.5326 1.8245-2.3184 4.8187-2.3184 8.9786v32.746c0 4.16 0.78576 7.1541 2.3184 8.9786 1.4597 1.7516 4.3042 2.6484 8.5371 2.6484h56.291c4.2329 0 7.0774-0.8968 8.5371-2.6484 1.5326-1.8245 2.3164-4.8186 2.3164-8.9786v-32.746c0-4.1599-0.78381-7.1541-2.3164-8.9786-1.4596-1.7515-4.3042-2.6484-8.5371-2.6484h-56.291zm-0.0742 5.9941c0.0247 0.0002 0.0495 0.0002 0.0742 0h56.291c4.8553 0.01 4.8553 2.0065 4.8613 5.6348v32.746c-0.006 3.6256-1.0061 5.6258-4.8613 5.6348h-56.291c-4.8538 0-4.8538-2.0092-4.8633-5.6348v-32.746c0.009-3.6283 0.009-5.6288 4.7891-5.6348z"/>
   <path id="path6121" style="fill:#808080" d="m94.857 900.36 12.143 12.143 12.143-12.143 4.8594 4.8594-12.143 12.141 12.143 12.143-4.8594 4.8594-12.143-12.143-12.143 12.143-4.8594-4.8594 12.143-12.143-12.143-12.141 4.8594-4.8594z"/>
   <rect id="rect6123" style="fill:none" height="90" width="90" y="872.36" x="62"/>
   <path id="path6125" style="fill:#ccc;display:none" d="m213.5 189.36c-9 0-10 0-10 6v9c0 6 1 6 10 6h10c9 0 10 0 10-6v-9c0-6-1-6-10-6z" clip-path="url(#clipPath3017-4-5-2)" transform="matrix(2 0 0 2 -330 517.64)"/>
  </g>
 </g>
</svg>
