<?xml version="1.0" encoding="UTF-8" standalone="no"?>
<!-- Created with Inkscape (http://www.inkscape.org/) -->
<svg id="svg6138" xmlns:rdf="http://www.w3.org/1999/02/22-rdf-syntax-ns#" xmlns="http://www.w3.org/2000/svg" height="90" viewBox="0 0 90 90.000001" width="90" version="1.1" xmlns:cc="http://creativecommons.org/ns#" xmlns:dc="http://purl.org/dc/elements/1.1/">
 <metadata id="metadata6143">
  <rdf:RDF>
   <cc:Work rdf:about="">
    <dc:format>image/svg+xml</dc:format>
    <dc:type rdf:resource="http://purl.org/dc/dcmitype/StillImage"/>
    <dc:title/>
   </cc:Work>
  </rdf:RDF>
 </metadata>
 <g id="layer1" transform="translate(-283.57 -358.79)">
  <g id="g6306" transform="translate(109.57 223.43)">
   <g id="g6308" transform="matrix(1.875 0 0 1.875 -366 -1657.8)">
    <rect id="rect6310" style="opacity:.21171;fill:none" transform="translate(0 804.36)" height="48" width="48" y="152" x="288"/>
   </g>
   <path id="path6312" style="fill:#808080" d="m190.85 152.36c-4.2326-0.053-7.0774 0.8969-8.5371 2.6484-1.5326 1.8245-2.3184 4.8186-2.3184 8.9785v32.746c0 4.16 0.7858 7.154 2.3184 8.9785 1.4597 1.7516 4.3042 2.6485 8.5371 2.6485h56.291c4.2329 0 7.0774-0.8969 8.5371-2.6485 1.5326-1.8245 2.3164-4.8185 2.3164-8.9785v-32.746c0-4.1599-0.7838-7.154-2.3164-8.9785-1.4596-1.7515-4.3042-2.6484-8.5371-2.6484h-56.291zm43.898 11.027c1.4991 0 2.7697 0.2232 3.9629 0.4414 1.2238 0.1874 2.4015 0.4222 3.2578 0.7031 0.8874 0.2488 1.4747 0.4247 2.0254 0.7051 0.5812 0.2804 1.1204 0.5922 1.3652 0.7481l-2.0254 5.7675c-0.9789-0.5297-2.0607-0.9464-3.3457-1.3203-1.2545-0.4048-2.6843-0.5273-4.1836-0.5273-3.3346 0.0001-5.8545 0.8279-7.3535 2.7285-1.4685 1.8695-2.1561 4.4785-2.1562 7.75 0 1.5891 0.2475 3.0489 0.6152 4.3574 0.3669 1.2776 0.8067 2.3679 1.541 3.3027 0.7342 0.9347 1.717 1.6716 2.8184 2.2012 1.1015 0.4986 2.4496 0.6603 3.918 0.6602 0.7953 0 1.3436 0.034 1.8945 0 0.5812-0.034 1.1128-0.081 1.541-0.1758v-11.314h7.2637v16.025c-0.8567 0.3432-2.1967 0.8603-4.0938 1.2344-1.8968 0.4049-4.3058 0.5273-7.0898 0.5273-2.3863 0-4.4698-0.3087-6.4278-1.0566-1.9274-0.7478-3.7735-1.8693-5.1503-3.3027-1.3768-1.4332-2.4049-3.2387-3.17-5.3262-0.7339-2.0876-1.1015-4.4532-1.1015-7.1328 0-2.7108 0.4515-5.1331 1.2773-7.2207 0.8262-2.0876 1.9957-3.8947 3.4336-5.3281 1.438-1.4645 3.0472-2.467 4.9746-3.2149 1.9579-0.7478 4.0064-1.2324 6.209-1.2324zm-32.949 0.076c0.2541 0 0.5124 0.012 0.7637 0.012 1.8576 0.0001 3.504 0.328 4.8437 0.793 1.3703 0.4345 2.4626 1.057 3.3457 1.8945 0.883 0.8063 1.5564 1.6998 1.9824 2.8164 0.4267 1.0854 0.5723 2.4398 0.5723 3.7422 0 1.2717-0.3125 2.4446-1.0137 3.6543-0.7005 1.1783-1.6309 2.0673-2.8183 2.6875 1.6442 0.6823 2.9489 1.6276 3.832 2.9922 0.9135 1.3335 1.3203 2.952 1.3203 4.8437 0 1.4887-0.2181 2.9121-0.7051 4.1836-0.4873 1.2406-1.2537 2.4154-2.289 3.3457-1.0354 0.8996-2.349 1.541-3.9629 2.0684-1.5835 0.4963-3.4424 0.705-5.6348 0.705-0.8222 0-1.729 0.032-2.6426-0.088-0.9136-0.093-1.8327-0.341-2.6855-0.5274-0.8524-0.1857-1.5007-0.3115-2.2012-0.5293-0.7005-0.217-1.321-0.4306-1.7168-0.6172l1.2754-5.8105c0.7917 0.3407 1.864 0.6965 3.082 1.0996 1.2485 0.3725 2.8858 0.6172 4.7129 0.6172 2.1012 0 3.4709-0.3834 4.4453-1.1895 0.9743-0.8063 1.5411-1.8931 1.5411-3.2578 0-0.8373-0.1616-1.5101-0.5274-2.0683-0.3343-0.5894-0.8439-1.0691-1.4531-1.4102-0.6091-0.3727-1.4362-0.757-2.2891-0.8809-0.8219-0.1549-1.6107-0.1757-2.5547-0.1757h-2.7734v-5.459h3.1699c0.67 0 1.1958-0.2272 1.8047-0.3516 0.6395-0.124 1.3193-0.2505 1.8067-0.5293 0.4873-0.3102 0.8255-0.7362 1.0996-1.2324 0.3043-0.5271 0.3535-1.2071 0.3535-1.9824 0-0.5892-0.1099-1.062-0.3535-1.4961-0.2436-0.4345-0.5278-0.7774-0.9239-1.0567-0.3657-0.2801-0.6718-0.5361-1.1894-0.6601-0.4875-0.1547-1.0234-0.1758-1.541-0.1758-1.3095 0-2.6606 0.1693-3.7871 0.5723-1.0963 0.4026-2.0788 0.9068-2.9922 1.4961l-2.3789-5.1504c0.4873-0.3108 1.0771-0.4964 1.7168-0.8379 0.6699-0.3406 1.3214-0.6895 2.1132-0.9688 0.7917-0.2787 1.6719-0.6049 2.5547-0.791 0.4569-0.093 0.9069-0.2363 1.3653-0.2656 0.2291-0.017 0.4782-0.016 0.7324-0.012z"/>
  </g>
 </g>
</svg>
