<?xml version="1.0" encoding="UTF-8" standalone="no"?>
<!-- Created with Inkscape (http://www.inkscape.org/) -->
<svg id="svg6138" xmlns:rdf="http://www.w3.org/1999/02/22-rdf-syntax-ns#" xmlns="http://www.w3.org/2000/svg" height="90" viewBox="0 0 90 90.000001" width="90" version="1.1" xmlns:cc="http://creativecommons.org/ns#" xmlns:dc="http://purl.org/dc/elements/1.1/">
 <defs id="defs6140">
  <clipPath id="clipPath3017-4-5" clipPathUnits="userSpaceOnUse">
   <path id="path3019-4-1" d="m199 186.36v27h39v-27h-39zm25.141 7.5c0.53199 0.00001 0.98285 0.0788 1.4062 0.15625 0.43428 0.0665 0.85228 0.1503 1.1562 0.25 0.31487 0.0883 0.52331 0.15051 0.71875 0.25 0.20629 0.0995 0.3975 0.21035 0.48438 0.26562l-0.71875 2.0469c-0.34742-0.18802-0.73152-0.33605-1.1875-0.46875-0.44518-0.14367-0.95236-0.1875-1.4844-0.1875-1.1834 0.00002-2.0774 0.29423-2.6094 0.96875-0.52114 0.66344-0.76563 1.589-0.76563 2.75 0 0.56396 0.0883 1.0825 0.21875 1.5469 0.13021 0.45338 0.2863 0.84012 0.54688 1.1719 0.26054 0.33171 0.60914 0.5933 1 0.78125 0.39089 0.17694 0.86949 0.23437 1.3906 0.23437 0.28227 0 0.47638 0.0119 0.67188 0 0.20624-0.0118 0.39486-0.029 0.54687-0.0625v-4.0156h2.5781v5.6875c-0.30401 0.12179-0.77997 0.30476-1.4531 0.4375-0.67315 0.14368-1.5276 0.1875-2.5156 0.1875-0.84687 0-1.5864-0.10962-2.2812-0.375-0.684-0.2654-1.3395-0.66323-1.8281-1.1719-0.48862-0.50864-0.85358-1.1498-1.125-1.8906-0.26054-0.74088-0.39062-1.5803-0.39062-2.5312 0-0.96201 0.15999-1.8217 0.45312-2.5625 0.29316-0.74084 0.70844-1.382 1.2188-1.8906 0.51031-0.5197 1.0816-0.87523 1.7656-1.1406 0.69482-0.26539 1.4214-0.4375 2.2031-0.4375zm-11.953 0.0312c0.16265-0.0119 0.35294 0 0.53125 0 0.65923 0.00002 1.2433 0.11625 1.7188 0.28125 0.48629 0.15417 0.87409 0.3747 1.1875 0.67187 0.31336 0.28617 0.55183 0.60379 0.70312 1 0.15137 0.3852 0.20313 0.8659 0.20313 1.3281 0 0.45128-0.11057 0.86764-0.35938 1.2969-0.24855 0.41823-0.57856 0.73303-1 0.95313 0.58353 0.24213 1.046 0.57822 1.3594 1.0625 0.32418 0.47325 0.46874 1.0474 0.46875 1.7188-0.00001 0.52829-0.0772 1.0332-0.25 1.4844-0.17294 0.44026-0.44508 0.85733-0.8125 1.1875-0.36744 0.31919-0.8335 0.54724-1.4062 0.73438-0.56193 0.17614-1.2219 0.25-2 0.25-0.29181 0-0.61332 0.0114-0.9375-0.0312-0.32423-0.033-0.65054-0.12135-0.95313-0.1875-0.30257-0.0659-0.53269-0.11021-0.78125-0.1875-0.24856-0.077-0.46891-0.15257-0.60937-0.21875l0.45312-2.0625c0.28095 0.12087 0.6615 0.24753 1.0938 0.39062 0.44307 0.13221 1.0235 0.21875 1.6719 0.21875 0.74564 0 1.2323-0.13585 1.5781-0.42187 0.34578-0.28617 0.54688-0.67198 0.54688-1.1562 0-0.29717-0.0577-0.53625-0.1875-0.73438-0.11866-0.20911-0.29951-0.37891-0.51563-0.5-0.21615-0.13219-0.5099-0.26849-0.8125-0.3125-0.29178-0.0549-0.57125-0.0625-0.90625-0.0625h-0.98437v-1.9375h1.125c0.23775 0 0.42449-0.0808 0.64062-0.125 0.2269-0.044 0.4677-0.0885 0.64063-0.1875 0.17295-0.11003 0.29336-0.26138 0.39062-0.4375 0.10805-0.18702 0.125-0.42798 0.125-0.70312 0-0.20913-0.0387-0.37719-0.125-0.53125-0.0864-0.15419-0.18757-0.27592-0.32812-0.375-0.12981-0.0994-0.23818-0.19035-0.42188-0.23438-0.17296-0.0549-0.36315-0.0625-0.54687-0.0625-0.46469 0.00003-0.94393 0.0601-1.3438 0.20313-0.38903 0.14289-0.73834 0.32216-1.0625 0.53125l-0.84375-1.8281c0.17295-0.11026 0.38242-0.17568 0.60937-0.29687 0.23773-0.12084 0.46902-0.24468 0.75-0.34375 0.28097-0.0989 0.59286-0.2152 0.90625-0.28125 0.16206-0.0332 0.32171-0.0833 0.48438-0.0937z" style="color:#000000;fill:#f0f"/>
  </clipPath>
 </defs>
 <metadata id="metadata6143">
  <rdf:RDF>
   <cc:Work rdf:about="">
    <dc:format>image/svg+xml</dc:format>
    <dc:type rdf:resource="http://purl.org/dc/dcmitype/StillImage"/>
    <dc:title/>
   </cc:Work>
  </rdf:RDF>
 </metadata>
 <g id="layer1" transform="translate(-283.57 -358.79)">
  <g id="g6498" transform="translate(-810.43 -289.57)">
   <path id="path4120" style="fill:#808080" d="m16.855 17.002c-4.232-0.053-7.0769 0.897-8.5366 2.648-1.5326 1.825-2.3184 4.819-2.3184 8.979v32.746c0 4.16 0.7858 7.154 2.3184 8.979 1.4597 1.751 4.3046 2.648 8.5366 2.648h56.291c4.233 0 7.078-0.897 8.538-2.648 1.532-1.825 2.316-4.819 2.316-8.979v-32.746c0-4.16-0.784-7.154-2.316-8.979-1.46-1.751-4.305-2.648-8.538-2.648h-56.291zm13.709 10.998h0.006 5.68 0.75v19.973h3.637v6.121h-3.637v7.746h-7.004v-7.746h-14.178v-4.926l0.067-0.147c0.635-1.399 1.471-2.99 2.506-4.779v-0.006-0.004c1.065-1.787 2.238-3.619 3.521-5.498 1.285-1.881 2.647-3.732 4.088-5.55 1.444-1.823 2.893-3.476 4.344-4.959l0.22-0.225zm30.19 0.029c1.499 0 2.77 0.224 3.963 0.442 1.224 0.187 2.401 0.42 3.258 0.701 0.887 0.249 1.474 0.427 2.025 0.707 0.581 0.28 1.12 0.592 1.365 0.748l-2.025 5.766c-0.979-0.53-2.061-0.945-3.346-1.319-1.254-0.405-2.684-0.527-4.183-0.527-3.335 0-5.855 0.828-7.354 2.728-1.468 1.87-2.156 4.479-2.156 7.75 0 1.589 0.247 3.049 0.615 4.358 0.367 1.277 0.807 2.366 1.541 3.301 0.734 0.934 1.717 1.673 2.818 2.203 1.102 0.498 2.45 0.66 3.918 0.66 0.796 0 1.344 0.034 1.895 0 0.581-0.034 1.113-0.081 1.541-0.176v-11.316h7.264v16.025c-0.857 0.343-2.197 0.862-4.094 1.236-1.897 0.405-4.306 0.526-7.09 0.526-2.386 0-4.47-0.307-6.428-1.055-1.927-0.748-3.773-1.869-5.15-3.303-1.377-1.433-2.405-3.238-3.17-5.326-0.734-2.087-1.102-4.453-1.102-7.133 0-2.71 0.452-5.133 1.278-7.22 0.826-2.088 1.995-3.895 3.433-5.328 1.438-1.465 3.048-2.467 4.975-3.215 1.958-0.748 4.006-1.233 6.209-1.233zm-30.772 9.799c-0.333 0.415-0.649 0.795-0.994 1.233l0.01-0.01c-0.768 1.014-1.522 2.073-2.26 3.181-0.737 1.107-1.443 2.246-2.119 3.414v0.004 0.004c-0.46 0.774-0.852 1.546-1.254 2.319h6.621v-10.145h-0.004z" transform="translate(1094 648.36)"/>
   <rect id="rect5911" style="fill:none" height="90" width="90" y="648.36" x="1094"/>
   <path id="path5921-7" style="fill:#ccc;display:none" d="m213.5 189.36c-9 0-10 0-10 6v9c0 6 1 6 10 6h10c9 0 10 0 10-6v-9c0-6-1-6-10-6z" clip-path="url(#clipPath3017-4-5)" transform="matrix(2 0 0 2 702 293.64)"/>
  </g>
 </g>
</svg>
