<?xml version="1.0" encoding="UTF-8" standalone="no"?>
<!-- Created with Inkscape (http://www.inkscape.org/) -->
<svg id="svg6138" xmlns:rdf="http://www.w3.org/1999/02/22-rdf-syntax-ns#" xmlns="http://www.w3.org/2000/svg" height="90" viewBox="0 0 90 90.000001" width="90" version="1.1" xmlns:cc="http://creativecommons.org/ns#" xmlns:dc="http://purl.org/dc/elements/1.1/">
 <metadata id="metadata6143">
  <rdf:RDF>
   <cc:Work rdf:about="">
    <dc:format>image/svg+xml</dc:format>
    <dc:type rdf:resource="http://purl.org/dc/dcmitype/StillImage"/>
    <dc:title/>
   </cc:Work>
  </rdf:RDF>
 </metadata>
 <g id="layer1" transform="translate(-283.57 -358.79)">
  <rect id="rect5709" style="fill:none" height="90" width="90" y="358.79" x="283.57"/>
  <path id="path4106" style="color:#000000;fill:#808080" d="m328.82 373.56a4.769 4.8051 0 0 0 -0.47487 0.002 4.769 4.8051 0 0 0 -3.8736 2.3964l-28.205 49.223a4.769 4.8051 0 0 0 4.1263 7.2112h56.411a4.769 4.8051 0 0 0 4.1263 -7.2112l-28.205-49.223a4.769 4.8051 0 0 0 -3.9041 -2.3981zm-1.3754 22.904h0.21708v0.022c3.8616 0.0294 6.8697 0.73558 8.9614 2.1912l0.004 0.002c2.1651 1.4895 3.2579 3.7932 3.2579 6.8228 0 3.6899-1.8483 6.2559-5.3847 7.6267 0.46766 0.5751 0.97081 1.2235 1.545 2.0131 0.63574 0.87416 1.2825 1.8282 1.9436 2.8594v-0.004c0.66161 1.0057 1.2992 2.0507 1.908 3.1358v0.002c0.60907 1.0593 1.1525 2.1051 1.6298 3.1392l0.14246 0.30866h-6.0478l-0.0611-0.11532c-0.49862-0.94471-1.0383-1.8883-1.6162-2.834v-0.002-0.002c-0.5781-0.97228-1.1685-1.9057-1.7723-2.7983l-0.005-0.004-0.002-0.004c-0.57759-0.91888-1.155-1.7713-1.7316-2.5575v-0.002l-0.002-0.002c-0.55463-0.78154-1.0675-1.4668-1.5484-2.0776-0.31506 0.0201-0.60762 0.0339-0.84458 0.0339h-0.75131-2.1946v10.362h-5.4186v-27.405l0.1696-0.0373c1.224-0.26611 2.5276-0.43916 3.9075-0.51897 1.3754-0.10579 2.6058-0.15772 3.6938-0.15772zm0.35615 4.7453c-0.97685 0.00004-1.8687 0.0407-2.7068 0.10853v8.4357h1.9588c1.2049 0 2.26-0.0668 3.1697-0.19674 0.90347-0.12902 1.6427-0.35979 2.2183-0.68516h0.002l0.002-0.002c0.60074-0.32543 1.0423-0.75687 1.3381-1.2991 0.29382-0.53865 0.44773-1.2386 0.44773-2.1098 0-0.81679-0.15273-1.4926-0.44773-2.0334-0.29676-0.54416-0.72735-0.97407-1.3025-1.2991h-0.002l-0.004-0.002c-0.55215-0.32628-1.2238-0.55673-2.0199-0.68517h-0.005l-0.004-0.002c-0.80082-0.155-1.6807-0.23056-2.644-0.23065h-0.002z"/>
 </g>
</svg>
