<?xml version="1.0" encoding="UTF-8" standalone="no"?>
<!-- Created with Inkscape (http://www.inkscape.org/) -->
<svg id="svg4874" xmlns:rdf="http://www.w3.org/1999/02/22-rdf-syntax-ns#" xmlns="http://www.w3.org/2000/svg" height="96" viewBox="0 0 96 96.000001" width="96" version="1.1" xmlns:cc="http://creativecommons.org/ns#" xmlns:dc="http://purl.org/dc/elements/1.1/">
 <metadata id="metadata4879">
  <rdf:RDF>
   <cc:Work rdf:about="">
    <dc:format>image/svg+xml</dc:format>
    <dc:type rdf:resource="http://purl.org/dc/dcmitype/StillImage"/>
    <dc:title/>
   </cc:Work>
  </rdf:RDF>
 </metadata>
 <g id="layer1" transform="translate(67.857 -78.505)">
  <rect id="rect4782" style="color:#000000;fill:none" transform="rotate(90)" height="96" width="96" y="-28.143" x="78.505"/>
  <path id="path4643" style="color-rendering:auto;text-decoration-color:#000000;color:#000000;font-variant-numeric:normal;shape-rendering:auto;solid-color:#000000;text-decoration-line:none;fill:#808080;font-variant-position:normal;mix-blend-mode:normal;block-progression:tb;font-feature-settings:normal;shape-padding:0;font-variant-alternates:normal;text-indent:0;font-variant-caps:normal;image-rendering:auto;white-space:normal;text-decoration-style:solid;font-variant-ligatures:none;isolation:auto;text-transform:none" d="m-35.869 82.504-0.01172 0.002c-5.0328 0.05818-8.7136-0.12027-11.725 1.541-1.5055 0.83064-2.6968 2.2356-3.3555 3.9902-0.65866 1.7547-0.89648 3.8364-0.89648 6.4668v64.002c0 2.6304 0.23782 4.7121 0.89648 6.4668 0.65866 1.7546 1.85 3.1596 3.3555 3.9902 3.011 1.6613 6.6918 1.4848 11.725 1.543h0.01172 32.023 0.011719c5.0328-0.0582 8.7136 0.11832 11.725-1.543 1.5055-0.83064 2.6968-2.2356 3.3555-3.9902 0.65866-1.7547 0.89648-3.8364 0.89648-6.4668v-58.83l-17.172-17.172h-30.84zm0.01172 4h29.172l14.828 14.83v57.172c0 2.3696-0.25037 4.0209-0.64062 5.0606-0.39025 1.0396-0.80933 1.4898-1.543 1.8945-1.4645 0.80804-4.7782 0.98616-9.8164 1.0449h-31.977-0.02344c-5.0383-0.0588-8.3519-0.23688-9.8164-1.0449-0.73364-0.40478-1.1508-0.85491-1.541-1.8945-0.39025-1.0396-0.64258-2.691-0.64258-5.0606v-64.002c0-2.3696 0.25232-4.0209 0.64258-5.0605 0.39025-1.0396 0.80738-1.4898 1.541-1.8945 1.4645-0.80804 4.7782-0.98616 9.8164-1.0449z"/>
  <path id="path4942" style="fill:#808080" d="m-22.857 105.51v10.92c0 3.209 0.0933 6.1805 0.2793 8.9199 0.18602 2.7003 0.43607 5.4207 0.74609 8.1602h3.998c0.27903-2.7394 0.51126-5.4598 0.69726-8.1602 0.18602-2.7003 0.2793-5.6717 0.2793-8.9199v-10.92h-6zm3 34c-1.1001 0-2.0496 0.38666-2.8496 1.1582-0.76673 0.738-1.1504 1.6912-1.1504 2.8652 0 1.1741 0.38366 2.1311 1.1504 2.8691 0.80005 0.73799 1.7496 1.1074 2.8496 1.1074 1.1334 0 2.0829-0.36943 2.8496-1.1074 0.76673-0.73799 1.1504-1.695 1.1504-2.8691s-0.38366-2.1272-1.1504-2.8652c-0.7667-0.77154-1.7162-1.1582-2.8496-1.1582z"/>
 </g>
</svg>
